<?xml version="1.0" encoding="utf-8" standalone="no"?>
<!DOCTYPE svg PUBLIC "-//W3C//DTD SVG 1.1//EN"
  "http://www.w3.org/Graphics/SVG/1.1/DTD/svg11.dtd">
<svg height="360pt" version="1.1" viewBox="0 0 576 360" width="576pt" xmlns="http://www.w3.org/2000/svg" xmlns:xlink="http://www.w3.org/1999/xlink">
 <metadata>
  <rdf:RDF xmlns:cc="http://creativecommons.org/ns#" xmlns:dc="http://purl.org/dc/elements/1.1/" xmlns:rdf="http://www.w3.org/1999/02/22-rdf-syntax-ns#">
   <cc:Work>
    <dc:type rdf:resource="http://purl.org/dc/dcmitype/StillImage"/>
    <dc:date>2024-01-19T12:22:27.747674</dc:date>
    <dc:format>image/svg+xml</dc:format>
    <dc:creator>
     <cc:Agent>
      <dc:title>Matplotlib v3.4.3, https://matplotlib.org/</dc:title>
     </cc:Agent>
    </dc:creator>
   </cc:Work>
  </rdf:RDF>
 </metadata>
 <defs>
  <style type="text/css">*{stroke-linecap:butt;stroke-linejoin:round;}</style>
 </defs>
 <g id="figure_1">
  <g id="patch_1">
   <path d="M 0 360 
L 576 360 
L 576 0 
L 0 0 
z
" style="fill:none;"/>
  </g>
  <g id="axes_1">
   <g id="patch_2">
    <path d="M 57.6 151.043478 
L 547.2 151.043478 
L 547.2 18 
L 57.6 18 
z
" style="fill:#ffffff;"/>
   </g>
   <g id="PathCollection_1">
    <defs>
     <path d="M 0 0.707107 
C 0.187527 0.707107 0.367398 0.632602 0.5 0.5 
C 0.632602 0.367398 0.707107 0.187527 0.707107 0 
C 0.707107 -0.187527 0.632602 -0.367398 0.5 -0.5 
C 0.367398 -0.632602 0.187527 -0.707107 0 -0.707107 
C -0.187527 -0.707107 -0.367398 -0.632602 -0.5 -0.5 
C -0.632602 -0.367398 -0.707107 -0.187527 -0.707107 0 
C -0.707107 0.187527 -0.632602 0.367398 -0.5 0.5 
C -0.367398 0.632602 -0.187527 0.707107 0 0.707107 
z
" id="mdeae0b0ae5" style="stroke:#000000;"/>
    </defs>
    <g clip-path="url(#pa4e853795e)">
     <use style="stroke:#000000;" x="-1" xlink:href="#mdeae0b0ae5" y="67.891304"/>
     <use style="stroke:#000000;" x="232.224" xlink:href="#mdeae0b0ae5" y="67.891304"/>
     <use style="stroke:#000000;" x="246.7488" xlink:href="#mdeae0b0ae5" y="67.891304"/>
     <use style="stroke:#000000;" x="258.336" xlink:href="#mdeae0b0ae5" y="67.891304"/>
     <use style="stroke:#000000;" x="269.4336" xlink:href="#mdeae0b0ae5" y="67.891304"/>
     <use style="stroke:#000000;" x="278.5728" xlink:href="#mdeae0b0ae5" y="67.891304"/>
     <use style="stroke:#000000;" x="287.5488" xlink:href="#mdeae0b0ae5" y="67.891304"/>
     <use style="stroke:#000000;" x="295.2192" xlink:href="#mdeae0b0ae5" y="67.891304"/>
     <use style="stroke:#000000;" x="308.112" xlink:href="#mdeae0b0ae5" y="67.891304"/>
     <use style="stroke:#000000;" x="317.7408" xlink:href="#mdeae0b0ae5" y="67.891304"/>
     <use style="stroke:#000000;" x="327.696" xlink:href="#mdeae0b0ae5" y="67.891304"/>
     <use style="stroke:#000000;" x="335.2032" xlink:href="#mdeae0b0ae5" y="67.891304"/>
     <use style="stroke:#000000;" x="348.096" xlink:href="#mdeae0b0ae5" y="67.891304"/>
     <use style="stroke:#000000;" x="358.8672" xlink:href="#mdeae0b0ae5" y="67.891304"/>
     <use style="stroke:#000000;" x="369.312" xlink:href="#mdeae0b0ae5" y="67.891304"/>
     <use style="stroke:#000000;" x="378.288" xlink:href="#mdeae0b0ae5" y="67.891304"/>
     <use style="stroke:#000000;" x="390.8544" xlink:href="#mdeae0b0ae5" y="67.891304"/>
     <use style="stroke:#000000;" x="402.768" xlink:href="#mdeae0b0ae5" y="67.891304"/>
     <use style="stroke:#000000;" x="414.3552" xlink:href="#mdeae0b0ae5" y="67.891304"/>
     <use style="stroke:#000000;" x="414.5184" xlink:href="#mdeae0b0ae5" y="67.891304"/>
     <use style="stroke:#000000;" x="427.4112" xlink:href="#mdeae0b0ae5" y="67.891304"/>
     <use style="stroke:#000000;" x="438.3456" xlink:href="#mdeae0b0ae5" y="67.891304"/>
     <use style="stroke:#000000;" x="450.2592" xlink:href="#mdeae0b0ae5" y="67.891304"/>
     <use style="stroke:#000000;" x="460.8672" xlink:href="#mdeae0b0ae5" y="67.891304"/>
     <use style="stroke:#000000;" x="470.0064" xlink:href="#mdeae0b0ae5" y="67.891304"/>
     <use style="stroke:#000000;" x="479.9616" xlink:href="#mdeae0b0ae5" y="67.891304"/>
     <use style="stroke:#000000;" x="490.4064" xlink:href="#mdeae0b0ae5" y="67.891304"/>
     <use style="stroke:#000000;" x="499.7088" xlink:href="#mdeae0b0ae5" y="67.891304"/>
     <use style="stroke:#000000;" x="510.1536" xlink:href="#mdeae0b0ae5" y="67.891304"/>
     <use style="stroke:#000000;" x="521.2512" xlink:href="#mdeae0b0ae5" y="67.891304"/>
     <use style="stroke:#000000;" x="529.9008" xlink:href="#mdeae0b0ae5" y="67.891304"/>
     <use style="stroke:#000000;" x="541.488" xlink:href="#mdeae0b0ae5" y="67.891304"/>
     <use style="stroke:#000000;" x="554.2176" xlink:href="#mdeae0b0ae5" y="67.891304"/>
     <use style="stroke:#000000;" x="565.968" xlink:href="#mdeae0b0ae5" y="67.891304"/>
     <use style="stroke:#000000;" x="577.5552" xlink:href="#mdeae0b0ae5" y="67.891304"/>
     <use style="stroke:#000000;" x="577.7184" xlink:href="#mdeae0b0ae5" y="67.891304"/>
     <use style="stroke:#000000;" x="592.08" xlink:href="#mdeae0b0ae5" y="67.891304"/>
     <use style="stroke:#000000;" x="604.1568" xlink:href="#mdeae0b0ae5" y="67.891304"/>
     <use style="stroke:#000000;" x="614.112" xlink:href="#mdeae0b0ae5" y="67.891304"/>
     <use style="stroke:#000000;" x="628.4736" xlink:href="#mdeae0b0ae5" y="67.891304"/>
     <use style="stroke:#000000;" x="644.9568" xlink:href="#mdeae0b0ae5" y="67.891304"/>
     <use style="stroke:#000000;" x="658.3392" xlink:href="#mdeae0b0ae5" y="67.891304"/>
     <use style="stroke:#000000;" x="670.2528" xlink:href="#mdeae0b0ae5" y="67.891304"/>
     <use style="stroke:#000000;" x="684.4512" xlink:href="#mdeae0b0ae5" y="67.891304"/>
     <use style="stroke:#000000;" x="699.4656" xlink:href="#mdeae0b0ae5" y="67.891304"/>
     <use style="stroke:#000000;" x="710.5632" xlink:href="#mdeae0b0ae5" y="67.891304"/>
     <use style="stroke:#000000;" x="721.9872" xlink:href="#mdeae0b0ae5" y="67.891304"/>
     <use style="stroke:#000000;" x="732.9216" xlink:href="#mdeae0b0ae5" y="67.891304"/>
     <use style="stroke:#000000;" x="744.3456" xlink:href="#mdeae0b0ae5" y="67.891304"/>
     <use style="stroke:#000000;" x="755.28" xlink:href="#mdeae0b0ae5" y="67.891304"/>
     <use style="stroke:#000000;" x="766.0512" xlink:href="#mdeae0b0ae5" y="67.891304"/>
     <use style="stroke:#000000;" x="776.3328" xlink:href="#mdeae0b0ae5" y="67.891304"/>
     <use style="stroke:#000000;" x="789.0624" xlink:href="#mdeae0b0ae5" y="67.891304"/>
     <use style="stroke:#000000;" x="789.2256" xlink:href="#mdeae0b0ae5" y="67.891304"/>
     <use style="stroke:#000000;" x="804.5664" xlink:href="#mdeae0b0ae5" y="67.891304"/>
     <use style="stroke:#000000;" x="816.1536" xlink:href="#mdeae0b0ae5" y="67.891304"/>
     <use style="stroke:#000000;" x="830.1888" xlink:href="#mdeae0b0ae5" y="67.891304"/>
     <use style="stroke:#000000;" x="842.9184" xlink:href="#mdeae0b0ae5" y="67.891304"/>
     <use style="stroke:#000000;" x="857.28" xlink:href="#mdeae0b0ae5" y="67.891304"/>
     <use style="stroke:#000000;" x="869.52" xlink:href="#mdeae0b0ae5" y="67.891304"/>
     <use style="stroke:#000000;" x="881.9232" xlink:href="#mdeae0b0ae5" y="67.891304"/>
     <use style="stroke:#000000;" x="896.6112" xlink:href="#mdeae0b0ae5" y="67.891304"/>
     <use style="stroke:#000000;" x="907.3824" xlink:href="#mdeae0b0ae5" y="67.891304"/>
     <use style="stroke:#000000;" x="920.7648" xlink:href="#mdeae0b0ae5" y="67.891304"/>
     <use style="stroke:#000000;" x="933.984" xlink:href="#mdeae0b0ae5" y="67.891304"/>
     <use style="stroke:#000000;" x="946.5504" xlink:href="#mdeae0b0ae5" y="67.891304"/>
     <use style="stroke:#000000;" x="959.4432" xlink:href="#mdeae0b0ae5" y="67.891304"/>
     <use style="stroke:#000000;" x="969.7248" xlink:href="#mdeae0b0ae5" y="67.891304"/>
     <use style="stroke:#000000;" x="985.5552" xlink:href="#mdeae0b0ae5" y="67.891304"/>
     <use style="stroke:#000000;" x="1000.08" xlink:href="#mdeae0b0ae5" y="67.891304"/>
     <use style="stroke:#000000;" x="1011.0144" xlink:href="#mdeae0b0ae5" y="67.891304"/>
     <use style="stroke:#000000;" x="1023.744" xlink:href="#mdeae0b0ae5" y="67.891304"/>
     <use style="stroke:#000000;" x="1037.1264" xlink:href="#mdeae0b0ae5" y="67.891304"/>
     <use style="stroke:#000000;" x="1037.4528" xlink:href="#mdeae0b0ae5" y="67.891304"/>
     <use style="stroke:#000000;" x="1050.1824" xlink:href="#mdeae0b0ae5" y="67.891304"/>
     <use style="stroke:#000000;" x="1062.2592" xlink:href="#mdeae0b0ae5" y="67.891304"/>
     <use style="stroke:#000000;" x="1076.6208" xlink:href="#mdeae0b0ae5" y="67.891304"/>
     <use style="stroke:#000000;" x="1087.2288" xlink:href="#mdeae0b0ae5" y="67.891304"/>
     <use style="stroke:#000000;" x="1100.448" xlink:href="#mdeae0b0ae5" y="67.891304"/>
     <use style="stroke:#000000;" x="1118.5632" xlink:href="#mdeae0b0ae5" y="67.891304"/>
     <use style="stroke:#000000;" x="1142.5536" xlink:href="#mdeae0b0ae5" y="67.891304"/>
     <use style="stroke:#000000;" x="1156.752" xlink:href="#mdeae0b0ae5" y="67.891304"/>
     <use style="stroke:#000000;" x="1172.9088" xlink:href="#mdeae0b0ae5" y="67.891304"/>
     <use style="stroke:#000000;" x="1187.9232" xlink:href="#mdeae0b0ae5" y="67.891304"/>
     <use style="stroke:#000000;" x="1201.1424" xlink:href="#mdeae0b0ae5" y="67.891304"/>
     <use style="stroke:#000000;" x="1215.9936" xlink:href="#mdeae0b0ae5" y="67.891304"/>
     <use style="stroke:#000000;" x="1238.352" xlink:href="#mdeae0b0ae5" y="67.891304"/>
     <use style="stroke:#000000;" x="1249.4496" xlink:href="#mdeae0b0ae5" y="67.891304"/>
     <use style="stroke:#000000;" x="1249.6128" xlink:href="#mdeae0b0ae5" y="67.891304"/>
     <use style="stroke:#000000;" x="1259.568" xlink:href="#mdeae0b0ae5" y="67.891304"/>
     <use style="stroke:#000000;" x="1274.7456" xlink:href="#mdeae0b0ae5" y="67.891304"/>
     <use style="stroke:#000000;" x="1289.1072" xlink:href="#mdeae0b0ae5" y="67.891304"/>
     <use style="stroke:#000000;" x="1300.8576" xlink:href="#mdeae0b0ae5" y="67.891304"/>
     <use style="stroke:#000000;" x="1311.4656" xlink:href="#mdeae0b0ae5" y="67.891304"/>
     <use style="stroke:#000000;" x="1324.1952" xlink:href="#mdeae0b0ae5" y="67.891304"/>
     <use style="stroke:#000000;" x="1338.8832" xlink:href="#mdeae0b0ae5" y="67.891304"/>
     <use style="stroke:#000000;" x="1339.0464" xlink:href="#mdeae0b0ae5" y="67.891304"/>
     <use style="stroke:#000000;" x="1354.0608" xlink:href="#mdeae0b0ae5" y="67.891304"/>
     <use style="stroke:#000000;" x="1366.7904" xlink:href="#mdeae0b0ae5" y="67.891304"/>
     <use style="stroke:#000000;" x="1389.4752" xlink:href="#mdeae0b0ae5" y="67.891304"/>
     <use style="stroke:#000000;" x="1411.6704" xlink:href="#mdeae0b0ae5" y="67.891304"/>
     <use style="stroke:#000000;" x="1430.7648" xlink:href="#mdeae0b0ae5" y="67.891304"/>
     <use style="stroke:#000000;" x="1450.1856" xlink:href="#mdeae0b0ae5" y="67.891304"/>
     <use style="stroke:#000000;" x="1467.4848" xlink:href="#mdeae0b0ae5" y="67.891304"/>
     <use style="stroke:#000000;" x="1481.52" xlink:href="#mdeae0b0ae5" y="67.891304"/>
     <use style="stroke:#000000;" x="1498.0032" xlink:href="#mdeae0b0ae5" y="67.891304"/>
     <use style="stroke:#000000;" x="1509.7536" xlink:href="#mdeae0b0ae5" y="67.891304"/>
     <use style="stroke:#000000;" x="1527.8688" xlink:href="#mdeae0b0ae5" y="67.891304"/>
     <use style="stroke:#000000;" x="1549.0848" xlink:href="#mdeae0b0ae5" y="67.891304"/>
     <use style="stroke:#000000;" x="1569.648" xlink:href="#mdeae0b0ae5" y="67.891304"/>
     <use style="stroke:#000000;" x="1589.3952" xlink:href="#mdeae0b0ae5" y="67.891304"/>
     <use style="stroke:#000000;" x="1620.8928" xlink:href="#mdeae0b0ae5" y="67.891304"/>
     <use style="stroke:#000000;" x="1644.5568" xlink:href="#mdeae0b0ae5" y="67.891304"/>
     <use style="stroke:#000000;" x="1657.2864" xlink:href="#mdeae0b0ae5" y="67.891304"/>
     <use style="stroke:#000000;" x="1672.7904" xlink:href="#mdeae0b0ae5" y="67.891304"/>
     <use style="stroke:#000000;" x="1686.336" xlink:href="#mdeae0b0ae5" y="67.891304"/>
     <use style="stroke:#000000;" x="1699.8816" xlink:href="#mdeae0b0ae5" y="67.891304"/>
     <use style="stroke:#000000;" x="1712.6112" xlink:href="#mdeae0b0ae5" y="67.891304"/>
     <use style="stroke:#000000;" x="1726.1568" xlink:href="#mdeae0b0ae5" y="67.891304"/>
     <use style="stroke:#000000;" x="1746.2304" xlink:href="#mdeae0b0ae5" y="67.891304"/>
     <use style="stroke:#000000;" x="1765.1616" xlink:href="#mdeae0b0ae5" y="67.891304"/>
     <use style="stroke:#000000;" x="1783.6032" xlink:href="#mdeae0b0ae5" y="67.891304"/>
     <use style="stroke:#000000;" x="1800.9024" xlink:href="#mdeae0b0ae5" y="67.891304"/>
     <use style="stroke:#000000;" x="1814.448" xlink:href="#mdeae0b0ae5" y="67.891304"/>
     <use style="stroke:#000000;" x="1831.584" xlink:href="#mdeae0b0ae5" y="67.891304"/>
     <use style="stroke:#000000;" x="1843.4976" xlink:href="#mdeae0b0ae5" y="67.891304"/>
     <use style="stroke:#000000;" x="1861.2864" xlink:href="#mdeae0b0ae5" y="67.891304"/>
     <use style="stroke:#000000;" x="1861.4496" xlink:href="#mdeae0b0ae5" y="67.891304"/>
     <use style="stroke:#000000;" x="1898.6592" xlink:href="#mdeae0b0ae5" y="67.891304"/>
     <use style="stroke:#000000;" x="1918.4064" xlink:href="#mdeae0b0ae5" y="67.891304"/>
     <use style="stroke:#000000;" x="1929.8304" xlink:href="#mdeae0b0ae5" y="67.891304"/>
     <use style="stroke:#000000;" x="1948.272" xlink:href="#mdeae0b0ae5" y="67.891304"/>
     <use style="stroke:#000000;" x="1974.7104" xlink:href="#mdeae0b0ae5" y="67.891304"/>
     <use style="stroke:#000000;" x="1992.336" xlink:href="#mdeae0b0ae5" y="67.891304"/>
     <use style="stroke:#000000;" x="2039.664" xlink:href="#mdeae0b0ae5" y="67.891304"/>
     <use style="stroke:#000000;" x="2061.2064" xlink:href="#mdeae0b0ae5" y="67.891304"/>
     <use style="stroke:#000000;" x="2099.5584" xlink:href="#mdeae0b0ae5" y="67.891304"/>
     <use style="stroke:#000000;" x="2183.4432" xlink:href="#mdeae0b0ae5" y="67.891304"/>
    </g>
   </g>
   <g id="matplotlib.axis_1">
    <g id="xtick_1">
     <g id="line2d_1">
      <defs>
       <path d="M 0 0 
L 0 3.5 
" id="m2d70fcfb92" style="stroke:#000000;stroke-width:0.8;"/>
      </defs>
      <g>
       <use style="stroke:#000000;stroke-width:0.8;" x="57.6" xlink:href="#m2d70fcfb92" y="151.043478"/>
      </g>
     </g>
     <g id="text_1">
      <!-- 0.50 -->
      <g transform="translate(46.467188 165.641916)scale(0.1 -0.1)">
       <defs>
        <path d="M 2034 4250 
Q 1547 4250 1301 3770 
Q 1056 3291 1056 2328 
Q 1056 1369 1301 889 
Q 1547 409 2034 409 
Q 2525 409 2770 889 
Q 3016 1369 3016 2328 
Q 3016 3291 2770 3770 
Q 2525 4250 2034 4250 
z
M 2034 4750 
Q 2819 4750 3233 4129 
Q 3647 3509 3647 2328 
Q 3647 1150 3233 529 
Q 2819 -91 2034 -91 
Q 1250 -91 836 529 
Q 422 1150 422 2328 
Q 422 3509 836 4129 
Q 1250 4750 2034 4750 
z
" id="DejaVuSans-30" transform="scale(0.015625)"/>
        <path d="M 684 794 
L 1344 794 
L 1344 0 
L 684 0 
L 684 794 
z
" id="DejaVuSans-2e" transform="scale(0.015625)"/>
        <path d="M 691 4666 
L 3169 4666 
L 3169 4134 
L 1269 4134 
L 1269 2991 
Q 1406 3038 1543 3061 
Q 1681 3084 1819 3084 
Q 2600 3084 3056 2656 
Q 3513 2228 3513 1497 
Q 3513 744 3044 326 
Q 2575 -91 1722 -91 
Q 1428 -91 1123 -41 
Q 819 9 494 109 
L 494 744 
Q 775 591 1075 516 
Q 1375 441 1709 441 
Q 2250 441 2565 725 
Q 2881 1009 2881 1497 
Q 2881 1984 2565 2268 
Q 2250 2553 1709 2553 
Q 1456 2553 1204 2497 
Q 953 2441 691 2322 
L 691 4666 
z
" id="DejaVuSans-35" transform="scale(0.015625)"/>
       </defs>
       <use xlink:href="#DejaVuSans-30"/>
       <use x="63.623047" xlink:href="#DejaVuSans-2e"/>
       <use x="95.410156" xlink:href="#DejaVuSans-35"/>
       <use x="159.033203" xlink:href="#DejaVuSans-30"/>
      </g>
     </g>
    </g>
    <g id="xtick_2">
     <g id="line2d_2">
      <g>
       <use style="stroke:#000000;stroke-width:0.8;" x="139.2" xlink:href="#m2d70fcfb92" y="151.043478"/>
      </g>
     </g>
     <g id="text_2">
      <!-- 0.55 -->
      <g transform="translate(128.067188 165.641916)scale(0.1 -0.1)">
       <use xlink:href="#DejaVuSans-30"/>
       <use x="63.623047" xlink:href="#DejaVuSans-2e"/>
       <use x="95.410156" xlink:href="#DejaVuSans-35"/>
       <use x="159.033203" xlink:href="#DejaVuSans-35"/>
      </g>
     </g>
    </g>
    <g id="xtick_3">
     <g id="line2d_3">
      <g>
       <use style="stroke:#000000;stroke-width:0.8;" x="220.8" xlink:href="#m2d70fcfb92" y="151.043478"/>
      </g>
     </g>
     <g id="text_3">
      <!-- 0.60 -->
      <g transform="translate(209.667188 165.641916)scale(0.1 -0.1)">
       <defs>
        <path d="M 2113 2584 
Q 1688 2584 1439 2293 
Q 1191 2003 1191 1497 
Q 1191 994 1439 701 
Q 1688 409 2113 409 
Q 2538 409 2786 701 
Q 3034 994 3034 1497 
Q 3034 2003 2786 2293 
Q 2538 2584 2113 2584 
z
M 3366 4563 
L 3366 3988 
Q 3128 4100 2886 4159 
Q 2644 4219 2406 4219 
Q 1781 4219 1451 3797 
Q 1122 3375 1075 2522 
Q 1259 2794 1537 2939 
Q 1816 3084 2150 3084 
Q 2853 3084 3261 2657 
Q 3669 2231 3669 1497 
Q 3669 778 3244 343 
Q 2819 -91 2113 -91 
Q 1303 -91 875 529 
Q 447 1150 447 2328 
Q 447 3434 972 4092 
Q 1497 4750 2381 4750 
Q 2619 4750 2861 4703 
Q 3103 4656 3366 4563 
z
" id="DejaVuSans-36" transform="scale(0.015625)"/>
       </defs>
       <use xlink:href="#DejaVuSans-30"/>
       <use x="63.623047" xlink:href="#DejaVuSans-2e"/>
       <use x="95.410156" xlink:href="#DejaVuSans-36"/>
       <use x="159.033203" xlink:href="#DejaVuSans-30"/>
      </g>
     </g>
    </g>
    <g id="xtick_4">
     <g id="line2d_4">
      <g>
       <use style="stroke:#000000;stroke-width:0.8;" x="302.4" xlink:href="#m2d70fcfb92" y="151.043478"/>
      </g>
     </g>
     <g id="text_4">
      <!-- 0.65 -->
      <g transform="translate(291.267187 165.641916)scale(0.1 -0.1)">
       <use xlink:href="#DejaVuSans-30"/>
       <use x="63.623047" xlink:href="#DejaVuSans-2e"/>
       <use x="95.410156" xlink:href="#DejaVuSans-36"/>
       <use x="159.033203" xlink:href="#DejaVuSans-35"/>
      </g>
     </g>
    </g>
    <g id="xtick_5">
     <g id="line2d_5">
      <g>
       <use style="stroke:#000000;stroke-width:0.8;" x="384" xlink:href="#m2d70fcfb92" y="151.043478"/>
      </g>
     </g>
     <g id="text_5">
      <!-- 0.70 -->
      <g transform="translate(372.867188 165.641916)scale(0.1 -0.1)">
       <defs>
        <path d="M 525 4666 
L 3525 4666 
L 3525 4397 
L 1831 0 
L 1172 0 
L 2766 4134 
L 525 4134 
L 525 4666 
z
" id="DejaVuSans-37" transform="scale(0.015625)"/>
       </defs>
       <use xlink:href="#DejaVuSans-30"/>
       <use x="63.623047" xlink:href="#DejaVuSans-2e"/>
       <use x="95.410156" xlink:href="#DejaVuSans-37"/>
       <use x="159.033203" xlink:href="#DejaVuSans-30"/>
      </g>
     </g>
    </g>
    <g id="xtick_6">
     <g id="line2d_6">
      <g>
       <use style="stroke:#000000;stroke-width:0.8;" x="465.6" xlink:href="#m2d70fcfb92" y="151.043478"/>
      </g>
     </g>
     <g id="text_6">
      <!-- 0.75 -->
      <g transform="translate(454.467187 165.641916)scale(0.1 -0.1)">
       <use xlink:href="#DejaVuSans-30"/>
       <use x="63.623047" xlink:href="#DejaVuSans-2e"/>
       <use x="95.410156" xlink:href="#DejaVuSans-37"/>
       <use x="159.033203" xlink:href="#DejaVuSans-35"/>
      </g>
     </g>
    </g>
    <g id="xtick_7">
     <g id="line2d_7">
      <g>
       <use style="stroke:#000000;stroke-width:0.8;" x="547.2" xlink:href="#m2d70fcfb92" y="151.043478"/>
      </g>
     </g>
     <g id="text_7">
      <!-- 0.80 -->
      <g transform="translate(536.067187 165.641916)scale(0.1 -0.1)">
       <defs>
        <path d="M 2034 2216 
Q 1584 2216 1326 1975 
Q 1069 1734 1069 1313 
Q 1069 891 1326 650 
Q 1584 409 2034 409 
Q 2484 409 2743 651 
Q 3003 894 3003 1313 
Q 3003 1734 2745 1975 
Q 2488 2216 2034 2216 
z
M 1403 2484 
Q 997 2584 770 2862 
Q 544 3141 544 3541 
Q 544 4100 942 4425 
Q 1341 4750 2034 4750 
Q 2731 4750 3128 4425 
Q 3525 4100 3525 3541 
Q 3525 3141 3298 2862 
Q 3072 2584 2669 2484 
Q 3125 2378 3379 2068 
Q 3634 1759 3634 1313 
Q 3634 634 3220 271 
Q 2806 -91 2034 -91 
Q 1263 -91 848 271 
Q 434 634 434 1313 
Q 434 1759 690 2068 
Q 947 2378 1403 2484 
z
M 1172 3481 
Q 1172 3119 1398 2916 
Q 1625 2713 2034 2713 
Q 2441 2713 2670 2916 
Q 2900 3119 2900 3481 
Q 2900 3844 2670 4047 
Q 2441 4250 2034 4250 
Q 1625 4250 1398 4047 
Q 1172 3844 1172 3481 
z
" id="DejaVuSans-38" transform="scale(0.015625)"/>
       </defs>
       <use xlink:href="#DejaVuSans-30"/>
       <use x="63.623047" xlink:href="#DejaVuSans-2e"/>
       <use x="95.410156" xlink:href="#DejaVuSans-38"/>
       <use x="159.033203" xlink:href="#DejaVuSans-30"/>
      </g>
     </g>
    </g>
    <g id="text_8">
     <!-- [s] -->
     <g transform="translate(295.89375 179.320041)scale(0.1 -0.1)">
      <defs>
       <path d="M 550 4863 
L 1875 4863 
L 1875 4416 
L 1125 4416 
L 1125 -397 
L 1875 -397 
L 1875 -844 
L 550 -844 
L 550 4863 
z
" id="DejaVuSans-5b" transform="scale(0.015625)"/>
       <path d="M 2834 3397 
L 2834 2853 
Q 2591 2978 2328 3040 
Q 2066 3103 1784 3103 
Q 1356 3103 1142 2972 
Q 928 2841 928 2578 
Q 928 2378 1081 2264 
Q 1234 2150 1697 2047 
L 1894 2003 
Q 2506 1872 2764 1633 
Q 3022 1394 3022 966 
Q 3022 478 2636 193 
Q 2250 -91 1575 -91 
Q 1294 -91 989 -36 
Q 684 19 347 128 
L 347 722 
Q 666 556 975 473 
Q 1284 391 1588 391 
Q 1994 391 2212 530 
Q 2431 669 2431 922 
Q 2431 1156 2273 1281 
Q 2116 1406 1581 1522 
L 1381 1569 
Q 847 1681 609 1914 
Q 372 2147 372 2553 
Q 372 3047 722 3315 
Q 1072 3584 1716 3584 
Q 2034 3584 2315 3537 
Q 2597 3491 2834 3397 
z
" id="DejaVuSans-73" transform="scale(0.015625)"/>
       <path d="M 1947 4863 
L 1947 -844 
L 622 -844 
L 622 -397 
L 1369 -397 
L 1369 4416 
L 622 4416 
L 622 4863 
L 1947 4863 
z
" id="DejaVuSans-5d" transform="scale(0.015625)"/>
      </defs>
      <use xlink:href="#DejaVuSans-5b"/>
      <use x="39.013672" xlink:href="#DejaVuSans-73"/>
      <use x="91.113281" xlink:href="#DejaVuSans-5d"/>
     </g>
    </g>
   </g>
   <g id="matplotlib.axis_2">
    <g id="ytick_1">
     <g id="line2d_8">
      <defs>
       <path d="M 0 0 
L -3.5 0 
" id="m54d86b2515" style="stroke:#000000;stroke-width:0.8;"/>
      </defs>
      <g>
       <use style="stroke:#000000;stroke-width:0.8;" x="57.6" xlink:href="#m54d86b2515" y="134.413043"/>
      </g>
     </g>
     <g id="text_9">
      <!-- −60 -->
      <g transform="translate(29.495313 138.212262)scale(0.1 -0.1)">
       <defs>
        <path d="M 678 2272 
L 4684 2272 
L 4684 1741 
L 678 1741 
L 678 2272 
z
" id="DejaVuSans-2212" transform="scale(0.015625)"/>
       </defs>
       <use xlink:href="#DejaVuSans-2212"/>
       <use x="83.789062" xlink:href="#DejaVuSans-36"/>
       <use x="147.412109" xlink:href="#DejaVuSans-30"/>
      </g>
     </g>
    </g>
    <g id="ytick_2">
     <g id="line2d_9">
      <g>
       <use style="stroke:#000000;stroke-width:0.8;" x="57.6" xlink:href="#m54d86b2515" y="101.152174"/>
      </g>
     </g>
     <g id="text_10">
      <!-- −40 -->
      <g transform="translate(29.495313 104.951393)scale(0.1 -0.1)">
       <defs>
        <path d="M 2419 4116 
L 825 1625 
L 2419 1625 
L 2419 4116 
z
M 2253 4666 
L 3047 4666 
L 3047 1625 
L 3713 1625 
L 3713 1100 
L 3047 1100 
L 3047 0 
L 2419 0 
L 2419 1100 
L 313 1100 
L 313 1709 
L 2253 4666 
z
" id="DejaVuSans-34" transform="scale(0.015625)"/>
       </defs>
       <use xlink:href="#DejaVuSans-2212"/>
       <use x="83.789062" xlink:href="#DejaVuSans-34"/>
       <use x="147.412109" xlink:href="#DejaVuSans-30"/>
      </g>
     </g>
    </g>
    <g id="ytick_3">
     <g id="line2d_10">
      <g>
       <use style="stroke:#000000;stroke-width:0.8;" x="57.6" xlink:href="#m54d86b2515" y="67.891304"/>
      </g>
     </g>
     <g id="text_11">
      <!-- −20 -->
      <g transform="translate(29.495313 71.690523)scale(0.1 -0.1)">
       <defs>
        <path d="M 1228 531 
L 3431 531 
L 3431 0 
L 469 0 
L 469 531 
Q 828 903 1448 1529 
Q 2069 2156 2228 2338 
Q 2531 2678 2651 2914 
Q 2772 3150 2772 3378 
Q 2772 3750 2511 3984 
Q 2250 4219 1831 4219 
Q 1534 4219 1204 4116 
Q 875 4013 500 3803 
L 500 4441 
Q 881 4594 1212 4672 
Q 1544 4750 1819 4750 
Q 2544 4750 2975 4387 
Q 3406 4025 3406 3419 
Q 3406 3131 3298 2873 
Q 3191 2616 2906 2266 
Q 2828 2175 2409 1742 
Q 1991 1309 1228 531 
z
" id="DejaVuSans-32" transform="scale(0.015625)"/>
       </defs>
       <use xlink:href="#DejaVuSans-2212"/>
       <use x="83.789062" xlink:href="#DejaVuSans-32"/>
       <use x="147.412109" xlink:href="#DejaVuSans-30"/>
      </g>
     </g>
    </g>
    <g id="ytick_4">
     <g id="line2d_11">
      <g>
       <use style="stroke:#000000;stroke-width:0.8;" x="57.6" xlink:href="#m54d86b2515" y="34.630435"/>
      </g>
     </g>
     <g id="text_12">
      <!-- 0 -->
      <g transform="translate(44.2375 38.429654)scale(0.1 -0.1)">
       <use xlink:href="#DejaVuSans-30"/>
      </g>
     </g>
    </g>
    <g id="text_13">
     <!-- [mV] -->
     <g transform="translate(23.415625 96.713927)rotate(-90)scale(0.1 -0.1)">
      <defs>
       <path d="M 3328 2828 
Q 3544 3216 3844 3400 
Q 4144 3584 4550 3584 
Q 5097 3584 5394 3201 
Q 5691 2819 5691 2113 
L 5691 0 
L 5113 0 
L 5113 2094 
Q 5113 2597 4934 2840 
Q 4756 3084 4391 3084 
Q 3944 3084 3684 2787 
Q 3425 2491 3425 1978 
L 3425 0 
L 2847 0 
L 2847 2094 
Q 2847 2600 2669 2842 
Q 2491 3084 2119 3084 
Q 1678 3084 1418 2786 
Q 1159 2488 1159 1978 
L 1159 0 
L 581 0 
L 581 3500 
L 1159 3500 
L 1159 2956 
Q 1356 3278 1631 3431 
Q 1906 3584 2284 3584 
Q 2666 3584 2933 3390 
Q 3200 3197 3328 2828 
z
" id="DejaVuSans-6d" transform="scale(0.015625)"/>
       <path d="M 1831 0 
L 50 4666 
L 709 4666 
L 2188 738 
L 3669 4666 
L 4325 4666 
L 2547 0 
L 1831 0 
z
" id="DejaVuSans-56" transform="scale(0.015625)"/>
      </defs>
      <use xlink:href="#DejaVuSans-5b"/>
      <use x="39.013672" xlink:href="#DejaVuSans-6d"/>
      <use x="136.425781" xlink:href="#DejaVuSans-56"/>
      <use x="204.833984" xlink:href="#DejaVuSans-5d"/>
     </g>
    </g>
   </g>
   <g id="line2d_12">
    <path clip-path="url(#pa4e853795e)" d="M 57.6 132.088109 
L 57.7632 132.104739 
L 57.9264 132.27437 
L 59.7216 132.377478 
L 59.8848 132.131348 
L 60.048 132.114717 
L 60.2112 132.289337 
L 60.5376 132.229467 
L 62.496 132.547109 
L 62.8224 132.552098 
L 63.312 132.65687 
L 63.4752 132.601989 
L 63.6384 132.759978 
L 64.128 132.63525 
L 64.4544 132.764967 
L 64.6176 132.661859 
L 64.7808 132.858098 
L 65.1072 132.764967 
L 65.4336 132.853109 
L 66.2496 132.891359 
L 67.5552 133.240598 
L 67.7184 133.32375 
L 68.0448 133.26388 
L 68.3712 133.30712 
L 68.5344 133.30712 
L 69.024 133.56988 
L 70.0032 133.61312 
L 70.1664 133.76612 
L 70.3296 133.634739 
L 70.4928 133.814348 
L 70.656 133.68463 
L 70.9824 133.814348 
L 71.3088 134.022228 
L 71.6352 134.098728 
L 71.9616 134.017239 
L 72.1248 134.22013 
L 72.288 134.127 
L 72.6144 134.22512 
L 73.5936 134.08875 
L 74.2464 134.313261 
L 74.4096 134.153609 
L 74.736 134.26337 
L 74.8992 134.198511 
L 75.0624 134.344859 
L 75.552 134.289978 
L 75.7152 134.437989 
L 76.2048 134.33488 
L 76.5312 134.47125 
L 76.8576 134.344859 
L 77.184 134.521141 
L 77.3472 134.361489 
L 77.8368 134.629239 
L 78.1632 134.705739 
L 78.4896 134.782239 
L 78.816 134.94688 
L 78.9792 134.880359 
L 79.3056 135.02837 
L 79.4688 135.13813 
L 79.632 135.056641 
L 80.2848 135.355989 
L 80.6112 135.317739 
L 80.9376 135.575511 
L 81.1008 135.515641 
L 81.264 135.63538 
L 81.5904 135.56387 
L 81.7536 135.63538 
L 82.08 135.547239 
L 82.4064 135.60212 
L 82.7328 135.455772 
L 82.896 135.52063 
L 83.0592 135.745141 
L 83.3856 135.657 
L 83.8752 135.77175 
L 84.2016 135.969652 
L 85.344 136.02287 
L 85.6704 135.838272 
L 87.1392 136.051141 
L 87.3024 135.919761 
L 87.6288 136.09937 
L 87.792 135.98462 
L 88.7712 136.1925 
L 89.5872 136.340511 
L 89.9136 136.466902 
L 90.24 136.373772 
L 90.8928 136.488522 
L 91.3824 136.560033 
L 91.7088 136.646511 
L 91.872 136.756272 
L 92.1984 136.718022 
L 92.3616 136.84275 
L 92.688 136.739641 
L 92.8512 136.78288 
L 93.1776 137.12713 
L 93.504 136.964152 
L 93.6672 137.133783 
L 93.9936 137.122141 
L 94.8096 137.346652 
L 95.136 137.193652 
L 95.4624 137.303413 
L 95.6256 137.50963 
L 95.952 137.456413 
L 96.4416 137.389891 
L 96.768 137.609413 
L 96.9312 137.609413 
L 97.0944 137.456413 
L 97.7472 137.784033 
L 98.7264 137.712522 
L 99.5424 137.626043 
L 99.7056 137.576152 
L 100.032 137.695891 
L 100.1952 137.466391 
L 100.3584 137.564511 
L 100.848 137.478033 
L 101.1744 137.685913 
L 101.5008 137.631033 
L 101.8272 137.652652 
L 101.9904 137.745783 
L 102.1536 137.609413 
L 102.3168 137.745783 
L 102.8064 137.755761 
L 103.6224 137.827272 
L 103.7856 137.729152 
L 103.9488 137.898783 
L 105.0912 137.865522 
L 105.2544 137.937033 
L 105.744 137.587793 
L 106.0704 137.597772 
L 106.3968 137.789022 
L 106.56 137.669283 
L 106.7232 137.810641 
L 107.2128 137.724163 
L 107.8656 137.717511 
L 108.192 137.767402 
L 108.8448 137.657641 
L 109.008 137.750772 
L 109.1712 137.674272 
L 109.6608 137.838913 
L 111.7824 137.669283 
L 111.9456 137.554533 
L 112.1088 137.602761 
L 112.272 137.516283 
L 112.4352 137.702543 
L 112.5984 137.571163 
L 112.7616 137.664293 
L 112.9248 137.542891 
L 113.088 137.631033 
L 113.2512 137.532913 
L 113.4144 137.619391 
L 113.5776 137.43313 
L 113.904 137.674272 
L 114.0672 137.702543 
L 114.2304 137.614402 
L 114.3936 137.717511 
L 114.72 137.619391 
L 114.8832 137.679261 
L 115.0464 137.602761 
L 115.2096 137.664293 
L 115.3728 137.602761 
L 115.6992 137.772391 
L 115.8624 137.674272 
L 116.0256 137.762413 
L 116.1888 137.685913 
L 116.352 137.767402 
L 116.8416 137.664293 
L 117.0048 137.838913 
L 117.4944 137.592783 
L 117.6576 137.745783 
L 117.984 137.745783 
L 118.4736 137.996902 
L 118.6368 137.838913 
L 119.1264 137.942022 
L 119.4528 138.051783 
L 119.616 138.123293 
L 120.2688 137.822283 
L 120.432 137.953663 
L 120.7584 137.877163 
L 120.9216 137.963641 
L 121.0848 137.822283 
L 121.9008 137.877163 
L 122.2272 137.767402 
L 122.5536 137.908761 
L 123.3696 137.925391 
L 123.5328 138.030163 
L 123.8592 137.920402 
L 124.0224 138.061761 
L 124.1856 138.046793 
L 124.512 138.209772 
L 125.0016 137.915413 
L 125.6544 138.116641 
L 125.8176 137.953663 
L 125.9808 138.013533 
L 126.3072 137.980272 
L 126.4704 138.035152 
L 126.6336 138.286272 
L 126.7968 138.061761 
L 126.96 138.183163 
L 127.4496 138.023511 
L 127.6128 138.281283 
L 129.2448 137.996902 
L 129.408 138.216424 
L 129.7344 138.204783 
L 130.224 138.188152 
L 130.5504 138.243033 
L 131.3664 138.292924 
L 131.5296 138.484174 
L 131.6928 138.369424 
L 131.856 138.515772 
L 132.0192 138.417652 
L 132.3456 138.582293 
L 132.8352 138.728641 
L 134.4672 138.652141 
L 134.6304 138.828424 
L 134.7936 138.816783 
L 134.9568 138.926543 
L 135.12 138.728641 
L 135.4464 138.914902 
L 135.936 138.642163 
L 136.0992 138.850043 
L 138.0576 138.445924 
L 138.2208 138.663783 
L 139.0368 138.357783 
L 139.6896 138.412663 
L 140.016 138.587283 
L 140.3424 138.544043 
L 140.5056 138.429293 
L 140.6688 138.554022 
L 141.4848 138.439272 
L 141.648 138.281283 
L 142.3008 138.417652 
L 142.7904 138.417652 
L 142.9536 138.592272 
L 143.1168 138.455902 
L 143.4432 138.537391 
L 143.6064 138.467543 
L 143.7696 138.570652 
L 143.9328 138.417652 
L 144.4224 138.505793 
L 144.5856 138.625533 
L 144.7488 138.537391 
L 145.2384 138.675424 
L 145.5648 138.549033 
L 145.728 138.505793 
L 146.0544 138.582293 
L 146.544 138.740283 
L 146.7072 138.647152 
L 147.0336 138.690391 
L 147.36 138.592272 
L 147.5232 138.845054 
L 148.3392 138.707022 
L 149.6448 138.778533 
L 149.9712 138.718663 
L 150.1344 138.838402 
L 150.2976 138.728641 
L 150.624 138.800152 
L 150.9504 138.816783 
L 151.6032 138.707022 
L 151.7664 138.898272 
L 151.9296 138.773543 
L 153.072 138.888293 
L 153.2352 138.766891 
L 153.3984 138.860022 
L 154.0512 138.707022 
L 154.3776 138.828424 
L 154.5408 138.728641 
L 154.704 138.811793 
L 154.8672 138.728641 
L 155.1936 138.800152 
L 156.0096 138.805141 
L 156.336 138.668772 
L 156.4992 138.893283 
L 156.8256 138.778533 
L 157.152 138.936522 
L 157.3152 138.876652 
L 157.6416 138.953152 
L 157.968 138.866674 
L 158.2944 138.761902 
L 158.6208 138.702033 
L 159.7632 138.231391 
L 160.0896 138.429293 
L 160.2528 138.286272 
L 160.5792 138.369424 
L 161.232 138.040141 
L 161.3952 138.204783 
L 161.7216 138.111652 
L 161.8848 138.231391 
L 162.2112 138.068413 
L 162.3744 138.204783 
L 163.3536 138.204783 
L 163.5168 138.248022 
L 163.68 138.123293 
L 164.0064 138.209772 
L 164.3328 138.106663 
L 164.8224 137.980272 
L 165.1488 138.068413 
L 165.9648 138.001891 
L 166.2912 138.085043 
L 166.4544 138.001891 
L 166.6176 138.138261 
L 167.1072 138.068413 
L 168.576 138.216424 
L 168.7392 137.953663 
L 168.9024 138.183163 
L 169.392 138.243033 
L 169.5552 138.269641 
L 170.0448 138.035152 
L 170.3712 138.035152 
L 170.6976 137.996902 
L 170.8608 138.001891 
L 171.024 138.183163 
L 171.3504 138.046793 
L 171.6768 138.111652 
L 171.84 137.963641 
L 172.0032 138.030163 
L 172.3296 137.937033 
L 172.656 138.035152 
L 172.8192 138.226402 
L 173.3088 138.013533 
L 174.288 137.980272 
L 174.4512 137.827272 
L 174.6144 138.035152 
L 175.2672 137.970293 
L 175.7568 137.805652 
L 176.2464 137.685913 
L 176.5728 137.740793 
L 176.736 137.647663 
L 177.3888 137.800663 
L 177.7152 137.685913 
L 179.3472 137.690902 
L 179.5104 137.619391 
L 179.6736 137.740793 
L 179.8368 137.641011 
L 180.1632 137.870511 
L 180.4896 137.832261 
L 180.6528 137.707533 
L 180.816 137.882152 
L 180.9792 137.882152 
L 181.1424 137.707533 
L 182.2848 137.674272 
L 182.6112 137.554533 
L 182.9376 137.631033 
L 183.4272 137.494663 
L 183.7536 137.626043 
L 183.9168 137.564511 
L 184.08 137.368272 
L 184.896 137.379913 
L 185.0592 137.231902 
L 185.3856 137.423152 
L 186.2016 137.466391 
L 186.3648 137.516283 
L 186.528 137.418163 
L 186.8544 137.526261 
L 187.344 137.379913 
L 187.9968 137.39488 
L 188.16 137.258511 
L 188.4864 137.31838 
L 188.6496 137.236891 
L 188.8128 137.39488 
L 189.1392 137.198641 
L 192.4032 137.494663 
L 192.7296 137.363283 
L 193.056 137.516283 
L 193.5456 137.602761 
L 193.7088 137.669283 
L 193.872 137.893793 
L 194.0352 137.755761 
L 194.3616 137.822283 
L 194.5248 137.843902 
L 194.8512 137.750772 
L 195.504 137.800663 
L 195.6672 137.903772 
L 195.9936 137.772391 
L 196.4832 138.046793 
L 196.9728 137.893793 
L 197.4624 138.116641 
L 197.6256 137.996902 
L 197.952 138.123293 
L 198.4416 137.985261 
L 198.6048 138.154891 
L 199.4208 138.138261 
L 199.7472 138.231391 
L 199.9104 138.123293 
L 200.2368 138.204783 
L 200.4 138.111652 
L 200.7264 138.176511 
L 201.3792 138.374413 
L 201.7056 138.149902 
L 202.5216 138.068413 
L 202.848 138.254674 
L 203.0112 138.302902 
L 203.1744 138.133272 
L 203.3376 138.193141 
L 203.664 138.090033 
L 203.9904 138.183163 
L 204.1536 138.046793 
L 204.48 138.133272 
L 204.9696 137.877163 
L 205.1328 138.030163 
L 205.6224 137.817293 
L 205.9488 137.734141 
L 206.928 137.647663 
L 207.2544 137.456413 
L 207.4176 137.564511 
L 207.744 137.439783 
L 207.9072 137.308402 
L 208.0704 137.43313 
L 208.56 137.275141 
L 208.8864 137.193652 
L 209.2128 137.083891 
L 210.3552 136.51513 
L 210.6816 136.330533 
L 211.3344 136.084402 
L 211.824 135.728511 
L 212.8032 135.269511 
L 212.9664 135.088239 
L 213.1296 135.08325 
L 213.7824 134.586 
L 214.1088 134.586 
L 214.7616 134.038859 
L 214.9248 134.02888 
L 215.2512 133.72787 
L 215.4144 133.56988 
L 215.5776 133.56988 
L 215.7408 133.278848 
L 216.2304 133.185717 
L 216.3936 132.879717 
L 216.72 132.743348 
L 217.0464 132.164609 
L 217.3728 132.147978 
L 218.0256 131.552609 
L 218.352 131.120217 
L 219.0048 130.594696 
L 219.3312 130.415087 
L 219.6576 130.173946 
L 221.1264 129.031435 
L 221.2896 128.703815 
L 221.4528 128.655587 
L 221.616 128.742065 
L 221.7792 128.349587 
L 221.9424 128.273087 
L 222.2688 127.912207 
L 222.432 127.790804 
L 222.7584 127.419946 
L 222.9216 127.381696 
L 223.0848 127.217054 
L 223.4112 126.801293 
L 223.9008 126.463696 
L 224.064 126.112793 
L 224.3904 125.933185 
L 225.5328 124.463054 
L 225.696 124.451413 
L 226.1856 123.648163 
L 227.6544 121.396402 
L 227.9808 120.811011 
L 228.144 120.696261 
L 228.4704 120.177391 
L 229.2864 118.836978 
L 229.6128 118.241609 
L 230.1024 117.263739 
L 230.7552 114.687685 
L 231.5712 109.708533 
L 231.8976 108.938543 
L 232.224 108.893641 
L 232.3872 108.986772 
L 232.7136 108.960163 
L 233.04 109.309402 
L 233.2032 109.314391 
L 233.5296 109.484022 
L 233.6928 109.538902 
L 233.856 109.818293 
L 234.1824 109.938033 
L 234.672 110.358783 
L 234.8352 110.272304 
L 235.9776 111.331663 
L 236.304 111.331663 
L 236.7936 111.644315 
L 237.4464 112.091674 
L 237.7728 112.218065 
L 237.936 112.223054 
L 238.2624 112.419293 
L 238.4256 112.287913 
L 238.5888 112.337804 
L 238.9152 112.239685 
L 239.2416 112.228043 
L 239.4048 112.134913 
L 239.568 112.266293 
L 239.8944 112.179815 
L 240.0576 112.261304 
L 241.0368 111.917054 
L 241.5264 111.725804 
L 241.8528 111.665935 
L 244.1376 109.811641 
L 244.9536 108.790533 
L 245.28 107.375283 
L 246.096 103.219337 
L 246.4224 102.613989 
L 246.5856 102.416087 
L 246.7488 102.618978 
L 247.0752 102.683837 
L 247.4016 102.908348 
L 247.8912 103.477109 
L 248.7072 104.285348 
L 248.8704 104.296989 
L 249.0336 104.42338 
L 249.1968 104.71275 
L 249.36 104.69612 
L 249.6864 104.88238 
L 250.0128 104.96387 
L 250.176 105.061989 
L 250.5024 105.38462 
L 250.992 105.57587 
L 251.1552 105.61412 
L 251.3184 105.83863 
L 251.9712 105.788739 
L 252.9504 106.07312 
L 253.1136 106.084761 
L 253.44 105.8985 
L 254.0928 105.886859 
L 254.7456 105.597489 
L 256.3776 103.941098 
L 256.704 103.209359 
L 257.8464 97.852696 
L 258.1728 97.704685 
L 258.336 97.907576 
L 258.4992 97.764554 
L 258.6624 97.781185 
L 259.152 98.388196 
L 260.784 99.267946 
L 261.1104 99.196435 
L 261.4368 99.349435 
L 261.7632 99.524054 
L 261.9264 99.602217 
L 262.0896 99.485804 
L 262.2528 99.628826 
L 262.416 99.573946 
L 262.9056 99.951457 
L 263.3952 100.152685 
L 263.8848 100.405467 
L 264.2112 100.585076 
L 264.3744 100.766348 
L 264.5376 100.721446 
L 264.864 100.826217 
L 265.3536 100.809587 
L 265.8432 100.776326 
L 266.0064 100.673217 
L 266.1696 100.721446 
L 266.6592 100.486957 
L 266.9856 100.367217 
L 267.1488 100.269098 
L 267.312 100.037935 
L 267.4752 99.999685 
L 267.9648 99.497446 
L 269.1072 95.156902 
L 269.2704 95.020533 
L 269.4336 95.118652 
L 269.5968 95.080402 
L 270.9024 97.021174 
L 271.2288 97.485163 
L 271.8816 98.142065 
L 272.5344 98.715815 
L 272.8608 98.720804 
L 273.024 98.672576 
L 273.1872 98.780674 
L 273.3504 98.727457 
L 273.5136 98.830565 
L 274.4928 98.557826 
L 274.8192 98.589424 
L 275.1456 98.206924 
L 275.472 97.929196 
L 275.9616 97.584946 
L 276.1248 97.255663 
L 276.288 97.262315 
L 276.7776 96.474033 
L 277.104 95.414674 
L 277.92 91.583022 
L 278.2464 91.107391 
L 278.4096 91.084109 
L 278.736 91.253739 
L 279.0624 91.736022 
L 279.3888 92.06863 
L 279.8784 92.87188 
L 280.2048 93.337533 
L 280.5312 93.681783 
L 280.8576 94.102533 
L 281.5104 94.327043 
L 281.6736 94.561533 
L 281.8368 94.566522 
L 282.1632 94.769413 
L 282.3264 94.764424 
L 282.6528 94.944033 
L 283.1424 95.250033 
L 285.1008 94.786043 
L 285.264 94.413522 
L 285.4272 94.370283 
L 285.7536 93.927913 
L 286.08 93.019891 
L 287.0592 88.853967 
L 287.5488 88.755848 
L 287.712 88.789109 
L 287.8752 89.01362 
L 288.0384 88.958739 
L 288.8544 90.072978 
L 289.5072 90.54362 
L 290.4864 90.9045 
L 290.6496 90.701609 
L 290.8128 90.784761 
L 291.3024 90.54362 
L 291.4656 90.69163 
L 291.792 90.38563 
L 292.608 90.013109 
L 293.0976 89.39113 
L 293.424 88.980359 
L 293.9136 87.811239 
L 294.7296 84.814435 
L 294.8928 84.503446 
L 295.2192 84.503446 
L 295.872 85.043935 
L 296.688 86.876609 
L 297.0144 87.235826 
L 298.8096 89.111739 
L 299.4624 90.034728 
L 301.584 92.637391 
L 301.9104 93.123 
L 303.7056 94.726174 
L 304.032 94.949022 
L 304.1952 94.829283 
L 304.5216 94.910772 
L 304.6848 95.080402 
L 305.0112 95.025522 
L 305.1744 95.146924 
L 305.5008 95.037163 
L 305.8272 94.671293 
L 306.3168 94.303761 
L 306.6432 93.763272 
L 307.6224 90.34738 
L 307.9488 90.15613 
L 308.2752 90.440511 
L 308.6016 91.01925 
L 308.7648 91.069141 
L 310.8864 94.059293 
L 311.376 94.255533 
L 311.5392 94.167391 
L 312.0288 94.588141 
L 312.192 94.697902 
L 312.3552 94.511641 
L 312.6816 94.796022 
L 313.008 94.802674 
L 313.1712 94.757772 
L 313.6608 94.922413 
L 313.9872 94.599783 
L 314.3136 94.573174 
L 314.9664 94.080913 
L 315.456 93.512152 
L 315.9456 93.031533 
L 316.4352 91.702761 
L 317.088 89.056859 
L 317.4144 88.488098 
L 317.7408 88.483109 
L 318.0672 88.87725 
L 318.2304 88.963728 
L 321.0048 92.48938 
L 321.168 92.544261 
L 321.8208 93.375783 
L 322.1472 93.201163 
L 322.4736 93.315913 
L 323.1264 93.746641 
L 323.616 94.150761 
L 323.7792 94.179033 
L 324.5952 93.725022 
L 324.7584 93.720033 
L 325.0848 93.500511 
L 325.5744 93.375783 
L 325.9008 92.840283 
L 326.2272 92.07362 
L 327.0432 88.504728 
L 327.5328 87.766337 
L 327.8592 87.887739 
L 328.512 88.542978 
L 329.1648 88.805739 
L 329.4912 89.05187 
L 329.8176 89.145 
L 329.9808 89.16662 
L 330.144 89.061848 
L 330.3072 89.231478 
L 330.6336 89.01362 
L 331.4496 88.805739 
L 332.1024 88.301837 
L 333.0816 87.252457 
L 333.408 86.919848 
L 333.8976 85.443065 
L 334.7136 82.338163 
L 335.04 82.027174 
L 335.2032 82.170196 
L 335.3664 82.082054 
L 336.9984 84.711326 
L 337.488 85.519565 
L 337.8144 86.061717 
L 338.4672 87.455348 
L 339.2832 88.985348 
L 341.7312 92.48938 
L 342.5472 93.096391 
L 343.5264 93.402391 
L 343.6896 93.194511 
L 344.016 93.500511 
L 344.3424 93.52213 
L 344.5056 93.720033 
L 344.6688 93.648522 
L 344.9952 93.878022 
L 345.3216 93.681783 
L 345.8112 93.720033 
L 346.1376 93.648522 
L 346.7904 92.48938 
L 347.4432 90.38563 
L 347.7696 89.953239 
L 347.9328 89.92663 
L 348.2592 90.111228 
L 348.912 91.282011 
L 349.0752 91.40175 
L 350.0544 93.118011 
L 350.3808 93.686772 
L 352.3392 94.726174 
L 353.3184 94.879174 
L 353.4816 94.802674 
L 353.6448 94.879174 
L 353.808 94.731163 
L 353.9712 94.840924 
L 354.2976 94.676283 
L 354.4608 94.496674 
L 354.624 94.588141 
L 355.1136 94.200652 
L 355.2768 94.272163 
L 355.44 94.085902 
L 355.7664 94.064283 
L 357.072 92.730522 
L 357.5616 91.222141 
L 358.2144 88.827359 
L 358.704 88.509717 
L 359.0304 88.882239 
L 359.52 89.761989 
L 359.6832 89.860109 
L 361.152 92.348022 
L 361.4784 92.94838 
L 361.8048 93.538761 
L 362.784 94.425163 
L 363.1104 94.872522 
L 363.2736 94.910772 
L 363.6 94.786043 
L 364.2528 95.113663 
L 364.416 94.982283 
L 364.5792 95.075413 
L 365.0688 94.638033 
L 365.3952 94.556543 
L 366.048 94.135793 
L 367.3536 91.636239 
L 367.68 90.488739 
L 368.3328 87.558457 
L 368.8224 86.444217 
L 368.9856 86.530696 
L 369.1488 86.410957 
L 369.6384 86.530696 
L 371.2704 88.100609 
L 371.76 88.59287 
L 372.0864 88.72425 
L 372.2496 88.734228 
L 372.7392 89.095109 
L 372.9024 89.100098 
L 373.0656 89.31962 
L 373.5552 89.12837 
L 373.7184 88.980359 
L 373.8816 89.073489 
L 374.208 88.674359 
L 374.3712 88.750859 
L 374.8608 88.373348 
L 375.024 88.389978 
L 375.5136 87.811239 
L 376.0032 87.390489 
L 376.3296 87.274076 
L 376.9824 86.011826 
L 377.7984 83.098174 
L 377.9616 82.758913 
L 378.1248 82.682413 
L 378.4512 82.863685 
L 378.6144 83.000054 
L 378.9408 83.525576 
L 379.2672 83.929696 
L 380.0832 85.547837 
L 381.0624 87.082826 
L 381.552 87.876098 
L 382.5312 89.28137 
L 382.6944 89.324609 
L 382.8576 89.597348 
L 383.0208 89.647239 
L 384 90.718239 
L 384.3264 90.937761 
L 384.816 91.287 
L 384.9792 91.291989 
L 385.3056 91.49987 
L 385.7952 91.506522 
L 386.2848 91.49987 
L 386.7744 91.430022 
L 386.9376 91.49987 
L 387.7536 91.2105 
L 387.9168 90.985989 
L 388.08 90.95938 
L 388.896 90.058011 
L 389.2224 89.231478 
L 389.8752 86.700326 
L 390.3648 85.990207 
L 390.6912 85.918696 
L 391.0176 86.279576 
L 391.8336 87.575087 
L 391.9968 87.689837 
L 392.16 88.148837 
L 392.3232 88.215359 
L 393.9552 90.19937 
L 394.1184 90.259239 
L 394.9344 91.0575 
L 395.2608 91.205511 
L 395.424 91.544772 
L 395.7504 91.473261 
L 396.24 91.719391 
L 396.4032 91.60963 
L 396.5664 91.80587 
L 396.7296 91.78425 
L 396.8928 91.91563 
L 397.056 91.774272 
L 397.2192 91.927272 
L 398.3616 91.95887 
L 398.688 91.659522 
L 398.8512 91.642891 
L 399.1776 91.736022 
L 399.504 91.521489 
L 399.8304 91.298641 
L 399.9936 91.24875 
L 400.32 91.007609 
L 400.6464 90.73487 
L 401.4624 89.58238 
L 402.4416 86.236337 
L 402.6048 85.863815 
L 402.768 85.968587 
L 402.9312 85.908717 
L 403.2576 86.126576 
L 405.216 88.526348 
L 406.3584 89.188239 
L 407.0112 89.451 
L 407.1744 89.630609 
L 407.5008 89.66387 
L 407.8272 89.712098 
L 408.1536 89.728728 
L 408.6432 89.826848 
L 408.9696 90.013109 
L 409.6224 90.19438 
L 410.112 90.15613 
L 410.4384 90.302478 
L 410.7648 90.15613 
L 411.0912 90.08462 
L 411.2544 90.1395 
L 411.9072 89.821859 
L 412.2336 89.406098 
L 412.56 88.97537 
L 414.0288 84.209087 
L 414.192 84.016174 
L 414.6816 84.061076 
L 415.1712 84.448565 
L 415.824 85.634315 
L 415.9872 85.650946 
L 416.4768 86.482467 
L 418.5984 89.100098 
L 418.7616 89.159967 
L 419.2512 89.74037 
L 419.904 90.10125 
L 420.2304 90.65837 
L 420.3936 90.71325 
L 420.72 91.160609 
L 421.0464 91.549761 
L 421.2096 91.597989 
L 421.3728 91.827489 
L 422.0256 91.867402 
L 422.1888 92.047011 
L 423.0048 92.15012 
L 423.168 92.161761 
L 423.3312 91.987141 
L 423.6576 92.052 
L 423.8208 91.87738 
L 423.984 92.020402 
L 424.6368 91.697772 
L 424.8 91.40175 
L 425.2896 91.198859 
L 426.1056 89.85512 
L 426.7584 87.460337 
L 427.248 86.613848 
L 427.5744 86.788467 
L 429.8592 89.460978 
L 430.0224 89.51087 
L 430.3488 90.04637 
L 430.512 90.04637 
L 430.8384 90.402261 
L 431.1648 90.57688 
L 431.328 90.828 
L 431.4912 90.816359 
L 431.9808 91.045859 
L 432.144 91.090761 
L 432.4704 90.954391 
L 432.7968 91.062489 
L 433.1232 90.954391 
L 433.2864 91.01925 
L 433.6128 90.801391 
L 435.0816 88.882239 
L 436.0608 86.613848 
L 436.8768 83.049946 
L 437.2032 82.354793 
L 437.6928 82.065424 
L 438.1824 81.929054 
L 438.672 82.529413 
L 438.8352 82.507793 
L 439.6512 83.219576 
L 439.9776 83.339315 
L 440.9568 83.661946 
L 441.12 83.508946 
L 441.4464 83.809957 
L 441.936 83.934685 
L 443.0784 84.498457 
L 443.568 84.809446 
L 443.7312 84.771196 
L 444.384 85.043935 
L 444.5472 85.028967 
L 445.0368 85.689196 
L 445.3632 85.946967 
L 445.8528 86.504087 
L 446.016 86.454196 
L 446.3424 86.750217 
L 446.5056 86.706978 
L 447.648 87.175957 
L 447.9744 87.290707 
L 448.7904 86.745228 
L 449.1168 86.126576 
L 449.7696 84.209087 
L 450.096 83.874815 
L 450.4224 84.022826 
L 452.3808 86.903217 
L 452.7072 87.565109 
L 452.8704 87.634957 
L 453.5232 88.335098 
L 453.6864 88.488098 
L 454.0128 89.03025 
L 454.992 89.728728 
L 455.6448 89.881728 
L 456.1344 90.15613 
L 456.2976 90.013109 
L 456.4608 90.072978 
L 457.2768 89.745359 
L 457.44 89.728728 
L 458.0928 89.040228 
L 458.7456 88.291859 
L 459.3984 86.793457 
L 460.3776 83.241196 
L 460.704 82.858696 
L 461.0304 82.951826 
L 461.52 83.088196 
L 462.336 83.748424 
L 462.8256 84.202435 
L 463.3152 84.377054 
L 463.6416 84.749576 
L 464.2944 84.787826 
L 464.4576 84.673076 
L 464.6208 84.847696 
L 465.1104 84.618196 
L 465.4368 84.503446 
L 465.7632 84.214076 
L 466.2528 83.972935 
L 466.5792 83.678576 
L 467.3952 83.076554 
L 467.8848 82.268315 
L 468.2112 81.682924 
L 468.7008 80.212793 
L 469.5168 78.004272 
L 470.0064 77.949391 
L 470.496 78.659511 
L 472.7808 81.218935 
L 473.1072 81.317054 
L 473.4336 81.589793 
L 474.2496 82.677424 
L 474.7392 82.983424 
L 474.9024 82.945174 
L 475.2288 83.181326 
L 476.0448 83.262815 
L 476.208 83.098174 
L 476.5344 83.219576 
L 477.024 82.990076 
L 477.6768 82.787185 
L 477.84 82.579304 
L 478.0032 82.557685 
L 478.3296 82.000565 
L 478.656 81.223924 
L 479.3088 79.348011 
L 479.7984 78.988793 
L 479.9616 78.993783 
L 480.1248 79.195011 
L 480.288 79.206652 
L 480.9408 80.119663 
L 481.2672 80.676783 
L 481.4304 80.803174 
L 481.7568 81.257185 
L 481.92 81.169043 
L 482.0832 81.365283 
L 482.2464 81.764413 
L 482.4096 81.754435 
L 482.736 82.170196 
L 483.7152 83.212924 
L 483.8784 83.475685 
L 484.0416 83.454065 
L 484.5312 83.721815 
L 484.8576 83.924707 
L 485.3472 84.312196 
L 486.3264 84.623185 
L 486.9792 84.503446 
L 487.3056 84.558326 
L 488.6112 83.755076 
L 489.1008 82.452913 
L 489.7536 80.337522 
L 489.9168 80.119663 
L 490.08 80.114674 
L 490.2432 79.955022 
L 490.5696 80.272663 
L 491.8752 81.726163 
L 492.0384 81.857543 
L 492.2016 81.835924 
L 492.528 82.170196 
L 493.1808 82.497815 
L 493.5072 82.476196 
L 493.8336 82.682413 
L 494.4864 82.847054 
L 494.976 82.792174 
L 495.1392 82.727315 
L 495.3024 82.858696 
L 495.6288 82.775543 
L 495.9552 82.847054 
L 497.2608 82.404685 
L 498.4032 81.065935 
L 498.7296 79.923424 
L 499.3824 78.14563 
L 499.5456 78.004272 
L 499.872 78.09075 
L 500.1984 78.288652 
L 500.5248 78.654522 
L 502.9728 82.082054 
L 503.4624 82.524424 
L 503.6256 82.514446 
L 504.4416 83.005043 
L 505.2576 83.196293 
L 505.7472 82.945174 
L 505.9104 82.945174 
L 506.0736 82.765565 
L 506.7264 82.792174 
L 506.8896 82.672435 
L 507.0528 82.694054 
L 507.3792 82.316543 
L 507.5424 82.371424 
L 508.3584 81.381913 
L 508.5216 81.283793 
L 509.0112 79.758783 
L 509.3376 78.692772 
L 509.8272 78.2055 
L 509.9904 78.124011 
L 510.6432 79.096891 
L 510.8064 79.256543 
L 512.928 83.695207 
L 513.0912 83.824924 
L 513.4176 84.453554 
L 513.744 84.771196 
L 514.0704 85.258467 
L 514.56 85.902065 
L 514.8864 86.372707 
L 515.0496 86.618837 
L 515.376 86.723609 
L 515.5392 87.061207 
L 515.7024 87.022957 
L 516.3552 87.383837 
L 517.3344 87.505239 
L 518.64 86.427587 
L 519.6192 83.929696 
L 520.272 81.338674 
L 520.5984 80.731663 
L 520.9248 80.399054 
L 521.088 80.392402 
L 521.2512 80.528772 
L 521.4144 80.507152 
L 522.2304 81.080902 
L 522.5568 81.486685 
L 523.0464 81.824283 
L 523.2096 81.764413 
L 523.536 82.333174 
L 524.6784 82.185163 
L 525.0048 82.053783 
L 525.4944 81.721174 
L 525.6576 81.594783 
L 525.8208 81.649663 
L 526.1472 81.333685 
L 527.2896 80.414022 
L 527.616 79.906793 
L 527.9424 79.677293 
L 528.432 78.551413 
L 529.4112 75.58787 
L 529.7376 75.255261 
L 529.9008 75.270228 
L 532.1856 78.561391 
L 532.8384 79.125163 
L 533.1648 79.436152 
L 534.144 80.442293 
L 534.3072 80.452272 
L 534.4704 80.621902 
L 534.6336 80.600283 
L 535.2864 81.300424 
L 535.6128 81.343663 
L 536.1024 81.518283 
L 536.2656 81.420163 
L 536.7552 81.732815 
L 537.2448 82.087043 
L 537.5712 82.311554 
L 538.0608 82.672435 
L 539.2032 83.093185 
L 539.856 82.906924 
L 540.1824 82.328185 
L 540.8352 80.710043 
L 541.3248 80.261022 
L 541.6512 80.590304 
L 542.6304 82.141924 
L 543.7728 84.355435 
L 544.5888 85.433087 
L 544.752 85.388185 
L 545.2416 85.892087 
L 545.7312 86.241326 
L 547.0368 87.149348 
L 547.0368 87.149348 
" style="fill:none;stroke:#ff0000;stroke-linecap:square;stroke-width:1.5;"/>
   </g>
   <g id="line2d_13">
    <path clip-path="url(#pa4e853795e)" d="M 57.4368 132.011609 
L 64.128 132.114717 
L 64.4544 132.219489 
L 65.1072 132.35087 
L 65.76 132.448989 
L 66.9024 132.552098 
L 67.392 132.601989 
L 68.6976 132.661859 
L 69.024 132.75 
L 70.8192 133.01775 
L 71.3088 133.159109 
L 72.1248 133.26388 
L 73.7568 133.584848 
L 75.0624 133.814348 
L 75.3888 134.017239 
L 78 134.10538 
L 78.6528 134.198511 
L 79.632 134.289978 
L 80.1216 134.33488 
L 81.4272 134.361489 
L 81.9168 134.629239 
L 82.2432 134.705739 
L 82.5696 134.782239 
L 82.896 134.880359 
L 83.0592 134.880359 
L 83.3856 135.02837 
L 84.6912 135.317739 
L 85.0176 135.455772 
L 86.976 135.52063 
L 87.3024 135.657 
L 87.792 135.766761 
L 91.872 135.98462 
L 92.1984 136.007902 
L 92.3616 136.187511 
L 93.504 136.302261 
L 94.1568 136.373772 
L 95.2992 136.466902 
L 95.952 136.718022 
L 96.9312 136.78288 
L 97.0944 136.964152 
L 97.584 136.964152 
L 97.9104 137.105511 
L 102.48 137.466391 
L 117.8208 137.576152 
L 118.9632 137.592783 
L 121.5744 137.592783 
L 121.7376 137.745783 
L 126.3072 137.767402 
L 126.6336 137.903772 
L 133.3248 137.996902 
L 133.488 138.161543 
L 143.4432 138.259663 
L 144.4224 138.281283 
L 146.2176 138.357783 
L 146.7072 138.417652 
L 149.808 138.505793 
L 150.1344 138.582293 
L 153.2352 138.668772 
L 155.1936 138.608902 
L 155.8464 138.231391 
L 157.152 138.193141 
L 157.3152 138.040141 
L 161.3952 137.980272 
L 161.7216 137.903772 
L 171.84 137.805652 
L 172.3296 137.685913 
L 178.5312 137.592783 
L 179.0208 137.554533 
L 180 137.494663 
L 180.3264 137.368272 
L 180.9792 137.368272 
L 181.3056 137.231902 
L 195.0144 137.291772 
L 195.3408 137.363283 
L 196.9728 137.461402 
L 198.1152 137.740793 
L 200.0736 137.772391 
L 200.4 137.893793 
L 201.7056 137.810641 
L 202.1952 137.729152 
L 203.0112 137.647663 
L 203.5008 137.456413 
L 203.8272 137.439783 
L 204.1536 137.308402 
L 204.8064 137.231902 
L 205.6224 136.942533 
L 206.2752 136.701391 
L 206.6016 136.390402 
L 207.5808 135.936391 
L 208.56 135.38925 
L 209.5392 134.865391 
L 209.8656 134.586 
L 210.192 134.586 
L 210.8448 134.038859 
L 211.008 134.02888 
L 211.3344 133.72787 
L 211.4976 133.56988 
L 211.6608 133.56988 
L 211.824 133.278848 
L 212.3136 133.142478 
L 212.4768 132.879717 
L 212.8032 132.743348 
L 213.1296 132.164609 
L 213.456 132.147978 
L 214.1088 131.552609 
L 214.4352 131.120217 
L 215.088 130.594696 
L 215.4144 130.415087 
L 215.7408 130.173946 
L 217.2096 129.031435 
L 217.3728 128.703815 
L 217.6992 128.655587 
L 218.0256 128.273087 
L 218.352 127.912207 
L 218.5152 127.790804 
L 218.8416 127.419946 
L 219.0048 127.381696 
L 219.168 127.217054 
L 219.4944 126.801293 
L 219.984 126.463696 
L 220.1472 126.112793 
L 220.4736 125.933185 
L 221.616 124.463054 
L 221.7792 124.451413 
L 222.2688 123.648163 
L 223.7376 121.396402 
L 224.064 120.811011 
L 224.2272 120.696261 
L 224.5536 120.177391 
L 225.3696 118.836978 
L 225.696 118.241609 
L 226.1856 117.263739 
L 226.8384 114.687685 
L 227.6544 109.708533 
L 227.9808 108.938543 
L 228.3072 108.862043 
L 236.7936 108.960163 
L 237.12 109.309402 
L 237.2832 109.314391 
L 237.6096 109.484022 
L 237.7728 109.538902 
L 237.936 109.818293 
L 238.2624 109.938033 
L 238.752 110.272304 
L 238.9152 110.272304 
L 239.2416 110.571652 
L 239.568 110.387054 
L 240.0576 109.966304 
L 240.5472 109.414174 
L 240.8736 108.915261 
L 241.0368 108.790533 
L 241.3632 107.375283 
L 242.1792 103.219337 
L 242.5056 102.613989 
L 242.6688 102.416087 
L 250.6656 102.416087 
L 250.8288 102.597359 
L 251.1552 102.683837 
L 251.4816 102.908348 
L 251.9712 103.477109 
L 252.4608 103.941098 
L 252.7872 103.209359 
L 253.9296 97.852696 
L 254.7456 97.704685 
L 262.7424 97.781185 
L 263.232 98.388196 
L 264.2112 98.847196 
L 264.5376 97.508446 
L 265.0272 95.484522 
L 265.3536 95.020533 
L 273.1872 95.020533 
L 273.3504 94.578163 
L 273.84 92.238261 
L 274.1664 91.34687 
L 274.3296 91.107391 
L 275.1456 91.084109 
L 282.4896 91.084109 
L 283.1424 88.853967 
L 283.9584 88.674359 
L 289.6704 88.662717 
L 289.9968 87.811239 
L 290.8128 84.814435 
L 290.976 84.503446 
L 292.1184 84.486815 
L 299.2992 84.503446 
L 299.952 85.043935 
L 300.768 86.876609 
L 301.0944 87.235826 
L 302.8896 89.111739 
L 303.5424 90.034728 
L 303.7056 90.225978 
L 312.192 90.27088 
L 312.6816 90.9045 
L 313.1712 89.056859 
L 313.4976 88.488098 
L 314.1504 88.454837 
L 321.8208 88.483109 
L 322.1472 88.87725 
L 322.3104 88.963728 
L 322.8 89.520848 
L 323.616 87.766337 
L 328.6752 87.766337 
L 329.4912 86.919848 
L 329.9808 85.443065 
L 330.7968 82.338163 
L 331.1232 82.027174 
L 339.4464 82.082054 
L 341.0784 84.711326 
L 341.568 85.519565 
L 341.8944 86.061717 
L 342.5472 87.455348 
L 343.3632 88.985348 
L 344.016 89.92663 
L 352.0128 89.92663 
L 352.3392 90.111228 
L 352.992 91.282011 
L 353.1552 91.40175 
L 353.4816 91.750989 
L 354.4608 88.674359 
L 354.9504 88.509717 
L 362.784 88.509717 
L 363.1104 88.882239 
L 363.6 89.761989 
L 363.7632 89.860109 
L 363.9264 89.690478 
L 364.416 87.558457 
L 364.9056 86.444217 
L 372.9024 86.410957 
L 373.2288 85.349935 
L 373.8816 83.098174 
L 374.0448 82.758913 
L 374.3712 82.682413 
L 382.2048 82.682413 
L 382.5312 82.863685 
L 382.6944 83.000054 
L 383.0208 83.525576 
L 383.3472 83.929696 
L 384.1632 85.547837 
L 385.1424 87.082826 
L 385.632 87.876098 
L 386.1216 86.439228 
L 386.448 85.990207 
L 386.7744 85.918696 
L 394.7712 85.918696 
L 395.0976 86.279576 
L 395.9136 87.575087 
L 396.0768 87.689837 
L 396.24 88.148837 
L 396.4032 88.215359 
L 397.5456 89.494239 
L 398.688 85.863815 
L 407.0112 85.908717 
L 407.3376 86.126576 
L 408.8064 88.127217 
L 408.9696 87.947609 
L 409.7856 84.804457 
L 410.2752 84.016174 
L 418.7616 84.061076 
L 419.2512 84.448565 
L 419.904 85.634315 
L 420.0672 85.650946 
L 420.5568 86.482467 
L 422.352 88.80075 
L 422.5152 88.466478 
L 422.8416 87.460337 
L 423.4944 86.613848 
L 431.4912 86.683696 
L 431.9808 87.067859 
L 432.144 86.613848 
L 432.96 83.049946 
L 433.2864 82.354793 
L 433.776 82.065424 
L 436.0608 81.929054 
L 442.2624 81.929054 
L 442.752 82.507793 
L 442.9152 82.507793 
L 443.7312 83.219576 
L 444.0576 83.339315 
L 444.7104 83.508946 
L 445.2 83.508946 
L 445.5264 83.809957 
L 451.2384 83.874815 
L 454.3392 83.924707 
L 454.5024 84.022826 
L 455.6448 85.705826 
L 455.808 85.388185 
L 456.2976 83.525576 
L 456.7872 82.858696 
L 463.6416 82.753924 
L 463.8048 82.612565 
L 464.6208 80.874685 
L 465.2736 78.573033 
L 465.6 78.004272 
L 467.7216 77.894511 
L 474.0864 77.949391 
L 474.576 78.659511 
L 475.2288 79.524293 
L 475.5552 79.180043 
L 475.7184 79.163413 
L 475.8816 78.988793 
L 484.0416 78.993783 
L 484.2048 79.195011 
L 484.368 79.206652 
L 485.0208 80.119663 
L 485.3472 80.676783 
L 485.6736 80.896304 
L 486 80.119663 
L 486.1632 80.114674 
L 486.3264 79.955022 
L 494.4864 80.059793 
L 494.6496 80.272663 
L 494.976 79.397902 
L 495.3024 78.398413 
L 495.6288 78.004272 
L 503.952 78.09075 
L 504.2784 78.288652 
L 504.6048 78.654522 
L 505.0944 79.283152 
L 505.7472 78.233772 
L 506.8896 78.124011 
L 514.0704 78.124011 
L 514.7232 79.096891 
L 514.8864 79.256543 
L 516.0288 81.556533 
L 516.192 81.786033 
L 516.6816 80.731663 
L 517.008 80.399054 
L 519.7824 80.392402 
L 523.3728 80.392402 
L 523.6992 79.906793 
L 524.0256 79.677293 
L 524.5152 78.551413 
L 525.4944 75.58787 
L 525.8208 75.255261 
L 533.9808 75.270228 
L 536.2656 78.561391 
L 536.9184 79.125163 
L 537.2448 79.436152 
L 538.0608 80.261022 
L 545.4048 80.261022 
L 545.7312 80.590304 
L 546.7104 82.141924 
L 547.3632 83.497304 
L 547.3632 83.497304 
" style="fill:none;stroke:#2ca02c;stroke-linecap:square;stroke-width:1.5;"/>
   </g>
   <g id="patch_3">
    <path d="M 57.6 151.043478 
L 57.6 18 
" style="fill:none;stroke:#000000;stroke-linecap:square;stroke-linejoin:miter;stroke-width:0.8;"/>
   </g>
   <g id="patch_4">
    <path d="M 547.2 151.043478 
L 547.2 18 
" style="fill:none;stroke:#000000;stroke-linecap:square;stroke-linejoin:miter;stroke-width:0.8;"/>
   </g>
   <g id="patch_5">
    <path d="M 57.6 151.043478 
L 547.2 151.043478 
" style="fill:none;stroke:#000000;stroke-linecap:square;stroke-linejoin:miter;stroke-width:0.8;"/>
   </g>
   <g id="patch_6">
    <path d="M 57.6 18 
L 547.2 18 
" style="fill:none;stroke:#000000;stroke-linecap:square;stroke-linejoin:miter;stroke-width:0.8;"/>
   </g>
   <g id="legend_1">
    <g id="patch_7">
     <path d="M 64.6 55.35625 
L 337.948438 55.35625 
Q 339.948438 55.35625 339.948438 53.35625 
L 339.948438 25 
Q 339.948438 23 337.948438 23 
L 64.6 23 
Q 62.6 23 62.6 25 
L 62.6 53.35625 
Q 62.6 55.35625 64.6 55.35625 
z
" style="fill:#ffffff;opacity:0.8;stroke:#cccccc;stroke-linejoin:miter;"/>
    </g>
    <g id="line2d_14">
     <path d="M 66.6 31.098437 
L 86.6 31.098437 
" style="fill:none;stroke:#ff0000;stroke-linecap:square;stroke-width:1.5;"/>
    </g>
    <g id="line2d_15"/>
    <g id="text_14">
     <!-- somatic membrane potential -->
     <g transform="translate(94.6 34.598437)scale(0.1 -0.1)">
      <defs>
       <path d="M 1959 3097 
Q 1497 3097 1228 2736 
Q 959 2375 959 1747 
Q 959 1119 1226 758 
Q 1494 397 1959 397 
Q 2419 397 2687 759 
Q 2956 1122 2956 1747 
Q 2956 2369 2687 2733 
Q 2419 3097 1959 3097 
z
M 1959 3584 
Q 2709 3584 3137 3096 
Q 3566 2609 3566 1747 
Q 3566 888 3137 398 
Q 2709 -91 1959 -91 
Q 1206 -91 779 398 
Q 353 888 353 1747 
Q 353 2609 779 3096 
Q 1206 3584 1959 3584 
z
" id="DejaVuSans-6f" transform="scale(0.015625)"/>
       <path d="M 2194 1759 
Q 1497 1759 1228 1600 
Q 959 1441 959 1056 
Q 959 750 1161 570 
Q 1363 391 1709 391 
Q 2188 391 2477 730 
Q 2766 1069 2766 1631 
L 2766 1759 
L 2194 1759 
z
M 3341 1997 
L 3341 0 
L 2766 0 
L 2766 531 
Q 2569 213 2275 61 
Q 1981 -91 1556 -91 
Q 1019 -91 701 211 
Q 384 513 384 1019 
Q 384 1609 779 1909 
Q 1175 2209 1959 2209 
L 2766 2209 
L 2766 2266 
Q 2766 2663 2505 2880 
Q 2244 3097 1772 3097 
Q 1472 3097 1187 3025 
Q 903 2953 641 2809 
L 641 3341 
Q 956 3463 1253 3523 
Q 1550 3584 1831 3584 
Q 2591 3584 2966 3190 
Q 3341 2797 3341 1997 
z
" id="DejaVuSans-61" transform="scale(0.015625)"/>
       <path d="M 1172 4494 
L 1172 3500 
L 2356 3500 
L 2356 3053 
L 1172 3053 
L 1172 1153 
Q 1172 725 1289 603 
Q 1406 481 1766 481 
L 2356 481 
L 2356 0 
L 1766 0 
Q 1100 0 847 248 
Q 594 497 594 1153 
L 594 3053 
L 172 3053 
L 172 3500 
L 594 3500 
L 594 4494 
L 1172 4494 
z
" id="DejaVuSans-74" transform="scale(0.015625)"/>
       <path d="M 603 3500 
L 1178 3500 
L 1178 0 
L 603 0 
L 603 3500 
z
M 603 4863 
L 1178 4863 
L 1178 4134 
L 603 4134 
L 603 4863 
z
" id="DejaVuSans-69" transform="scale(0.015625)"/>
       <path d="M 3122 3366 
L 3122 2828 
Q 2878 2963 2633 3030 
Q 2388 3097 2138 3097 
Q 1578 3097 1268 2742 
Q 959 2388 959 1747 
Q 959 1106 1268 751 
Q 1578 397 2138 397 
Q 2388 397 2633 464 
Q 2878 531 3122 666 
L 3122 134 
Q 2881 22 2623 -34 
Q 2366 -91 2075 -91 
Q 1284 -91 818 406 
Q 353 903 353 1747 
Q 353 2603 823 3093 
Q 1294 3584 2113 3584 
Q 2378 3584 2631 3529 
Q 2884 3475 3122 3366 
z
" id="DejaVuSans-63" transform="scale(0.015625)"/>
       <path id="DejaVuSans-20" transform="scale(0.015625)"/>
       <path d="M 3597 1894 
L 3597 1613 
L 953 1613 
Q 991 1019 1311 708 
Q 1631 397 2203 397 
Q 2534 397 2845 478 
Q 3156 559 3463 722 
L 3463 178 
Q 3153 47 2828 -22 
Q 2503 -91 2169 -91 
Q 1331 -91 842 396 
Q 353 884 353 1716 
Q 353 2575 817 3079 
Q 1281 3584 2069 3584 
Q 2775 3584 3186 3129 
Q 3597 2675 3597 1894 
z
M 3022 2063 
Q 3016 2534 2758 2815 
Q 2500 3097 2075 3097 
Q 1594 3097 1305 2825 
Q 1016 2553 972 2059 
L 3022 2063 
z
" id="DejaVuSans-65" transform="scale(0.015625)"/>
       <path d="M 3116 1747 
Q 3116 2381 2855 2742 
Q 2594 3103 2138 3103 
Q 1681 3103 1420 2742 
Q 1159 2381 1159 1747 
Q 1159 1113 1420 752 
Q 1681 391 2138 391 
Q 2594 391 2855 752 
Q 3116 1113 3116 1747 
z
M 1159 2969 
Q 1341 3281 1617 3432 
Q 1894 3584 2278 3584 
Q 2916 3584 3314 3078 
Q 3713 2572 3713 1747 
Q 3713 922 3314 415 
Q 2916 -91 2278 -91 
Q 1894 -91 1617 61 
Q 1341 213 1159 525 
L 1159 0 
L 581 0 
L 581 4863 
L 1159 4863 
L 1159 2969 
z
" id="DejaVuSans-62" transform="scale(0.015625)"/>
       <path d="M 2631 2963 
Q 2534 3019 2420 3045 
Q 2306 3072 2169 3072 
Q 1681 3072 1420 2755 
Q 1159 2438 1159 1844 
L 1159 0 
L 581 0 
L 581 3500 
L 1159 3500 
L 1159 2956 
Q 1341 3275 1631 3429 
Q 1922 3584 2338 3584 
Q 2397 3584 2469 3576 
Q 2541 3569 2628 3553 
L 2631 2963 
z
" id="DejaVuSans-72" transform="scale(0.015625)"/>
       <path d="M 3513 2113 
L 3513 0 
L 2938 0 
L 2938 2094 
Q 2938 2591 2744 2837 
Q 2550 3084 2163 3084 
Q 1697 3084 1428 2787 
Q 1159 2491 1159 1978 
L 1159 0 
L 581 0 
L 581 3500 
L 1159 3500 
L 1159 2956 
Q 1366 3272 1645 3428 
Q 1925 3584 2291 3584 
Q 2894 3584 3203 3211 
Q 3513 2838 3513 2113 
z
" id="DejaVuSans-6e" transform="scale(0.015625)"/>
       <path d="M 1159 525 
L 1159 -1331 
L 581 -1331 
L 581 3500 
L 1159 3500 
L 1159 2969 
Q 1341 3281 1617 3432 
Q 1894 3584 2278 3584 
Q 2916 3584 3314 3078 
Q 3713 2572 3713 1747 
Q 3713 922 3314 415 
Q 2916 -91 2278 -91 
Q 1894 -91 1617 61 
Q 1341 213 1159 525 
z
M 3116 1747 
Q 3116 2381 2855 2742 
Q 2594 3103 2138 3103 
Q 1681 3103 1420 2742 
Q 1159 2381 1159 1747 
Q 1159 1113 1420 752 
Q 1681 391 2138 391 
Q 2594 391 2855 752 
Q 3116 1113 3116 1747 
z
" id="DejaVuSans-70" transform="scale(0.015625)"/>
       <path d="M 603 4863 
L 1178 4863 
L 1178 0 
L 603 0 
L 603 4863 
z
" id="DejaVuSans-6c" transform="scale(0.015625)"/>
      </defs>
      <use xlink:href="#DejaVuSans-73"/>
      <use x="52.099609" xlink:href="#DejaVuSans-6f"/>
      <use x="113.28125" xlink:href="#DejaVuSans-6d"/>
      <use x="210.693359" xlink:href="#DejaVuSans-61"/>
      <use x="271.972656" xlink:href="#DejaVuSans-74"/>
      <use x="311.181641" xlink:href="#DejaVuSans-69"/>
      <use x="338.964844" xlink:href="#DejaVuSans-63"/>
      <use x="393.945312" xlink:href="#DejaVuSans-20"/>
      <use x="425.732422" xlink:href="#DejaVuSans-6d"/>
      <use x="523.144531" xlink:href="#DejaVuSans-65"/>
      <use x="584.667969" xlink:href="#DejaVuSans-6d"/>
      <use x="682.080078" xlink:href="#DejaVuSans-62"/>
      <use x="745.556641" xlink:href="#DejaVuSans-72"/>
      <use x="786.669922" xlink:href="#DejaVuSans-61"/>
      <use x="847.949219" xlink:href="#DejaVuSans-6e"/>
      <use x="911.328125" xlink:href="#DejaVuSans-65"/>
      <use x="972.851562" xlink:href="#DejaVuSans-20"/>
      <use x="1004.638672" xlink:href="#DejaVuSans-70"/>
      <use x="1068.115234" xlink:href="#DejaVuSans-6f"/>
      <use x="1129.296875" xlink:href="#DejaVuSans-74"/>
      <use x="1168.505859" xlink:href="#DejaVuSans-65"/>
      <use x="1230.029297" xlink:href="#DejaVuSans-6e"/>
      <use x="1293.408203" xlink:href="#DejaVuSans-74"/>
      <use x="1332.617188" xlink:href="#DejaVuSans-69"/>
      <use x="1360.400391" xlink:href="#DejaVuSans-61"/>
      <use x="1421.679688" xlink:href="#DejaVuSans-6c"/>
     </g>
    </g>
    <g id="line2d_16">
     <path d="M 66.6 45.776563 
L 86.6 45.776563 
" style="fill:none;stroke:#2ca02c;stroke-linecap:square;stroke-width:1.5;"/>
    </g>
    <g id="line2d_17"/>
    <g id="text_15">
     <!-- maximum value within the time window of 5 ms -->
     <g transform="translate(94.6 49.276563)scale(0.1 -0.1)">
      <defs>
       <path d="M 3513 3500 
L 2247 1797 
L 3578 0 
L 2900 0 
L 1881 1375 
L 863 0 
L 184 0 
L 1544 1831 
L 300 3500 
L 978 3500 
L 1906 2253 
L 2834 3500 
L 3513 3500 
z
" id="DejaVuSans-78" transform="scale(0.015625)"/>
       <path d="M 544 1381 
L 544 3500 
L 1119 3500 
L 1119 1403 
Q 1119 906 1312 657 
Q 1506 409 1894 409 
Q 2359 409 2629 706 
Q 2900 1003 2900 1516 
L 2900 3500 
L 3475 3500 
L 3475 0 
L 2900 0 
L 2900 538 
Q 2691 219 2414 64 
Q 2138 -91 1772 -91 
Q 1169 -91 856 284 
Q 544 659 544 1381 
z
M 1991 3584 
L 1991 3584 
z
" id="DejaVuSans-75" transform="scale(0.015625)"/>
       <path d="M 191 3500 
L 800 3500 
L 1894 563 
L 2988 3500 
L 3597 3500 
L 2284 0 
L 1503 0 
L 191 3500 
z
" id="DejaVuSans-76" transform="scale(0.015625)"/>
       <path d="M 269 3500 
L 844 3500 
L 1563 769 
L 2278 3500 
L 2956 3500 
L 3675 769 
L 4391 3500 
L 4966 3500 
L 4050 0 
L 3372 0 
L 2619 2869 
L 1863 0 
L 1184 0 
L 269 3500 
z
" id="DejaVuSans-77" transform="scale(0.015625)"/>
       <path d="M 3513 2113 
L 3513 0 
L 2938 0 
L 2938 2094 
Q 2938 2591 2744 2837 
Q 2550 3084 2163 3084 
Q 1697 3084 1428 2787 
Q 1159 2491 1159 1978 
L 1159 0 
L 581 0 
L 581 4863 
L 1159 4863 
L 1159 2956 
Q 1366 3272 1645 3428 
Q 1925 3584 2291 3584 
Q 2894 3584 3203 3211 
Q 3513 2838 3513 2113 
z
" id="DejaVuSans-68" transform="scale(0.015625)"/>
       <path d="M 2906 2969 
L 2906 4863 
L 3481 4863 
L 3481 0 
L 2906 0 
L 2906 525 
Q 2725 213 2448 61 
Q 2172 -91 1784 -91 
Q 1150 -91 751 415 
Q 353 922 353 1747 
Q 353 2572 751 3078 
Q 1150 3584 1784 3584 
Q 2172 3584 2448 3432 
Q 2725 3281 2906 2969 
z
M 947 1747 
Q 947 1113 1208 752 
Q 1469 391 1925 391 
Q 2381 391 2643 752 
Q 2906 1113 2906 1747 
Q 2906 2381 2643 2742 
Q 2381 3103 1925 3103 
Q 1469 3103 1208 2742 
Q 947 2381 947 1747 
z
" id="DejaVuSans-64" transform="scale(0.015625)"/>
       <path d="M 2375 4863 
L 2375 4384 
L 1825 4384 
Q 1516 4384 1395 4259 
Q 1275 4134 1275 3809 
L 1275 3500 
L 2222 3500 
L 2222 3053 
L 1275 3053 
L 1275 0 
L 697 0 
L 697 3053 
L 147 3053 
L 147 3500 
L 697 3500 
L 697 3744 
Q 697 4328 969 4595 
Q 1241 4863 1831 4863 
L 2375 4863 
z
" id="DejaVuSans-66" transform="scale(0.015625)"/>
      </defs>
      <use xlink:href="#DejaVuSans-6d"/>
      <use x="97.412109" xlink:href="#DejaVuSans-61"/>
      <use x="158.691406" xlink:href="#DejaVuSans-78"/>
      <use x="217.871094" xlink:href="#DejaVuSans-69"/>
      <use x="245.654297" xlink:href="#DejaVuSans-6d"/>
      <use x="343.066406" xlink:href="#DejaVuSans-75"/>
      <use x="406.445312" xlink:href="#DejaVuSans-6d"/>
      <use x="503.857422" xlink:href="#DejaVuSans-20"/>
      <use x="535.644531" xlink:href="#DejaVuSans-76"/>
      <use x="594.824219" xlink:href="#DejaVuSans-61"/>
      <use x="656.103516" xlink:href="#DejaVuSans-6c"/>
      <use x="683.886719" xlink:href="#DejaVuSans-75"/>
      <use x="747.265625" xlink:href="#DejaVuSans-65"/>
      <use x="808.789062" xlink:href="#DejaVuSans-20"/>
      <use x="840.576172" xlink:href="#DejaVuSans-77"/>
      <use x="922.363281" xlink:href="#DejaVuSans-69"/>
      <use x="950.146484" xlink:href="#DejaVuSans-74"/>
      <use x="989.355469" xlink:href="#DejaVuSans-68"/>
      <use x="1052.734375" xlink:href="#DejaVuSans-69"/>
      <use x="1080.517578" xlink:href="#DejaVuSans-6e"/>
      <use x="1143.896484" xlink:href="#DejaVuSans-20"/>
      <use x="1175.683594" xlink:href="#DejaVuSans-74"/>
      <use x="1214.892578" xlink:href="#DejaVuSans-68"/>
      <use x="1278.271484" xlink:href="#DejaVuSans-65"/>
      <use x="1339.794922" xlink:href="#DejaVuSans-20"/>
      <use x="1371.582031" xlink:href="#DejaVuSans-74"/>
      <use x="1410.791016" xlink:href="#DejaVuSans-69"/>
      <use x="1438.574219" xlink:href="#DejaVuSans-6d"/>
      <use x="1535.986328" xlink:href="#DejaVuSans-65"/>
      <use x="1597.509766" xlink:href="#DejaVuSans-20"/>
      <use x="1629.296875" xlink:href="#DejaVuSans-77"/>
      <use x="1711.083984" xlink:href="#DejaVuSans-69"/>
      <use x="1738.867188" xlink:href="#DejaVuSans-6e"/>
      <use x="1802.246094" xlink:href="#DejaVuSans-64"/>
      <use x="1865.722656" xlink:href="#DejaVuSans-6f"/>
      <use x="1926.904297" xlink:href="#DejaVuSans-77"/>
      <use x="2008.691406" xlink:href="#DejaVuSans-20"/>
      <use x="2040.478516" xlink:href="#DejaVuSans-6f"/>
      <use x="2101.660156" xlink:href="#DejaVuSans-66"/>
      <use x="2136.865234" xlink:href="#DejaVuSans-20"/>
      <use x="2168.652344" xlink:href="#DejaVuSans-35"/>
      <use x="2232.275391" xlink:href="#DejaVuSans-20"/>
      <use x="2264.0625" xlink:href="#DejaVuSans-6d"/>
      <use x="2361.474609" xlink:href="#DejaVuSans-73"/>
     </g>
    </g>
   </g>
  </g>
  <g id="axes_2">
   <g id="patch_8">
    <path d="M 57.6 324 
L 547.2 324 
L 547.2 190.956522 
L 57.6 190.956522 
z
" style="fill:#ffffff;"/>
   </g>
   <g id="matplotlib.axis_3">
    <g id="xtick_8">
     <g id="line2d_18">
      <g>
       <use style="stroke:#000000;stroke-width:0.8;" x="57.6" xlink:href="#m2d70fcfb92" y="324"/>
      </g>
     </g>
     <g id="text_16">
      <!-- 0.50 -->
      <g transform="translate(46.467188 338.598438)scale(0.1 -0.1)">
       <use xlink:href="#DejaVuSans-30"/>
       <use x="63.623047" xlink:href="#DejaVuSans-2e"/>
       <use x="95.410156" xlink:href="#DejaVuSans-35"/>
       <use x="159.033203" xlink:href="#DejaVuSans-30"/>
      </g>
     </g>
    </g>
    <g id="xtick_9">
     <g id="line2d_19">
      <g>
       <use style="stroke:#000000;stroke-width:0.8;" x="139.2" xlink:href="#m2d70fcfb92" y="324"/>
      </g>
     </g>
     <g id="text_17">
      <!-- 0.55 -->
      <g transform="translate(128.067188 338.598438)scale(0.1 -0.1)">
       <use xlink:href="#DejaVuSans-30"/>
       <use x="63.623047" xlink:href="#DejaVuSans-2e"/>
       <use x="95.410156" xlink:href="#DejaVuSans-35"/>
       <use x="159.033203" xlink:href="#DejaVuSans-35"/>
      </g>
     </g>
    </g>
    <g id="xtick_10">
     <g id="line2d_20">
      <g>
       <use style="stroke:#000000;stroke-width:0.8;" x="220.8" xlink:href="#m2d70fcfb92" y="324"/>
      </g>
     </g>
     <g id="text_18">
      <!-- 0.60 -->
      <g transform="translate(209.667188 338.598438)scale(0.1 -0.1)">
       <use xlink:href="#DejaVuSans-30"/>
       <use x="63.623047" xlink:href="#DejaVuSans-2e"/>
       <use x="95.410156" xlink:href="#DejaVuSans-36"/>
       <use x="159.033203" xlink:href="#DejaVuSans-30"/>
      </g>
     </g>
    </g>
    <g id="xtick_11">
     <g id="line2d_21">
      <g>
       <use style="stroke:#000000;stroke-width:0.8;" x="302.4" xlink:href="#m2d70fcfb92" y="324"/>
      </g>
     </g>
     <g id="text_19">
      <!-- 0.65 -->
      <g transform="translate(291.267187 338.598438)scale(0.1 -0.1)">
       <use xlink:href="#DejaVuSans-30"/>
       <use x="63.623047" xlink:href="#DejaVuSans-2e"/>
       <use x="95.410156" xlink:href="#DejaVuSans-36"/>
       <use x="159.033203" xlink:href="#DejaVuSans-35"/>
      </g>
     </g>
    </g>
    <g id="xtick_12">
     <g id="line2d_22">
      <g>
       <use style="stroke:#000000;stroke-width:0.8;" x="384" xlink:href="#m2d70fcfb92" y="324"/>
      </g>
     </g>
     <g id="text_20">
      <!-- 0.70 -->
      <g transform="translate(372.867188 338.598438)scale(0.1 -0.1)">
       <use xlink:href="#DejaVuSans-30"/>
       <use x="63.623047" xlink:href="#DejaVuSans-2e"/>
       <use x="95.410156" xlink:href="#DejaVuSans-37"/>
       <use x="159.033203" xlink:href="#DejaVuSans-30"/>
      </g>
     </g>
    </g>
    <g id="xtick_13">
     <g id="line2d_23">
      <g>
       <use style="stroke:#000000;stroke-width:0.8;" x="465.6" xlink:href="#m2d70fcfb92" y="324"/>
      </g>
     </g>
     <g id="text_21">
      <!-- 0.75 -->
      <g transform="translate(454.467187 338.598438)scale(0.1 -0.1)">
       <use xlink:href="#DejaVuSans-30"/>
       <use x="63.623047" xlink:href="#DejaVuSans-2e"/>
       <use x="95.410156" xlink:href="#DejaVuSans-37"/>
       <use x="159.033203" xlink:href="#DejaVuSans-35"/>
      </g>
     </g>
    </g>
    <g id="xtick_14">
     <g id="line2d_24">
      <g>
       <use style="stroke:#000000;stroke-width:0.8;" x="547.2" xlink:href="#m2d70fcfb92" y="324"/>
      </g>
     </g>
     <g id="text_22">
      <!-- 0.80 -->
      <g transform="translate(536.067187 338.598438)scale(0.1 -0.1)">
       <use xlink:href="#DejaVuSans-30"/>
       <use x="63.623047" xlink:href="#DejaVuSans-2e"/>
       <use x="95.410156" xlink:href="#DejaVuSans-38"/>
       <use x="159.033203" xlink:href="#DejaVuSans-30"/>
      </g>
     </g>
    </g>
    <g id="text_23">
     <!-- [s] -->
     <g transform="translate(295.89375 352.276563)scale(0.1 -0.1)">
      <use xlink:href="#DejaVuSans-5b"/>
      <use x="39.013672" xlink:href="#DejaVuSans-73"/>
      <use x="91.113281" xlink:href="#DejaVuSans-5d"/>
     </g>
    </g>
   </g>
   <g id="matplotlib.axis_4">
    <g id="ytick_5">
     <g id="line2d_25">
      <g>
       <use style="stroke:#000000;stroke-width:0.8;" x="57.6" xlink:href="#m54d86b2515" y="316.997712"/>
      </g>
     </g>
     <g id="text_24">
      <!-- 0 -->
      <g transform="translate(44.2375 320.79693)scale(0.1 -0.1)">
       <use xlink:href="#DejaVuSans-30"/>
      </g>
     </g>
    </g>
    <g id="ytick_6">
     <g id="line2d_26">
      <g>
       <use style="stroke:#000000;stroke-width:0.8;" x="57.6" xlink:href="#m54d86b2515" y="281.98627"/>
      </g>
     </g>
     <g id="text_25">
      <!-- 50 -->
      <g transform="translate(37.875 285.785489)scale(0.1 -0.1)">
       <use xlink:href="#DejaVuSans-35"/>
       <use x="63.623047" xlink:href="#DejaVuSans-30"/>
      </g>
     </g>
    </g>
    <g id="ytick_7">
     <g id="line2d_27">
      <g>
       <use style="stroke:#000000;stroke-width:0.8;" x="57.6" xlink:href="#m54d86b2515" y="246.974828"/>
      </g>
     </g>
     <g id="text_26">
      <!-- 100 -->
      <g transform="translate(31.5125 250.774047)scale(0.1 -0.1)">
       <defs>
        <path d="M 794 531 
L 1825 531 
L 1825 4091 
L 703 3866 
L 703 4441 
L 1819 4666 
L 2450 4666 
L 2450 531 
L 3481 531 
L 3481 0 
L 794 0 
L 794 531 
z
" id="DejaVuSans-31" transform="scale(0.015625)"/>
       </defs>
       <use xlink:href="#DejaVuSans-31"/>
       <use x="63.623047" xlink:href="#DejaVuSans-30"/>
       <use x="127.246094" xlink:href="#DejaVuSans-30"/>
      </g>
     </g>
    </g>
    <g id="ytick_8">
     <g id="line2d_28">
      <g>
       <use style="stroke:#000000;stroke-width:0.8;" x="57.6" xlink:href="#m54d86b2515" y="211.963387"/>
      </g>
     </g>
     <g id="text_27">
      <!-- 150 -->
      <g transform="translate(31.5125 215.762605)scale(0.1 -0.1)">
       <use xlink:href="#DejaVuSans-31"/>
       <use x="63.623047" xlink:href="#DejaVuSans-35"/>
       <use x="127.246094" xlink:href="#DejaVuSans-30"/>
      </g>
     </g>
    </g>
    <g id="text_28">
     <!-- [Hz] -->
     <g transform="translate(25.432812 267.764198)rotate(-90)scale(0.1 -0.1)">
      <defs>
       <path d="M 628 4666 
L 1259 4666 
L 1259 2753 
L 3553 2753 
L 3553 4666 
L 4184 4666 
L 4184 0 
L 3553 0 
L 3553 2222 
L 1259 2222 
L 1259 0 
L 628 0 
L 628 4666 
z
" id="DejaVuSans-48" transform="scale(0.015625)"/>
       <path d="M 353 3500 
L 3084 3500 
L 3084 2975 
L 922 459 
L 3084 459 
L 3084 0 
L 275 0 
L 275 525 
L 2438 3041 
L 353 3041 
L 353 3500 
z
" id="DejaVuSans-7a" transform="scale(0.015625)"/>
      </defs>
      <use xlink:href="#DejaVuSans-5b"/>
      <use x="39.013672" xlink:href="#DejaVuSans-48"/>
      <use x="114.208984" xlink:href="#DejaVuSans-7a"/>
      <use x="166.699219" xlink:href="#DejaVuSans-5d"/>
     </g>
    </g>
   </g>
   <g id="line2d_29">
    <path clip-path="url(#p3018b67d46)" d="M -1 313.942792 
L 16.8 316.997712 
L 98.4 316.997712 
L 180 316.997712 
L 261.6 218.965675 
L 343.2 204.961098 
L 424.8 204.961098 
L 506.4 204.961098 
L 577 204.961098 
" style="fill:none;stroke:#1f77b4;stroke-linecap:square;stroke-width:1.5;"/>
   </g>
   <g id="line2d_30">
    <path clip-path="url(#p3018b67d46)" style="fill:none;stroke:#808080;stroke-dasharray:5.55,2.4;stroke-dashoffset:0;stroke-width:1.5;"/>
   </g>
   <g id="line2d_31">
    <path clip-path="url(#p3018b67d46)" style="fill:none;stroke:#808080;stroke-dasharray:5.55,2.4;stroke-dashoffset:0;stroke-width:1.5;"/>
   </g>
   <g id="line2d_32">
    <path clip-path="url(#p3018b67d46)" style="fill:none;stroke:#808080;stroke-dasharray:5.55,2.4;stroke-dashoffset:0;stroke-width:1.5;"/>
   </g>
   <g id="line2d_33">
    <path clip-path="url(#p3018b67d46)" style="fill:none;stroke:#808080;stroke-dasharray:5.55,2.4;stroke-dashoffset:0;stroke-width:1.5;"/>
   </g>
   <g id="line2d_34">
    <path clip-path="url(#p3018b67d46)" style="fill:none;stroke:#808080;stroke-dasharray:5.55,2.4;stroke-dashoffset:0;stroke-width:1.5;"/>
   </g>
   <g id="line2d_35">
    <path clip-path="url(#p3018b67d46)" style="fill:none;stroke:#808080;stroke-dasharray:5.55,2.4;stroke-dashoffset:0;stroke-width:1.5;"/>
   </g>
   <g id="line2d_36">
    <path clip-path="url(#p3018b67d46)" style="fill:none;stroke:#808080;stroke-dasharray:5.55,2.4;stroke-dashoffset:0;stroke-width:1.5;"/>
   </g>
   <g id="line2d_37">
    <path clip-path="url(#p3018b67d46)" style="fill:none;stroke:#808080;stroke-dasharray:5.55,2.4;stroke-dashoffset:0;stroke-width:1.5;"/>
   </g>
   <g id="line2d_38">
    <path clip-path="url(#p3018b67d46)" style="fill:none;stroke:#808080;stroke-dasharray:5.55,2.4;stroke-dashoffset:0;stroke-width:1.5;"/>
   </g>
   <g id="line2d_39">
    <path clip-path="url(#p3018b67d46)" style="fill:none;stroke:#808080;stroke-dasharray:5.55,2.4;stroke-dashoffset:0;stroke-width:1.5;"/>
   </g>
   <g id="line2d_40">
    <path clip-path="url(#p3018b67d46)" d="M 57.6 361 
L 57.6 176.951945 
" style="fill:none;stroke:#808080;stroke-dasharray:5.55,2.4;stroke-dashoffset:0;stroke-width:1.5;"/>
   </g>
   <g id="line2d_41">
    <path clip-path="url(#p3018b67d46)" d="M 139.2 361 
L 139.2 176.951945 
" style="fill:none;stroke:#808080;stroke-dasharray:5.55,2.4;stroke-dashoffset:0;stroke-width:1.5;"/>
   </g>
   <g id="line2d_42">
    <path clip-path="url(#p3018b67d46)" d="M 220.8 361 
L 220.8 176.951945 
" style="fill:none;stroke:#808080;stroke-dasharray:5.55,2.4;stroke-dashoffset:0;stroke-width:1.5;"/>
   </g>
   <g id="line2d_43">
    <path clip-path="url(#p3018b67d46)" d="M 302.4 361 
L 302.4 176.951945 
" style="fill:none;stroke:#808080;stroke-dasharray:5.55,2.4;stroke-dashoffset:0;stroke-width:1.5;"/>
   </g>
   <g id="line2d_44">
    <path clip-path="url(#p3018b67d46)" d="M 384 361 
L 384 176.951945 
" style="fill:none;stroke:#808080;stroke-dasharray:5.55,2.4;stroke-dashoffset:0;stroke-width:1.5;"/>
   </g>
   <g id="line2d_45">
    <path clip-path="url(#p3018b67d46)" d="M 465.6 361 
L 465.6 176.951945 
" style="fill:none;stroke:#808080;stroke-dasharray:5.55,2.4;stroke-dashoffset:0;stroke-width:1.5;"/>
   </g>
   <g id="line2d_46">
    <path clip-path="url(#p3018b67d46)" d="M 547.2 361 
L 547.2 176.951945 
" style="fill:none;stroke:#808080;stroke-dasharray:5.55,2.4;stroke-dashoffset:0;stroke-width:1.5;"/>
   </g>
   <g id="line2d_47">
    <path clip-path="url(#p3018b67d46)" style="fill:none;stroke:#808080;stroke-dasharray:5.55,2.4;stroke-dashoffset:0;stroke-width:1.5;"/>
   </g>
   <g id="line2d_48">
    <path clip-path="url(#p3018b67d46)" style="fill:none;stroke:#808080;stroke-dasharray:5.55,2.4;stroke-dashoffset:0;stroke-width:1.5;"/>
   </g>
   <g id="line2d_49">
    <path clip-path="url(#p3018b67d46)" style="fill:none;stroke:#808080;stroke-dasharray:5.55,2.4;stroke-dashoffset:0;stroke-width:1.5;"/>
   </g>
   <g id="line2d_50">
    <path clip-path="url(#p3018b67d46)" style="fill:none;stroke:#808080;stroke-dasharray:5.55,2.4;stroke-dashoffset:0;stroke-width:1.5;"/>
   </g>
   <g id="line2d_51">
    <path clip-path="url(#p3018b67d46)" style="fill:none;stroke:#808080;stroke-dasharray:5.55,2.4;stroke-dashoffset:0;stroke-width:1.5;"/>
   </g>
   <g id="line2d_52">
    <path clip-path="url(#p3018b67d46)" style="fill:none;stroke:#808080;stroke-dasharray:5.55,2.4;stroke-dashoffset:0;stroke-width:1.5;"/>
   </g>
   <g id="line2d_53">
    <path clip-path="url(#p3018b67d46)" style="fill:none;stroke:#808080;stroke-dasharray:5.55,2.4;stroke-dashoffset:0;stroke-width:1.5;"/>
   </g>
   <g id="line2d_54">
    <path clip-path="url(#p3018b67d46)" style="fill:none;stroke:#808080;stroke-dasharray:5.55,2.4;stroke-dashoffset:0;stroke-width:1.5;"/>
   </g>
   <g id="line2d_55">
    <path clip-path="url(#p3018b67d46)" style="fill:none;stroke:#808080;stroke-dasharray:5.55,2.4;stroke-dashoffset:0;stroke-width:1.5;"/>
   </g>
   <g id="line2d_56">
    <path clip-path="url(#p3018b67d46)" style="fill:none;stroke:#808080;stroke-dasharray:5.55,2.4;stroke-dashoffset:0;stroke-width:1.5;"/>
   </g>
   <g id="line2d_57">
    <path clip-path="url(#p3018b67d46)" style="fill:none;stroke:#808080;stroke-dasharray:5.55,2.4;stroke-dashoffset:0;stroke-width:1.5;"/>
   </g>
   <g id="line2d_58">
    <path clip-path="url(#p3018b67d46)" style="fill:none;stroke:#808080;stroke-dasharray:5.55,2.4;stroke-dashoffset:0;stroke-width:1.5;"/>
   </g>
   <g id="line2d_59">
    <path clip-path="url(#p3018b67d46)" style="fill:none;stroke:#808080;stroke-dasharray:5.55,2.4;stroke-dashoffset:0;stroke-width:1.5;"/>
   </g>
   <g id="line2d_60">
    <path clip-path="url(#p3018b67d46)" style="fill:none;stroke:#808080;stroke-dasharray:5.55,2.4;stroke-dashoffset:0;stroke-width:1.5;"/>
   </g>
   <g id="line2d_61">
    <path clip-path="url(#p3018b67d46)" style="fill:none;stroke:#808080;stroke-dasharray:5.55,2.4;stroke-dashoffset:0;stroke-width:1.5;"/>
   </g>
   <g id="line2d_62">
    <path clip-path="url(#p3018b67d46)" style="fill:none;stroke:#808080;stroke-dasharray:5.55,2.4;stroke-dashoffset:0;stroke-width:1.5;"/>
   </g>
   <g id="line2d_63">
    <path clip-path="url(#p3018b67d46)" style="fill:none;stroke:#808080;stroke-dasharray:5.55,2.4;stroke-dashoffset:0;stroke-width:1.5;"/>
   </g>
   <g id="line2d_64">
    <path clip-path="url(#p3018b67d46)" style="fill:none;stroke:#808080;stroke-dasharray:5.55,2.4;stroke-dashoffset:0;stroke-width:1.5;"/>
   </g>
   <g id="line2d_65">
    <path clip-path="url(#p3018b67d46)" style="fill:none;stroke:#808080;stroke-dasharray:5.55,2.4;stroke-dashoffset:0;stroke-width:1.5;"/>
   </g>
   <g id="line2d_66">
    <path clip-path="url(#p3018b67d46)" style="fill:none;stroke:#808080;stroke-dasharray:5.55,2.4;stroke-dashoffset:0;stroke-width:1.5;"/>
   </g>
   <g id="line2d_67">
    <path clip-path="url(#p3018b67d46)" style="fill:none;stroke:#808080;stroke-dasharray:5.55,2.4;stroke-dashoffset:0;stroke-width:1.5;"/>
   </g>
   <g id="line2d_68">
    <path clip-path="url(#p3018b67d46)" style="fill:none;stroke:#808080;stroke-dasharray:5.55,2.4;stroke-dashoffset:0;stroke-width:1.5;"/>
   </g>
   <g id="line2d_69">
    <path clip-path="url(#p3018b67d46)" style="fill:none;stroke:#808080;stroke-dasharray:5.55,2.4;stroke-dashoffset:0;stroke-width:1.5;"/>
   </g>
   <g id="patch_9">
    <path d="M 57.6 324 
L 57.6 190.956522 
" style="fill:none;stroke:#000000;stroke-linecap:square;stroke-linejoin:miter;stroke-width:0.8;"/>
   </g>
   <g id="patch_10">
    <path d="M 547.2 324 
L 547.2 190.956522 
" style="fill:none;stroke:#000000;stroke-linecap:square;stroke-linejoin:miter;stroke-width:0.8;"/>
   </g>
   <g id="patch_11">
    <path d="M 57.6 324 
L 547.2 324 
" style="fill:none;stroke:#000000;stroke-linecap:square;stroke-linejoin:miter;stroke-width:0.8;"/>
   </g>
   <g id="patch_12">
    <path d="M 57.6 190.956522 
L 547.2 190.956522 
" style="fill:none;stroke:#000000;stroke-linecap:square;stroke-linejoin:miter;stroke-width:0.8;"/>
   </g>
   <g id="legend_2">
    <g id="patch_13">
     <path d="M 64.6 213.634647 
L 175.804688 213.634647 
Q 177.804688 213.634647 177.804688 211.634647 
L 177.804688 197.956522 
Q 177.804688 195.956522 175.804688 195.956522 
L 64.6 195.956522 
Q 62.6 195.956522 62.6 197.956522 
L 62.6 211.634647 
Q 62.6 213.634647 64.6 213.634647 
z
" style="fill:#ffffff;opacity:0.8;stroke:#cccccc;stroke-linejoin:miter;"/>
    </g>
    <g id="line2d_70">
     <path d="M 66.6 204.054959 
L 86.6 204.054959 
" style="fill:none;stroke:#1f77b4;stroke-linecap:square;stroke-width:1.5;"/>
    </g>
    <g id="line2d_71"/>
    <g id="text_29">
     <!-- firing frequency -->
     <g transform="translate(94.6 207.554959)scale(0.1 -0.1)">
      <defs>
       <path d="M 2906 1791 
Q 2906 2416 2648 2759 
Q 2391 3103 1925 3103 
Q 1463 3103 1205 2759 
Q 947 2416 947 1791 
Q 947 1169 1205 825 
Q 1463 481 1925 481 
Q 2391 481 2648 825 
Q 2906 1169 2906 1791 
z
M 3481 434 
Q 3481 -459 3084 -895 
Q 2688 -1331 1869 -1331 
Q 1566 -1331 1297 -1286 
Q 1028 -1241 775 -1147 
L 775 -588 
Q 1028 -725 1275 -790 
Q 1522 -856 1778 -856 
Q 2344 -856 2625 -561 
Q 2906 -266 2906 331 
L 2906 616 
Q 2728 306 2450 153 
Q 2172 0 1784 0 
Q 1141 0 747 490 
Q 353 981 353 1791 
Q 353 2603 747 3093 
Q 1141 3584 1784 3584 
Q 2172 3584 2450 3431 
Q 2728 3278 2906 2969 
L 2906 3500 
L 3481 3500 
L 3481 434 
z
" id="DejaVuSans-67" transform="scale(0.015625)"/>
       <path d="M 947 1747 
Q 947 1113 1208 752 
Q 1469 391 1925 391 
Q 2381 391 2643 752 
Q 2906 1113 2906 1747 
Q 2906 2381 2643 2742 
Q 2381 3103 1925 3103 
Q 1469 3103 1208 2742 
Q 947 2381 947 1747 
z
M 2906 525 
Q 2725 213 2448 61 
Q 2172 -91 1784 -91 
Q 1150 -91 751 415 
Q 353 922 353 1747 
Q 353 2572 751 3078 
Q 1150 3584 1784 3584 
Q 2172 3584 2448 3432 
Q 2725 3281 2906 2969 
L 2906 3500 
L 3481 3500 
L 3481 -1331 
L 2906 -1331 
L 2906 525 
z
" id="DejaVuSans-71" transform="scale(0.015625)"/>
       <path d="M 2059 -325 
Q 1816 -950 1584 -1140 
Q 1353 -1331 966 -1331 
L 506 -1331 
L 506 -850 
L 844 -850 
Q 1081 -850 1212 -737 
Q 1344 -625 1503 -206 
L 1606 56 
L 191 3500 
L 800 3500 
L 1894 763 
L 2988 3500 
L 3597 3500 
L 2059 -325 
z
" id="DejaVuSans-79" transform="scale(0.015625)"/>
      </defs>
      <use xlink:href="#DejaVuSans-66"/>
      <use x="35.205078" xlink:href="#DejaVuSans-69"/>
      <use x="62.988281" xlink:href="#DejaVuSans-72"/>
      <use x="104.101562" xlink:href="#DejaVuSans-69"/>
      <use x="131.884766" xlink:href="#DejaVuSans-6e"/>
      <use x="195.263672" xlink:href="#DejaVuSans-67"/>
      <use x="258.740234" xlink:href="#DejaVuSans-20"/>
      <use x="290.527344" xlink:href="#DejaVuSans-66"/>
      <use x="325.732422" xlink:href="#DejaVuSans-72"/>
      <use x="364.595703" xlink:href="#DejaVuSans-65"/>
      <use x="426.119141" xlink:href="#DejaVuSans-71"/>
      <use x="489.595703" xlink:href="#DejaVuSans-75"/>
      <use x="552.974609" xlink:href="#DejaVuSans-65"/>
      <use x="614.498047" xlink:href="#DejaVuSans-6e"/>
      <use x="677.876953" xlink:href="#DejaVuSans-63"/>
      <use x="732.857422" xlink:href="#DejaVuSans-79"/>
     </g>
    </g>
   </g>
  </g>
 </g>
 <defs>
  <clipPath id="pa4e853795e">
   <rect height="133.043478" width="489.6" x="57.6" y="18"/>
  </clipPath>
  <clipPath id="p3018b67d46">
   <rect height="133.043478" width="489.6" x="57.6" y="190.956522"/>
  </clipPath>
 </defs>
</svg>
