<?xml version="1.0" encoding="utf-8" standalone="no"?>
<!DOCTYPE svg PUBLIC "-//W3C//DTD SVG 1.1//EN"
  "http://www.w3.org/Graphics/SVG/1.1/DTD/svg11.dtd">
<svg height="288pt" version="1.1" viewBox="0 0 432 288" width="432pt" xmlns="http://www.w3.org/2000/svg" xmlns:xlink="http://www.w3.org/1999/xlink">
 <metadata>
  <rdf:RDF xmlns:cc="http://creativecommons.org/ns#" xmlns:dc="http://purl.org/dc/elements/1.1/" xmlns:rdf="http://www.w3.org/1999/02/22-rdf-syntax-ns#">
   <cc:Work>
    <dc:type rdf:resource="http://purl.org/dc/dcmitype/StillImage"/>
    <dc:date>2024-01-15T23:08:15.173669</dc:date>
    <dc:format>image/svg+xml</dc:format>
    <dc:creator>
     <cc:Agent>
      <dc:title>Matplotlib v3.4.3, https://matplotlib.org/</dc:title>
     </cc:Agent>
    </dc:creator>
   </cc:Work>
  </rdf:RDF>
 </metadata>
 <defs>
  <style type="text/css">*{stroke-linecap:butt;stroke-linejoin:round;}</style>
 </defs>
 <g id="figure_1">
  <g id="patch_1">
   <path d="M 0 288 
L 432 288 
L 432 0 
L 0 0 
z
" style="fill:none;"/>
  </g>
  <g id="axes_1">
   <g id="patch_2">
    <path d="M 49.128365 279.120854 
L 428.99976 279.120854 
L 428.99976 4.852082 
L 49.128365 4.852082 
z
" style="fill:#ffffff;"/>
   </g>
   <g id="patch_3">
    <path clip-path="url(#pc1e2576e45)" d="M 66.395247 279.120854 
L 114.028023 279.120854 
L 114.028023 91.794243 
L 66.395247 91.794243 
z
" style="fill:#ff7f0e;"/>
   </g>
   <g id="patch_4">
    <path clip-path="url(#pc1e2576e45)" d="M 125.936218 279.120854 
L 173.568994 279.120854 
L 173.568994 194.775417 
L 125.936218 194.775417 
z
" style="fill:#2ca02c;"/>
   </g>
   <g id="patch_5">
    <path clip-path="url(#pc1e2576e45)" d="M 185.477189 279.120854 
L 233.109965 279.120854 
L 233.109965 193.309879 
L 185.477189 193.309879 
z
" style="fill:#d62728;"/>
   </g>
   <g id="patch_6">
    <path clip-path="url(#pc1e2576e45)" d="M 245.01816 279.120854 
L 292.650936 279.120854 
L 292.650936 181.590115 
L 245.01816 181.590115 
z
" style="fill:#9467bd;"/>
   </g>
   <g id="patch_7">
    <path clip-path="url(#pc1e2576e45)" d="M 304.559131 279.120854 
L 352.191907 279.120854 
L 352.191907 225.29417 
L 304.559131 225.29417 
z
" style="fill:#8c564b;"/>
   </g>
   <g id="patch_8">
    <path clip-path="url(#pc1e2576e45)" d="M 364.100102 279.120854 
L 411.732878 279.120854 
L 411.732878 151.221361 
L 364.100102 151.221361 
z
" style="fill:#e377c2;"/>
   </g>
   <g id="matplotlib.axis_1"/>
   <g id="matplotlib.axis_2">
    <g id="ytick_1">
     <g id="line2d_1">
      <defs>
       <path d="M 0 0 
L -3.5 0 
" id="m062d7cdbe7" style="stroke:#000000;stroke-width:0.8;"/>
      </defs>
      <g>
       <use style="stroke:#000000;stroke-width:0.8;" x="49.128365" xlink:href="#m062d7cdbe7" y="279.120854"/>
      </g>
     </g>
     <g id="text_1">
      <!-- 0 -->
      <g transform="translate(35.765865 282.920073)scale(0.1 -0.1)">
       <defs>
        <path d="M 2034 4250 
Q 1547 4250 1301 3770 
Q 1056 3291 1056 2328 
Q 1056 1369 1301 889 
Q 1547 409 2034 409 
Q 2525 409 2770 889 
Q 3016 1369 3016 2328 
Q 3016 3291 2770 3770 
Q 2525 4250 2034 4250 
z
M 2034 4750 
Q 2819 4750 3233 4129 
Q 3647 3509 3647 2328 
Q 3647 1150 3233 529 
Q 2819 -91 2034 -91 
Q 1250 -91 836 529 
Q 422 1150 422 2328 
Q 422 3509 836 4129 
Q 1250 4750 2034 4750 
z
" id="DejaVuSans-30" transform="scale(0.015625)"/>
       </defs>
       <use xlink:href="#DejaVuSans-30"/>
      </g>
     </g>
    </g>
    <g id="ytick_2">
     <g id="line2d_2">
      <g>
       <use style="stroke:#000000;stroke-width:0.8;" x="49.128365" xlink:href="#m062d7cdbe7" y="224.657145"/>
      </g>
     </g>
     <g id="text_2">
      <!-- 1000 -->
      <g transform="translate(16.678365 228.456364)scale(0.1 -0.1)">
       <defs>
        <path d="M 794 531 
L 1825 531 
L 1825 4091 
L 703 3866 
L 703 4441 
L 1819 4666 
L 2450 4666 
L 2450 531 
L 3481 531 
L 3481 0 
L 794 0 
L 794 531 
z
" id="DejaVuSans-31" transform="scale(0.015625)"/>
       </defs>
       <use xlink:href="#DejaVuSans-31"/>
       <use x="63.623047" xlink:href="#DejaVuSans-30"/>
       <use x="127.246094" xlink:href="#DejaVuSans-30"/>
       <use x="190.869141" xlink:href="#DejaVuSans-30"/>
      </g>
     </g>
    </g>
    <g id="ytick_3">
     <g id="line2d_3">
      <g>
       <use style="stroke:#000000;stroke-width:0.8;" x="49.128365" xlink:href="#m062d7cdbe7" y="170.193437"/>
      </g>
     </g>
     <g id="text_3">
      <!-- 2000 -->
      <g transform="translate(16.678365 173.992656)scale(0.1 -0.1)">
       <defs>
        <path d="M 1228 531 
L 3431 531 
L 3431 0 
L 469 0 
L 469 531 
Q 828 903 1448 1529 
Q 2069 2156 2228 2338 
Q 2531 2678 2651 2914 
Q 2772 3150 2772 3378 
Q 2772 3750 2511 3984 
Q 2250 4219 1831 4219 
Q 1534 4219 1204 4116 
Q 875 4013 500 3803 
L 500 4441 
Q 881 4594 1212 4672 
Q 1544 4750 1819 4750 
Q 2544 4750 2975 4387 
Q 3406 4025 3406 3419 
Q 3406 3131 3298 2873 
Q 3191 2616 2906 2266 
Q 2828 2175 2409 1742 
Q 1991 1309 1228 531 
z
" id="DejaVuSans-32" transform="scale(0.015625)"/>
       </defs>
       <use xlink:href="#DejaVuSans-32"/>
       <use x="63.623047" xlink:href="#DejaVuSans-30"/>
       <use x="127.246094" xlink:href="#DejaVuSans-30"/>
       <use x="190.869141" xlink:href="#DejaVuSans-30"/>
      </g>
     </g>
    </g>
    <g id="ytick_4">
     <g id="line2d_4">
      <g>
       <use style="stroke:#000000;stroke-width:0.8;" x="49.128365" xlink:href="#m062d7cdbe7" y="115.729729"/>
      </g>
     </g>
     <g id="text_4">
      <!-- 3000 -->
      <g transform="translate(16.678365 119.528947)scale(0.1 -0.1)">
       <defs>
        <path d="M 2597 2516 
Q 3050 2419 3304 2112 
Q 3559 1806 3559 1356 
Q 3559 666 3084 287 
Q 2609 -91 1734 -91 
Q 1441 -91 1130 -33 
Q 819 25 488 141 
L 488 750 
Q 750 597 1062 519 
Q 1375 441 1716 441 
Q 2309 441 2620 675 
Q 2931 909 2931 1356 
Q 2931 1769 2642 2001 
Q 2353 2234 1838 2234 
L 1294 2234 
L 1294 2753 
L 1863 2753 
Q 2328 2753 2575 2939 
Q 2822 3125 2822 3475 
Q 2822 3834 2567 4026 
Q 2313 4219 1838 4219 
Q 1578 4219 1281 4162 
Q 984 4106 628 3988 
L 628 4550 
Q 988 4650 1302 4700 
Q 1616 4750 1894 4750 
Q 2613 4750 3031 4423 
Q 3450 4097 3450 3541 
Q 3450 3153 3228 2886 
Q 3006 2619 2597 2516 
z
" id="DejaVuSans-33" transform="scale(0.015625)"/>
       </defs>
       <use xlink:href="#DejaVuSans-33"/>
       <use x="63.623047" xlink:href="#DejaVuSans-30"/>
       <use x="127.246094" xlink:href="#DejaVuSans-30"/>
       <use x="190.869141" xlink:href="#DejaVuSans-30"/>
      </g>
     </g>
    </g>
    <g id="ytick_5">
     <g id="line2d_5">
      <g>
       <use style="stroke:#000000;stroke-width:0.8;" x="49.128365" xlink:href="#m062d7cdbe7" y="61.26602"/>
      </g>
     </g>
     <g id="text_5">
      <!-- 4000 -->
      <g transform="translate(16.678365 65.065239)scale(0.1 -0.1)">
       <defs>
        <path d="M 2419 4116 
L 825 1625 
L 2419 1625 
L 2419 4116 
z
M 2253 4666 
L 3047 4666 
L 3047 1625 
L 3713 1625 
L 3713 1100 
L 3047 1100 
L 3047 0 
L 2419 0 
L 2419 1100 
L 313 1100 
L 313 1709 
L 2253 4666 
z
" id="DejaVuSans-34" transform="scale(0.015625)"/>
       </defs>
       <use xlink:href="#DejaVuSans-34"/>
       <use x="63.623047" xlink:href="#DejaVuSans-30"/>
       <use x="127.246094" xlink:href="#DejaVuSans-30"/>
       <use x="190.869141" xlink:href="#DejaVuSans-30"/>
      </g>
     </g>
    </g>
    <g id="ytick_6">
     <g id="line2d_6">
      <g>
       <use style="stroke:#000000;stroke-width:0.8;" x="49.128365" xlink:href="#m062d7cdbe7" y="6.802312"/>
      </g>
     </g>
     <g id="text_6">
      <!-- 5000 -->
      <g transform="translate(16.678365 10.601531)scale(0.1 -0.1)">
       <defs>
        <path d="M 691 4666 
L 3169 4666 
L 3169 4134 
L 1269 4134 
L 1269 2991 
Q 1406 3038 1543 3061 
Q 1681 3084 1819 3084 
Q 2600 3084 3056 2656 
Q 3513 2228 3513 1497 
Q 3513 744 3044 326 
Q 2575 -91 1722 -91 
Q 1428 -91 1123 -41 
Q 819 9 494 109 
L 494 744 
Q 775 591 1075 516 
Q 1375 441 1709 441 
Q 2250 441 2565 725 
Q 2881 1009 2881 1497 
Q 2881 1984 2565 2268 
Q 2250 2553 1709 2553 
Q 1456 2553 1204 2497 
Q 953 2441 691 2322 
L 691 4666 
z
" id="DejaVuSans-35" transform="scale(0.015625)"/>
       </defs>
       <use xlink:href="#DejaVuSans-35"/>
       <use x="63.623047" xlink:href="#DejaVuSans-30"/>
       <use x="127.246094" xlink:href="#DejaVuSans-30"/>
       <use x="190.869141" xlink:href="#DejaVuSans-30"/>
      </g>
     </g>
    </g>
    <g id="text_7">
     <!-- average peak power specta -->
     <g transform="translate(10.598678 211.517718)rotate(-90)scale(0.1 -0.1)">
      <defs>
       <path d="M 2194 1759 
Q 1497 1759 1228 1600 
Q 959 1441 959 1056 
Q 959 750 1161 570 
Q 1363 391 1709 391 
Q 2188 391 2477 730 
Q 2766 1069 2766 1631 
L 2766 1759 
L 2194 1759 
z
M 3341 1997 
L 3341 0 
L 2766 0 
L 2766 531 
Q 2569 213 2275 61 
Q 1981 -91 1556 -91 
Q 1019 -91 701 211 
Q 384 513 384 1019 
Q 384 1609 779 1909 
Q 1175 2209 1959 2209 
L 2766 2209 
L 2766 2266 
Q 2766 2663 2505 2880 
Q 2244 3097 1772 3097 
Q 1472 3097 1187 3025 
Q 903 2953 641 2809 
L 641 3341 
Q 956 3463 1253 3523 
Q 1550 3584 1831 3584 
Q 2591 3584 2966 3190 
Q 3341 2797 3341 1997 
z
" id="DejaVuSans-61" transform="scale(0.015625)"/>
       <path d="M 191 3500 
L 800 3500 
L 1894 563 
L 2988 3500 
L 3597 3500 
L 2284 0 
L 1503 0 
L 191 3500 
z
" id="DejaVuSans-76" transform="scale(0.015625)"/>
       <path d="M 3597 1894 
L 3597 1613 
L 953 1613 
Q 991 1019 1311 708 
Q 1631 397 2203 397 
Q 2534 397 2845 478 
Q 3156 559 3463 722 
L 3463 178 
Q 3153 47 2828 -22 
Q 2503 -91 2169 -91 
Q 1331 -91 842 396 
Q 353 884 353 1716 
Q 353 2575 817 3079 
Q 1281 3584 2069 3584 
Q 2775 3584 3186 3129 
Q 3597 2675 3597 1894 
z
M 3022 2063 
Q 3016 2534 2758 2815 
Q 2500 3097 2075 3097 
Q 1594 3097 1305 2825 
Q 1016 2553 972 2059 
L 3022 2063 
z
" id="DejaVuSans-65" transform="scale(0.015625)"/>
       <path d="M 2631 2963 
Q 2534 3019 2420 3045 
Q 2306 3072 2169 3072 
Q 1681 3072 1420 2755 
Q 1159 2438 1159 1844 
L 1159 0 
L 581 0 
L 581 3500 
L 1159 3500 
L 1159 2956 
Q 1341 3275 1631 3429 
Q 1922 3584 2338 3584 
Q 2397 3584 2469 3576 
Q 2541 3569 2628 3553 
L 2631 2963 
z
" id="DejaVuSans-72" transform="scale(0.015625)"/>
       <path d="M 2906 1791 
Q 2906 2416 2648 2759 
Q 2391 3103 1925 3103 
Q 1463 3103 1205 2759 
Q 947 2416 947 1791 
Q 947 1169 1205 825 
Q 1463 481 1925 481 
Q 2391 481 2648 825 
Q 2906 1169 2906 1791 
z
M 3481 434 
Q 3481 -459 3084 -895 
Q 2688 -1331 1869 -1331 
Q 1566 -1331 1297 -1286 
Q 1028 -1241 775 -1147 
L 775 -588 
Q 1028 -725 1275 -790 
Q 1522 -856 1778 -856 
Q 2344 -856 2625 -561 
Q 2906 -266 2906 331 
L 2906 616 
Q 2728 306 2450 153 
Q 2172 0 1784 0 
Q 1141 0 747 490 
Q 353 981 353 1791 
Q 353 2603 747 3093 
Q 1141 3584 1784 3584 
Q 2172 3584 2450 3431 
Q 2728 3278 2906 2969 
L 2906 3500 
L 3481 3500 
L 3481 434 
z
" id="DejaVuSans-67" transform="scale(0.015625)"/>
       <path id="DejaVuSans-20" transform="scale(0.015625)"/>
       <path d="M 1159 525 
L 1159 -1331 
L 581 -1331 
L 581 3500 
L 1159 3500 
L 1159 2969 
Q 1341 3281 1617 3432 
Q 1894 3584 2278 3584 
Q 2916 3584 3314 3078 
Q 3713 2572 3713 1747 
Q 3713 922 3314 415 
Q 2916 -91 2278 -91 
Q 1894 -91 1617 61 
Q 1341 213 1159 525 
z
M 3116 1747 
Q 3116 2381 2855 2742 
Q 2594 3103 2138 3103 
Q 1681 3103 1420 2742 
Q 1159 2381 1159 1747 
Q 1159 1113 1420 752 
Q 1681 391 2138 391 
Q 2594 391 2855 752 
Q 3116 1113 3116 1747 
z
" id="DejaVuSans-70" transform="scale(0.015625)"/>
       <path d="M 581 4863 
L 1159 4863 
L 1159 1991 
L 2875 3500 
L 3609 3500 
L 1753 1863 
L 3688 0 
L 2938 0 
L 1159 1709 
L 1159 0 
L 581 0 
L 581 4863 
z
" id="DejaVuSans-6b" transform="scale(0.015625)"/>
       <path d="M 1959 3097 
Q 1497 3097 1228 2736 
Q 959 2375 959 1747 
Q 959 1119 1226 758 
Q 1494 397 1959 397 
Q 2419 397 2687 759 
Q 2956 1122 2956 1747 
Q 2956 2369 2687 2733 
Q 2419 3097 1959 3097 
z
M 1959 3584 
Q 2709 3584 3137 3096 
Q 3566 2609 3566 1747 
Q 3566 888 3137 398 
Q 2709 -91 1959 -91 
Q 1206 -91 779 398 
Q 353 888 353 1747 
Q 353 2609 779 3096 
Q 1206 3584 1959 3584 
z
" id="DejaVuSans-6f" transform="scale(0.015625)"/>
       <path d="M 269 3500 
L 844 3500 
L 1563 769 
L 2278 3500 
L 2956 3500 
L 3675 769 
L 4391 3500 
L 4966 3500 
L 4050 0 
L 3372 0 
L 2619 2869 
L 1863 0 
L 1184 0 
L 269 3500 
z
" id="DejaVuSans-77" transform="scale(0.015625)"/>
       <path d="M 2834 3397 
L 2834 2853 
Q 2591 2978 2328 3040 
Q 2066 3103 1784 3103 
Q 1356 3103 1142 2972 
Q 928 2841 928 2578 
Q 928 2378 1081 2264 
Q 1234 2150 1697 2047 
L 1894 2003 
Q 2506 1872 2764 1633 
Q 3022 1394 3022 966 
Q 3022 478 2636 193 
Q 2250 -91 1575 -91 
Q 1294 -91 989 -36 
Q 684 19 347 128 
L 347 722 
Q 666 556 975 473 
Q 1284 391 1588 391 
Q 1994 391 2212 530 
Q 2431 669 2431 922 
Q 2431 1156 2273 1281 
Q 2116 1406 1581 1522 
L 1381 1569 
Q 847 1681 609 1914 
Q 372 2147 372 2553 
Q 372 3047 722 3315 
Q 1072 3584 1716 3584 
Q 2034 3584 2315 3537 
Q 2597 3491 2834 3397 
z
" id="DejaVuSans-73" transform="scale(0.015625)"/>
       <path d="M 3122 3366 
L 3122 2828 
Q 2878 2963 2633 3030 
Q 2388 3097 2138 3097 
Q 1578 3097 1268 2742 
Q 959 2388 959 1747 
Q 959 1106 1268 751 
Q 1578 397 2138 397 
Q 2388 397 2633 464 
Q 2878 531 3122 666 
L 3122 134 
Q 2881 22 2623 -34 
Q 2366 -91 2075 -91 
Q 1284 -91 818 406 
Q 353 903 353 1747 
Q 353 2603 823 3093 
Q 1294 3584 2113 3584 
Q 2378 3584 2631 3529 
Q 2884 3475 3122 3366 
z
" id="DejaVuSans-63" transform="scale(0.015625)"/>
       <path d="M 1172 4494 
L 1172 3500 
L 2356 3500 
L 2356 3053 
L 1172 3053 
L 1172 1153 
Q 1172 725 1289 603 
Q 1406 481 1766 481 
L 2356 481 
L 2356 0 
L 1766 0 
Q 1100 0 847 248 
Q 594 497 594 1153 
L 594 3053 
L 172 3053 
L 172 3500 
L 594 3500 
L 594 4494 
L 1172 4494 
z
" id="DejaVuSans-74" transform="scale(0.015625)"/>
      </defs>
      <use xlink:href="#DejaVuSans-61"/>
      <use x="61.279297" xlink:href="#DejaVuSans-76"/>
      <use x="120.458984" xlink:href="#DejaVuSans-65"/>
      <use x="181.982422" xlink:href="#DejaVuSans-72"/>
      <use x="223.095703" xlink:href="#DejaVuSans-61"/>
      <use x="284.375" xlink:href="#DejaVuSans-67"/>
      <use x="347.851562" xlink:href="#DejaVuSans-65"/>
      <use x="409.375" xlink:href="#DejaVuSans-20"/>
      <use x="441.162109" xlink:href="#DejaVuSans-70"/>
      <use x="504.638672" xlink:href="#DejaVuSans-65"/>
      <use x="566.162109" xlink:href="#DejaVuSans-61"/>
      <use x="627.441406" xlink:href="#DejaVuSans-6b"/>
      <use x="685.351562" xlink:href="#DejaVuSans-20"/>
      <use x="717.138672" xlink:href="#DejaVuSans-70"/>
      <use x="780.615234" xlink:href="#DejaVuSans-6f"/>
      <use x="841.796875" xlink:href="#DejaVuSans-77"/>
      <use x="923.583984" xlink:href="#DejaVuSans-65"/>
      <use x="985.107422" xlink:href="#DejaVuSans-72"/>
      <use x="1026.220703" xlink:href="#DejaVuSans-20"/>
      <use x="1058.007812" xlink:href="#DejaVuSans-73"/>
      <use x="1110.107422" xlink:href="#DejaVuSans-70"/>
      <use x="1173.583984" xlink:href="#DejaVuSans-65"/>
      <use x="1235.107422" xlink:href="#DejaVuSans-63"/>
      <use x="1290.087891" xlink:href="#DejaVuSans-74"/>
      <use x="1329.296875" xlink:href="#DejaVuSans-61"/>
     </g>
    </g>
   </g>
   <g id="LineCollection_1">
    <path clip-path="url(#pc1e2576e45)" d="M 90.211635 165.675987 
L 90.211635 17.912499 
" style="fill:none;stroke:#000000;stroke-width:1.5;"/>
    <path clip-path="url(#pc1e2576e45)" d="M 149.752606 219.16307 
L 149.752606 170.387764 
" style="fill:none;stroke:#000000;stroke-width:1.5;"/>
    <path clip-path="url(#pc1e2576e45)" d="M 209.293577 243.967746 
L 209.293577 142.652013 
" style="fill:none;stroke:#000000;stroke-width:1.5;"/>
    <path clip-path="url(#pc1e2576e45)" d="M 268.834548 238.517197 
L 268.834548 124.663033 
" style="fill:none;stroke:#000000;stroke-width:1.5;"/>
    <path clip-path="url(#pc1e2576e45)" d="M 328.375519 232.918334 
L 328.375519 217.670005 
" style="fill:none;stroke:#000000;stroke-width:1.5;"/>
    <path clip-path="url(#pc1e2576e45)" d="M 387.91649 222.158995 
L 387.91649 80.283726 
" style="fill:none;stroke:#000000;stroke-width:1.5;"/>
   </g>
   <g id="line2d_7">
    <defs>
     <path d="M 5 0 
L -5 -0 
" id="me8696facd3" style="stroke:#000000;"/>
    </defs>
    <g clip-path="url(#pc1e2576e45)">
     <use style="stroke:#000000;" x="90.211635" xlink:href="#me8696facd3" y="165.675987"/>
     <use style="stroke:#000000;" x="149.752606" xlink:href="#me8696facd3" y="219.16307"/>
     <use style="stroke:#000000;" x="209.293577" xlink:href="#me8696facd3" y="243.967746"/>
     <use style="stroke:#000000;" x="268.834548" xlink:href="#me8696facd3" y="238.517197"/>
     <use style="stroke:#000000;" x="328.375519" xlink:href="#me8696facd3" y="232.918334"/>
     <use style="stroke:#000000;" x="387.91649" xlink:href="#me8696facd3" y="222.158995"/>
    </g>
   </g>
   <g id="line2d_8">
    <g clip-path="url(#pc1e2576e45)">
     <use style="stroke:#000000;" x="90.211635" xlink:href="#me8696facd3" y="17.912499"/>
     <use style="stroke:#000000;" x="149.752606" xlink:href="#me8696facd3" y="170.387764"/>
     <use style="stroke:#000000;" x="209.293577" xlink:href="#me8696facd3" y="142.652013"/>
     <use style="stroke:#000000;" x="268.834548" xlink:href="#me8696facd3" y="124.663033"/>
     <use style="stroke:#000000;" x="328.375519" xlink:href="#me8696facd3" y="217.670005"/>
     <use style="stroke:#000000;" x="387.91649" xlink:href="#me8696facd3" y="80.283726"/>
    </g>
   </g>
   <g id="line2d_9">
    <path clip-path="url(#pc1e2576e45)" d="M 90.211635 279.120854 
L 149.752606 279.120854 
" style="fill:none;stroke:#ff7f0e;stroke-linecap:square;stroke-width:1.5;"/>
   </g>
   <g id="line2d_10">
    <path clip-path="url(#pc1e2576e45)" d="M 90.211635 279.120854 
L 149.752606 279.120854 
" style="fill:none;stroke:#2ca02c;stroke-linecap:square;stroke-width:1.5;"/>
   </g>
   <g id="line2d_11">
    <path clip-path="url(#pc1e2576e45)" d="M 90.211635 279.120854 
L 149.752606 279.120854 
" style="fill:none;stroke:#d62728;stroke-linecap:square;stroke-width:1.5;"/>
   </g>
   <g id="line2d_12">
    <path clip-path="url(#pc1e2576e45)" d="M 90.211635 279.120854 
L 149.752606 279.120854 
" style="fill:none;stroke:#9467bd;stroke-linecap:square;stroke-width:1.5;"/>
   </g>
   <g id="line2d_13">
    <path clip-path="url(#pc1e2576e45)" d="M 90.211635 279.120854 
L 149.752606 279.120854 
" style="fill:none;stroke:#8c564b;stroke-linecap:square;stroke-width:1.5;"/>
   </g>
   <g id="line2d_14">
    <path clip-path="url(#pc1e2576e45)" d="M 90.211635 279.120854 
L 149.752606 279.120854 
" style="fill:none;stroke:#e377c2;stroke-linecap:square;stroke-width:1.5;"/>
   </g>
   <g id="patch_9">
    <path d="M 49.128365 279.120854 
L 49.128365 4.852082 
" style="fill:none;stroke:#000000;stroke-linecap:square;stroke-linejoin:miter;stroke-width:0.8;"/>
   </g>
   <g id="patch_10">
    <path d="M 428.99976 279.120854 
L 428.99976 4.852082 
" style="fill:none;stroke:#000000;stroke-linecap:square;stroke-linejoin:miter;stroke-width:0.8;"/>
   </g>
   <g id="patch_11">
    <path d="M 49.128365 279.120854 
L 428.99976 279.120854 
" style="fill:none;stroke:#000000;stroke-linecap:square;stroke-linejoin:miter;stroke-width:0.8;"/>
   </g>
   <g id="patch_12">
    <path d="M 49.128365 4.852082 
L 428.99976 4.852082 
" style="fill:none;stroke:#000000;stroke-linecap:square;stroke-linejoin:miter;stroke-width:0.8;"/>
   </g>
   <g id="legend_1">
    <g id="patch_13">
     <path d="M 307.527885 100.920832 
L 421.99976 100.920832 
Q 423.99976 100.920832 423.99976 98.920832 
L 423.99976 11.852082 
Q 423.99976 9.852082 421.99976 9.852082 
L 307.527885 9.852082 
Q 305.527885 9.852082 305.527885 11.852082 
L 305.527885 98.920832 
Q 305.527885 100.920832 307.527885 100.920832 
z
" style="fill:#ffffff;opacity:0.8;stroke:#cccccc;stroke-linejoin:miter;"/>
    </g>
    <g id="line2d_15">
     <path d="M 309.527885 17.950519 
L 329.527885 17.950519 
" style="fill:none;stroke:#ff7f0e;stroke-linecap:square;stroke-width:1.5;"/>
    </g>
    <g id="line2d_16"/>
    <g id="text_8">
     <!-- 3-octanol -->
     <g transform="translate(337.527885 21.450519)scale(0.1 -0.1)">
      <defs>
       <path d="M 313 2009 
L 1997 2009 
L 1997 1497 
L 313 1497 
L 313 2009 
z
" id="DejaVuSans-2d" transform="scale(0.015625)"/>
       <path d="M 3513 2113 
L 3513 0 
L 2938 0 
L 2938 2094 
Q 2938 2591 2744 2837 
Q 2550 3084 2163 3084 
Q 1697 3084 1428 2787 
Q 1159 2491 1159 1978 
L 1159 0 
L 581 0 
L 581 3500 
L 1159 3500 
L 1159 2956 
Q 1366 3272 1645 3428 
Q 1925 3584 2291 3584 
Q 2894 3584 3203 3211 
Q 3513 2838 3513 2113 
z
" id="DejaVuSans-6e" transform="scale(0.015625)"/>
       <path d="M 603 4863 
L 1178 4863 
L 1178 0 
L 603 0 
L 603 4863 
z
" id="DejaVuSans-6c" transform="scale(0.015625)"/>
      </defs>
      <use xlink:href="#DejaVuSans-33"/>
      <use x="63.623047" xlink:href="#DejaVuSans-2d"/>
      <use x="101.582031" xlink:href="#DejaVuSans-6f"/>
      <use x="162.763672" xlink:href="#DejaVuSans-63"/>
      <use x="217.744141" xlink:href="#DejaVuSans-74"/>
      <use x="256.953125" xlink:href="#DejaVuSans-61"/>
      <use x="318.232422" xlink:href="#DejaVuSans-6e"/>
      <use x="381.611328" xlink:href="#DejaVuSans-6f"/>
      <use x="442.792969" xlink:href="#DejaVuSans-6c"/>
     </g>
    </g>
    <g id="line2d_17">
     <path d="M 309.527885 32.628644 
L 329.527885 32.628644 
" style="fill:none;stroke:#2ca02c;stroke-linecap:square;stroke-width:1.5;"/>
    </g>
    <g id="line2d_18"/>
    <g id="text_9">
     <!-- cis-3-hexenol -->
     <g transform="translate(337.527885 36.128644)scale(0.1 -0.1)">
      <defs>
       <path d="M 603 3500 
L 1178 3500 
L 1178 0 
L 603 0 
L 603 3500 
z
M 603 4863 
L 1178 4863 
L 1178 4134 
L 603 4134 
L 603 4863 
z
" id="DejaVuSans-69" transform="scale(0.015625)"/>
       <path d="M 3513 2113 
L 3513 0 
L 2938 0 
L 2938 2094 
Q 2938 2591 2744 2837 
Q 2550 3084 2163 3084 
Q 1697 3084 1428 2787 
Q 1159 2491 1159 1978 
L 1159 0 
L 581 0 
L 581 4863 
L 1159 4863 
L 1159 2956 
Q 1366 3272 1645 3428 
Q 1925 3584 2291 3584 
Q 2894 3584 3203 3211 
Q 3513 2838 3513 2113 
z
" id="DejaVuSans-68" transform="scale(0.015625)"/>
       <path d="M 3513 3500 
L 2247 1797 
L 3578 0 
L 2900 0 
L 1881 1375 
L 863 0 
L 184 0 
L 1544 1831 
L 300 3500 
L 978 3500 
L 1906 2253 
L 2834 3500 
L 3513 3500 
z
" id="DejaVuSans-78" transform="scale(0.015625)"/>
      </defs>
      <use xlink:href="#DejaVuSans-63"/>
      <use x="54.980469" xlink:href="#DejaVuSans-69"/>
      <use x="82.763672" xlink:href="#DejaVuSans-73"/>
      <use x="134.863281" xlink:href="#DejaVuSans-2d"/>
      <use x="170.947266" xlink:href="#DejaVuSans-33"/>
      <use x="234.570312" xlink:href="#DejaVuSans-2d"/>
      <use x="270.654297" xlink:href="#DejaVuSans-68"/>
      <use x="334.033203" xlink:href="#DejaVuSans-65"/>
      <use x="393.806641" xlink:href="#DejaVuSans-78"/>
      <use x="449.861328" xlink:href="#DejaVuSans-65"/>
      <use x="511.384766" xlink:href="#DejaVuSans-6e"/>
      <use x="574.763672" xlink:href="#DejaVuSans-6f"/>
      <use x="635.945312" xlink:href="#DejaVuSans-6c"/>
     </g>
    </g>
    <g id="line2d_19">
     <path d="M 309.527885 47.306769 
L 329.527885 47.306769 
" style="fill:none;stroke:#d62728;stroke-linecap:square;stroke-width:1.5;"/>
    </g>
    <g id="line2d_20"/>
    <g id="text_10">
     <!-- cyclohexanone -->
     <g transform="translate(337.527885 50.806769)scale(0.1 -0.1)">
      <defs>
       <path d="M 2059 -325 
Q 1816 -950 1584 -1140 
Q 1353 -1331 966 -1331 
L 506 -1331 
L 506 -850 
L 844 -850 
Q 1081 -850 1212 -737 
Q 1344 -625 1503 -206 
L 1606 56 
L 191 3500 
L 800 3500 
L 1894 763 
L 2988 3500 
L 3597 3500 
L 2059 -325 
z
" id="DejaVuSans-79" transform="scale(0.015625)"/>
      </defs>
      <use xlink:href="#DejaVuSans-63"/>
      <use x="54.980469" xlink:href="#DejaVuSans-79"/>
      <use x="114.160156" xlink:href="#DejaVuSans-63"/>
      <use x="169.140625" xlink:href="#DejaVuSans-6c"/>
      <use x="196.923828" xlink:href="#DejaVuSans-6f"/>
      <use x="258.105469" xlink:href="#DejaVuSans-68"/>
      <use x="321.484375" xlink:href="#DejaVuSans-65"/>
      <use x="381.257812" xlink:href="#DejaVuSans-78"/>
      <use x="440.4375" xlink:href="#DejaVuSans-61"/>
      <use x="501.716797" xlink:href="#DejaVuSans-6e"/>
      <use x="565.095703" xlink:href="#DejaVuSans-6f"/>
      <use x="626.277344" xlink:href="#DejaVuSans-6e"/>
      <use x="689.65625" xlink:href="#DejaVuSans-65"/>
     </g>
    </g>
    <g id="line2d_21">
     <path d="M 309.527885 61.984894 
L 329.527885 61.984894 
" style="fill:none;stroke:#9467bd;stroke-linecap:square;stroke-width:1.5;"/>
    </g>
    <g id="line2d_22"/>
    <g id="text_11">
     <!-- 2,3-butanedione -->
     <g transform="translate(337.527885 65.484894)scale(0.1 -0.1)">
      <defs>
       <path d="M 750 794 
L 1409 794 
L 1409 256 
L 897 -744 
L 494 -744 
L 750 256 
L 750 794 
z
" id="DejaVuSans-2c" transform="scale(0.015625)"/>
       <path d="M 3116 1747 
Q 3116 2381 2855 2742 
Q 2594 3103 2138 3103 
Q 1681 3103 1420 2742 
Q 1159 2381 1159 1747 
Q 1159 1113 1420 752 
Q 1681 391 2138 391 
Q 2594 391 2855 752 
Q 3116 1113 3116 1747 
z
M 1159 2969 
Q 1341 3281 1617 3432 
Q 1894 3584 2278 3584 
Q 2916 3584 3314 3078 
Q 3713 2572 3713 1747 
Q 3713 922 3314 415 
Q 2916 -91 2278 -91 
Q 1894 -91 1617 61 
Q 1341 213 1159 525 
L 1159 0 
L 581 0 
L 581 4863 
L 1159 4863 
L 1159 2969 
z
" id="DejaVuSans-62" transform="scale(0.015625)"/>
       <path d="M 544 1381 
L 544 3500 
L 1119 3500 
L 1119 1403 
Q 1119 906 1312 657 
Q 1506 409 1894 409 
Q 2359 409 2629 706 
Q 2900 1003 2900 1516 
L 2900 3500 
L 3475 3500 
L 3475 0 
L 2900 0 
L 2900 538 
Q 2691 219 2414 64 
Q 2138 -91 1772 -91 
Q 1169 -91 856 284 
Q 544 659 544 1381 
z
M 1991 3584 
L 1991 3584 
z
" id="DejaVuSans-75" transform="scale(0.015625)"/>
       <path d="M 2906 2969 
L 2906 4863 
L 3481 4863 
L 3481 0 
L 2906 0 
L 2906 525 
Q 2725 213 2448 61 
Q 2172 -91 1784 -91 
Q 1150 -91 751 415 
Q 353 922 353 1747 
Q 353 2572 751 3078 
Q 1150 3584 1784 3584 
Q 2172 3584 2448 3432 
Q 2725 3281 2906 2969 
z
M 947 1747 
Q 947 1113 1208 752 
Q 1469 391 1925 391 
Q 2381 391 2643 752 
Q 2906 1113 2906 1747 
Q 2906 2381 2643 2742 
Q 2381 3103 1925 3103 
Q 1469 3103 1208 2742 
Q 947 2381 947 1747 
z
" id="DejaVuSans-64" transform="scale(0.015625)"/>
      </defs>
      <use xlink:href="#DejaVuSans-32"/>
      <use x="63.623047" xlink:href="#DejaVuSans-2c"/>
      <use x="95.410156" xlink:href="#DejaVuSans-33"/>
      <use x="159.033203" xlink:href="#DejaVuSans-2d"/>
      <use x="195.117188" xlink:href="#DejaVuSans-62"/>
      <use x="258.59375" xlink:href="#DejaVuSans-75"/>
      <use x="321.972656" xlink:href="#DejaVuSans-74"/>
      <use x="361.181641" xlink:href="#DejaVuSans-61"/>
      <use x="422.460938" xlink:href="#DejaVuSans-6e"/>
      <use x="485.839844" xlink:href="#DejaVuSans-65"/>
      <use x="547.363281" xlink:href="#DejaVuSans-64"/>
      <use x="610.839844" xlink:href="#DejaVuSans-69"/>
      <use x="638.623047" xlink:href="#DejaVuSans-6f"/>
      <use x="699.804688" xlink:href="#DejaVuSans-6e"/>
      <use x="763.183594" xlink:href="#DejaVuSans-65"/>
     </g>
    </g>
    <g id="line2d_23">
     <path d="M 309.527885 76.663019 
L 329.527885 76.663019 
" style="fill:none;stroke:#8c564b;stroke-linecap:square;stroke-width:1.5;"/>
    </g>
    <g id="line2d_24"/>
    <g id="text_12">
     <!-- 2-hexanol -->
     <g transform="translate(337.527885 80.163019)scale(0.1 -0.1)">
      <use xlink:href="#DejaVuSans-32"/>
      <use x="63.623047" xlink:href="#DejaVuSans-2d"/>
      <use x="99.707031" xlink:href="#DejaVuSans-68"/>
      <use x="163.085938" xlink:href="#DejaVuSans-65"/>
      <use x="222.859375" xlink:href="#DejaVuSans-78"/>
      <use x="282.039062" xlink:href="#DejaVuSans-61"/>
      <use x="343.318359" xlink:href="#DejaVuSans-6e"/>
      <use x="406.697266" xlink:href="#DejaVuSans-6f"/>
      <use x="467.878906" xlink:href="#DejaVuSans-6c"/>
     </g>
    </g>
    <g id="line2d_25">
     <path d="M 309.527885 91.341144 
L 329.527885 91.341144 
" style="fill:none;stroke:#e377c2;stroke-linecap:square;stroke-width:1.5;"/>
    </g>
    <g id="line2d_26"/>
    <g id="text_13">
     <!-- ethyl butyrate -->
     <g transform="translate(337.527885 94.841144)scale(0.1 -0.1)">
      <use xlink:href="#DejaVuSans-65"/>
      <use x="61.523438" xlink:href="#DejaVuSans-74"/>
      <use x="100.732422" xlink:href="#DejaVuSans-68"/>
      <use x="164.111328" xlink:href="#DejaVuSans-79"/>
      <use x="223.291016" xlink:href="#DejaVuSans-6c"/>
      <use x="251.074219" xlink:href="#DejaVuSans-20"/>
      <use x="282.861328" xlink:href="#DejaVuSans-62"/>
      <use x="346.337891" xlink:href="#DejaVuSans-75"/>
      <use x="409.716797" xlink:href="#DejaVuSans-74"/>
      <use x="448.925781" xlink:href="#DejaVuSans-79"/>
      <use x="508.105469" xlink:href="#DejaVuSans-72"/>
      <use x="549.21875" xlink:href="#DejaVuSans-61"/>
      <use x="610.498047" xlink:href="#DejaVuSans-74"/>
      <use x="649.707031" xlink:href="#DejaVuSans-65"/>
     </g>
    </g>
   </g>
  </g>
 </g>
 <defs>
  <clipPath id="pc1e2576e45">
   <rect height="274.268772" width="379.871395" x="49.128365" y="4.852082"/>
  </clipPath>
 </defs>
</svg>
