<?xml version="1.0" encoding="utf-8" standalone="no"?>
<!DOCTYPE svg PUBLIC "-//W3C//DTD SVG 1.1//EN"
  "http://www.w3.org/Graphics/SVG/1.1/DTD/svg11.dtd">
<svg height="144pt" version="1.1" viewBox="0 0 792 144" width="792pt" xmlns="http://www.w3.org/2000/svg" xmlns:xlink="http://www.w3.org/1999/xlink">
 <metadata>
  <rdf:RDF xmlns:cc="http://creativecommons.org/ns#" xmlns:dc="http://purl.org/dc/elements/1.1/" xmlns:rdf="http://www.w3.org/1999/02/22-rdf-syntax-ns#">
   <cc:Work>
    <dc:type rdf:resource="http://purl.org/dc/dcmitype/StillImage"/>
    <dc:date>2024-01-17T16:35:55.568231</dc:date>
    <dc:format>image/svg+xml</dc:format>
    <dc:creator>
     <cc:Agent>
      <dc:title>Matplotlib v3.4.3, https://matplotlib.org/</dc:title>
     </cc:Agent>
    </dc:creator>
   </cc:Work>
  </rdf:RDF>
 </metadata>
 <defs>
  <style type="text/css">*{stroke-linecap:butt;stroke-linejoin:round;}</style>
 </defs>
 <g id="figure_1">
  <g id="patch_1">
   <path d="M 0 144 
L 792 144 
L 792 0 
L 0 0 
z
" style="fill:none;"/>
  </g>
  <g id="axes_1">
   <g id="patch_2">
    <path d="M 99 126 
L 712.8 126 
L 712.8 17.28 
L 99 17.28 
z
" style="fill:#ffffff;"/>
   </g>
   <g id="matplotlib.axis_1">
    <g id="xtick_1">
     <g id="line2d_1">
      <defs>
       <path d="M 0 0 
L 0 3.5 
" id="me52d026b52" style="stroke:#000000;stroke-width:0.8;"/>
      </defs>
      <g>
       <use style="stroke:#000000;stroke-width:0.8;" x="99" xlink:href="#me52d026b52" y="126"/>
      </g>
     </g>
     <g id="text_1">
      <!-- 0 -->
      <g transform="translate(95.81875 140.598437)scale(0.1 -0.1)">
       <defs>
        <path d="M 2034 4250 
Q 1547 4250 1301 3770 
Q 1056 3291 1056 2328 
Q 1056 1369 1301 889 
Q 1547 409 2034 409 
Q 2525 409 2770 889 
Q 3016 1369 3016 2328 
Q 3016 3291 2770 3770 
Q 2525 4250 2034 4250 
z
M 2034 4750 
Q 2819 4750 3233 4129 
Q 3647 3509 3647 2328 
Q 3647 1150 3233 529 
Q 2819 -91 2034 -91 
Q 1250 -91 836 529 
Q 422 1150 422 2328 
Q 422 3509 836 4129 
Q 1250 4750 2034 4750 
z
" id="DejaVuSans-30" transform="scale(0.015625)"/>
       </defs>
       <use xlink:href="#DejaVuSans-30"/>
      </g>
     </g>
    </g>
    <g id="xtick_2">
     <g id="line2d_2">
      <g>
       <use style="stroke:#000000;stroke-width:0.8;" x="201.3" xlink:href="#me52d026b52" y="126"/>
      </g>
     </g>
     <g id="text_2">
      <!-- 50 -->
      <g transform="translate(194.9375 140.598437)scale(0.1 -0.1)">
       <defs>
        <path d="M 691 4666 
L 3169 4666 
L 3169 4134 
L 1269 4134 
L 1269 2991 
Q 1406 3038 1543 3061 
Q 1681 3084 1819 3084 
Q 2600 3084 3056 2656 
Q 3513 2228 3513 1497 
Q 3513 744 3044 326 
Q 2575 -91 1722 -91 
Q 1428 -91 1123 -41 
Q 819 9 494 109 
L 494 744 
Q 775 591 1075 516 
Q 1375 441 1709 441 
Q 2250 441 2565 725 
Q 2881 1009 2881 1497 
Q 2881 1984 2565 2268 
Q 2250 2553 1709 2553 
Q 1456 2553 1204 2497 
Q 953 2441 691 2322 
L 691 4666 
z
" id="DejaVuSans-35" transform="scale(0.015625)"/>
       </defs>
       <use xlink:href="#DejaVuSans-35"/>
       <use x="63.623047" xlink:href="#DejaVuSans-30"/>
      </g>
     </g>
    </g>
    <g id="xtick_3">
     <g id="line2d_3">
      <g>
       <use style="stroke:#000000;stroke-width:0.8;" x="303.6" xlink:href="#me52d026b52" y="126"/>
      </g>
     </g>
     <g id="text_3">
      <!-- 100 -->
      <g transform="translate(294.05625 140.598437)scale(0.1 -0.1)">
       <defs>
        <path d="M 794 531 
L 1825 531 
L 1825 4091 
L 703 3866 
L 703 4441 
L 1819 4666 
L 2450 4666 
L 2450 531 
L 3481 531 
L 3481 0 
L 794 0 
L 794 531 
z
" id="DejaVuSans-31" transform="scale(0.015625)"/>
       </defs>
       <use xlink:href="#DejaVuSans-31"/>
       <use x="63.623047" xlink:href="#DejaVuSans-30"/>
       <use x="127.246094" xlink:href="#DejaVuSans-30"/>
      </g>
     </g>
    </g>
    <g id="xtick_4">
     <g id="line2d_4">
      <g>
       <use style="stroke:#000000;stroke-width:0.8;" x="405.9" xlink:href="#me52d026b52" y="126"/>
      </g>
     </g>
     <g id="text_4">
      <!-- 150 -->
      <g transform="translate(396.35625 140.598437)scale(0.1 -0.1)">
       <use xlink:href="#DejaVuSans-31"/>
       <use x="63.623047" xlink:href="#DejaVuSans-35"/>
       <use x="127.246094" xlink:href="#DejaVuSans-30"/>
      </g>
     </g>
    </g>
    <g id="xtick_5">
     <g id="line2d_5">
      <g>
       <use style="stroke:#000000;stroke-width:0.8;" x="508.2" xlink:href="#me52d026b52" y="126"/>
      </g>
     </g>
     <g id="text_5">
      <!-- 200 -->
      <g transform="translate(498.65625 140.598437)scale(0.1 -0.1)">
       <defs>
        <path d="M 1228 531 
L 3431 531 
L 3431 0 
L 469 0 
L 469 531 
Q 828 903 1448 1529 
Q 2069 2156 2228 2338 
Q 2531 2678 2651 2914 
Q 2772 3150 2772 3378 
Q 2772 3750 2511 3984 
Q 2250 4219 1831 4219 
Q 1534 4219 1204 4116 
Q 875 4013 500 3803 
L 500 4441 
Q 881 4594 1212 4672 
Q 1544 4750 1819 4750 
Q 2544 4750 2975 4387 
Q 3406 4025 3406 3419 
Q 3406 3131 3298 2873 
Q 3191 2616 2906 2266 
Q 2828 2175 2409 1742 
Q 1991 1309 1228 531 
z
" id="DejaVuSans-32" transform="scale(0.015625)"/>
       </defs>
       <use xlink:href="#DejaVuSans-32"/>
       <use x="63.623047" xlink:href="#DejaVuSans-30"/>
       <use x="127.246094" xlink:href="#DejaVuSans-30"/>
      </g>
     </g>
    </g>
    <g id="xtick_6">
     <g id="line2d_6">
      <g>
       <use style="stroke:#000000;stroke-width:0.8;" x="610.5" xlink:href="#me52d026b52" y="126"/>
      </g>
     </g>
     <g id="text_6">
      <!-- 250 -->
      <g transform="translate(600.95625 140.598437)scale(0.1 -0.1)">
       <use xlink:href="#DejaVuSans-32"/>
       <use x="63.623047" xlink:href="#DejaVuSans-35"/>
       <use x="127.246094" xlink:href="#DejaVuSans-30"/>
      </g>
     </g>
    </g>
    <g id="xtick_7">
     <g id="line2d_7">
      <g>
       <use style="stroke:#000000;stroke-width:0.8;" x="712.8" xlink:href="#me52d026b52" y="126"/>
      </g>
     </g>
     <g id="text_7">
      <!-- 300 -->
      <g transform="translate(703.25625 140.598437)scale(0.1 -0.1)">
       <defs>
        <path d="M 2597 2516 
Q 3050 2419 3304 2112 
Q 3559 1806 3559 1356 
Q 3559 666 3084 287 
Q 2609 -91 1734 -91 
Q 1441 -91 1130 -33 
Q 819 25 488 141 
L 488 750 
Q 750 597 1062 519 
Q 1375 441 1716 441 
Q 2309 441 2620 675 
Q 2931 909 2931 1356 
Q 2931 1769 2642 2001 
Q 2353 2234 1838 2234 
L 1294 2234 
L 1294 2753 
L 1863 2753 
Q 2328 2753 2575 2939 
Q 2822 3125 2822 3475 
Q 2822 3834 2567 4026 
Q 2313 4219 1838 4219 
Q 1578 4219 1281 4162 
Q 984 4106 628 3988 
L 628 4550 
Q 988 4650 1302 4700 
Q 1616 4750 1894 4750 
Q 2613 4750 3031 4423 
Q 3450 4097 3450 3541 
Q 3450 3153 3228 2886 
Q 3006 2619 2597 2516 
z
" id="DejaVuSans-33" transform="scale(0.015625)"/>
       </defs>
       <use xlink:href="#DejaVuSans-33"/>
       <use x="63.623047" xlink:href="#DejaVuSans-30"/>
       <use x="127.246094" xlink:href="#DejaVuSans-30"/>
      </g>
     </g>
    </g>
   </g>
   <g id="matplotlib.axis_2">
    <g id="ytick_1">
     <g id="line2d_8">
      <defs>
       <path d="M 0 0 
L -3.5 0 
" id="m2b09effead" style="stroke:#000000;stroke-width:0.8;"/>
      </defs>
      <g>
       <use style="stroke:#000000;stroke-width:0.8;" x="99" xlink:href="#m2b09effead" y="126"/>
      </g>
     </g>
     <g id="text_8">
      <!-- 0.0 -->
      <g transform="translate(76.096875 129.799219)scale(0.1 -0.1)">
       <defs>
        <path d="M 684 794 
L 1344 794 
L 1344 0 
L 684 0 
L 684 794 
z
" id="DejaVuSans-2e" transform="scale(0.015625)"/>
       </defs>
       <use xlink:href="#DejaVuSans-30"/>
       <use x="63.623047" xlink:href="#DejaVuSans-2e"/>
       <use x="95.410156" xlink:href="#DejaVuSans-30"/>
      </g>
     </g>
    </g>
    <g id="ytick_2">
     <g id="line2d_9">
      <g>
       <use style="stroke:#000000;stroke-width:0.8;" x="99" xlink:href="#m2b09effead" y="104.256"/>
      </g>
     </g>
     <g id="text_9">
      <!-- 0.2 -->
      <g transform="translate(76.096875 108.055219)scale(0.1 -0.1)">
       <use xlink:href="#DejaVuSans-30"/>
       <use x="63.623047" xlink:href="#DejaVuSans-2e"/>
       <use x="95.410156" xlink:href="#DejaVuSans-32"/>
      </g>
     </g>
    </g>
    <g id="ytick_3">
     <g id="line2d_10">
      <g>
       <use style="stroke:#000000;stroke-width:0.8;" x="99" xlink:href="#m2b09effead" y="82.512"/>
      </g>
     </g>
     <g id="text_10">
      <!-- 0.4 -->
      <g transform="translate(76.096875 86.311219)scale(0.1 -0.1)">
       <defs>
        <path d="M 2419 4116 
L 825 1625 
L 2419 1625 
L 2419 4116 
z
M 2253 4666 
L 3047 4666 
L 3047 1625 
L 3713 1625 
L 3713 1100 
L 3047 1100 
L 3047 0 
L 2419 0 
L 2419 1100 
L 313 1100 
L 313 1709 
L 2253 4666 
z
" id="DejaVuSans-34" transform="scale(0.015625)"/>
       </defs>
       <use xlink:href="#DejaVuSans-30"/>
       <use x="63.623047" xlink:href="#DejaVuSans-2e"/>
       <use x="95.410156" xlink:href="#DejaVuSans-34"/>
      </g>
     </g>
    </g>
    <g id="ytick_4">
     <g id="line2d_11">
      <g>
       <use style="stroke:#000000;stroke-width:0.8;" x="99" xlink:href="#m2b09effead" y="60.768"/>
      </g>
     </g>
     <g id="text_11">
      <!-- 0.6 -->
      <g transform="translate(76.096875 64.567219)scale(0.1 -0.1)">
       <defs>
        <path d="M 2113 2584 
Q 1688 2584 1439 2293 
Q 1191 2003 1191 1497 
Q 1191 994 1439 701 
Q 1688 409 2113 409 
Q 2538 409 2786 701 
Q 3034 994 3034 1497 
Q 3034 2003 2786 2293 
Q 2538 2584 2113 2584 
z
M 3366 4563 
L 3366 3988 
Q 3128 4100 2886 4159 
Q 2644 4219 2406 4219 
Q 1781 4219 1451 3797 
Q 1122 3375 1075 2522 
Q 1259 2794 1537 2939 
Q 1816 3084 2150 3084 
Q 2853 3084 3261 2657 
Q 3669 2231 3669 1497 
Q 3669 778 3244 343 
Q 2819 -91 2113 -91 
Q 1303 -91 875 529 
Q 447 1150 447 2328 
Q 447 3434 972 4092 
Q 1497 4750 2381 4750 
Q 2619 4750 2861 4703 
Q 3103 4656 3366 4563 
z
" id="DejaVuSans-36" transform="scale(0.015625)"/>
       </defs>
       <use xlink:href="#DejaVuSans-30"/>
       <use x="63.623047" xlink:href="#DejaVuSans-2e"/>
       <use x="95.410156" xlink:href="#DejaVuSans-36"/>
      </g>
     </g>
    </g>
    <g id="ytick_5">
     <g id="line2d_12">
      <g>
       <use style="stroke:#000000;stroke-width:0.8;" x="99" xlink:href="#m2b09effead" y="39.024"/>
      </g>
     </g>
     <g id="text_12">
      <!-- 0.8 -->
      <g transform="translate(76.096875 42.823219)scale(0.1 -0.1)">
       <defs>
        <path d="M 2034 2216 
Q 1584 2216 1326 1975 
Q 1069 1734 1069 1313 
Q 1069 891 1326 650 
Q 1584 409 2034 409 
Q 2484 409 2743 651 
Q 3003 894 3003 1313 
Q 3003 1734 2745 1975 
Q 2488 2216 2034 2216 
z
M 1403 2484 
Q 997 2584 770 2862 
Q 544 3141 544 3541 
Q 544 4100 942 4425 
Q 1341 4750 2034 4750 
Q 2731 4750 3128 4425 
Q 3525 4100 3525 3541 
Q 3525 3141 3298 2862 
Q 3072 2584 2669 2484 
Q 3125 2378 3379 2068 
Q 3634 1759 3634 1313 
Q 3634 634 3220 271 
Q 2806 -91 2034 -91 
Q 1263 -91 848 271 
Q 434 634 434 1313 
Q 434 1759 690 2068 
Q 947 2378 1403 2484 
z
M 1172 3481 
Q 1172 3119 1398 2916 
Q 1625 2713 2034 2713 
Q 2441 2713 2670 2916 
Q 2900 3119 2900 3481 
Q 2900 3844 2670 4047 
Q 2441 4250 2034 4250 
Q 1625 4250 1398 4047 
Q 1172 3844 1172 3481 
z
" id="DejaVuSans-38" transform="scale(0.015625)"/>
       </defs>
       <use xlink:href="#DejaVuSans-30"/>
       <use x="63.623047" xlink:href="#DejaVuSans-2e"/>
       <use x="95.410156" xlink:href="#DejaVuSans-38"/>
      </g>
     </g>
    </g>
    <g id="ytick_6">
     <g id="line2d_13">
      <g>
       <use style="stroke:#000000;stroke-width:0.8;" x="99" xlink:href="#m2b09effead" y="17.28"/>
      </g>
     </g>
     <g id="text_13">
      <!-- 1.0 -->
      <g transform="translate(76.096875 21.079219)scale(0.1 -0.1)">
       <use xlink:href="#DejaVuSans-31"/>
       <use x="63.623047" xlink:href="#DejaVuSans-2e"/>
       <use x="95.410156" xlink:href="#DejaVuSans-30"/>
      </g>
     </g>
    </g>
   </g>
   <g id="line2d_14">
    <path clip-path="url(#pc9aa305c00)" d="M 99 126 
L 103.063356 126 
L 103.175886 125.157645 
L 105.109356 125.157645 
L 105.221886 124.315289 
L 107.155356 124.315289 
L 107.267886 123.472934 
L 109.201356 123.472934 
L 109.313886 122.6025 
L 111.247356 122.6025 
L 111.359886 121.760145 
L 113.293356 121.760145 
L 113.405886 120.917789 
L 115.339356 120.917789 
L 115.451886 120.075434 
L 117.385356 120.075434 
L 117.497886 119.205 
L 119.431356 119.205 
L 119.543886 118.362645 
L 121.477356 118.362645 
L 121.589886 117.520289 
L 123.523356 117.520289 
L 123.635886 116.677934 
L 125.569356 116.677934 
L 125.681886 115.8075 
L 127.615356 115.8075 
L 127.727886 114.965145 
L 129.661356 114.965145 
L 129.773886 114.122789 
L 131.707356 114.122789 
L 131.819886 113.336591 
L 133.753356 113.336591 
L 133.865886 112.466157 
L 135.799356 112.466157 
L 135.911886 111.623802 
L 137.845356 111.623802 
L 137.957886 110.781446 
L 139.891356 110.781446 
L 140.003886 109.939091 
L 141.937356 109.939091 
L 142.049886 109.124814 
L 143.983356 109.124814 
L 144.095886 108.282459 
L 146.029356 108.282459 
L 146.141886 107.440103 
L 148.075356 107.440103 
L 148.187886 106.569669 
L 150.121356 106.569669 
L 150.233886 105.727314 
L 152.167356 105.727314 
L 152.279886 104.941116 
L 154.213356 104.941116 
L 154.325886 104.09876 
L 156.259356 104.09876 
L 156.371886 103.256405 
L 158.305356 103.256405 
L 158.417886 102.385971 
L 160.351356 102.385971 
L 160.463886 101.543616 
L 162.397356 101.543616 
L 162.509886 100.925888 
L 164.443356 100.925888 
L 164.555886 100.083533 
L 166.489356 100.083533 
L 166.601886 99.241178 
L 168.535356 99.241178 
L 168.647886 98.370744 
L 170.581356 98.370744 
L 170.693886 97.528388 
L 172.627356 97.528388 
L 172.739886 96.686033 
L 174.673356 96.686033 
L 174.785886 95.843678 
L 176.719356 95.843678 
L 176.831886 95.001322 
L 178.765356 95.001322 
L 178.877886 94.130888 
L 180.811356 94.130888 
L 180.923886 93.288533 
L 182.857356 93.288533 
L 182.969886 92.755041 
L 184.903356 92.755041 
L 185.015886 91.884607 
L 186.949356 91.884607 
L 187.061886 91.042252 
L 188.995356 91.042252 
L 189.107886 90.199897 
L 191.041356 90.199897 
L 191.153886 89.357541 
L 193.087356 89.357541 
L 193.199886 88.82405 
L 195.133356 88.82405 
L 195.245886 87.981694 
L 197.179356 87.981694 
L 197.291886 87.139339 
L 199.225356 87.139339 
L 199.337886 86.268905 
L 201.271356 86.268905 
L 201.383886 85.42655 
L 203.317356 85.42655 
L 203.429886 84.921136 
L 205.363356 84.921136 
L 205.475886 84.078781 
L 207.409356 84.078781 
L 207.521886 83.236426 
L 209.455356 83.236426 
L 209.567886 82.39407 
L 211.501356 82.39407 
L 211.613886 81.523636 
L 213.547356 81.523636 
L 213.659886 81.158616 
L 215.593356 81.158616 
L 215.705886 80.31626 
L 217.639356 80.31626 
L 217.751886 79.473905 
L 219.685356 79.473905 
L 219.797886 78.63155 
L 221.731356 78.63155 
L 221.843886 77.789194 
L 223.777356 77.789194 
L 223.889886 77.368017 
L 225.823356 77.368017 
L 225.935886 76.525661 
L 227.869356 76.525661 
L 227.981886 75.683306 
L 229.915356 75.683306 
L 230.027886 74.84095 
L 231.961356 74.84095 
L 232.073886 73.998595 
L 234.007356 73.998595 
L 234.119886 73.437025 
L 236.053356 73.437025 
L 236.165886 72.594669 
L 238.099356 72.594669 
L 238.211886 71.752314 
L 240.145356 71.752314 
L 240.257886 70.909959 
L 242.191356 70.909959 
L 242.303886 70.067603 
L 244.237356 70.067603 
L 244.349886 69.730661 
L 246.283356 69.730661 
L 246.395886 68.888306 
L 248.329356 68.888306 
L 248.441886 68.04595 
L 250.375356 68.04595 
L 250.487886 67.203595 
L 252.421356 67.203595 
L 252.533886 66.389318 
L 254.467356 66.389318 
L 254.579886 66.052376 
L 256.513356 66.052376 
L 256.625886 65.210021 
L 258.559356 65.210021 
L 258.671886 64.395744 
L 260.605356 64.395744 
L 260.717886 63.581467 
L 262.651356 63.581467 
L 262.763886 62.739112 
L 264.697356 62.739112 
L 264.809886 62.430248 
L 266.743356 62.430248 
L 266.855886 61.587893 
L 268.789356 61.587893 
L 268.901886 60.773616 
L 270.835356 60.773616 
L 270.947886 59.959339 
L 272.881356 59.959339 
L 272.993886 59.145062 
L 274.927356 59.145062 
L 275.039886 59.032748 
L 276.973356 59.032748 
L 277.085886 58.218471 
L 279.019356 58.218471 
L 279.131886 57.404194 
L 281.065356 57.404194 
L 281.177886 56.589917 
L 283.111356 56.589917 
L 283.223886 55.803719 
L 285.157356 55.803719 
L 285.269886 55.522934 
L 287.203356 55.522934 
L 287.315886 54.708657 
L 289.249356 54.708657 
L 289.361886 53.922459 
L 291.295356 53.922459 
L 291.407886 53.13626 
L 293.341356 53.13626 
L 293.453886 52.350062 
L 295.387356 52.350062 
L 295.499886 51.928884 
L 297.433356 51.928884 
L 297.545886 51.142686 
L 299.479356 51.142686 
L 299.591886 50.356488 
L 301.525356 50.356488 
L 301.637886 49.570289 
L 303.571356 49.570289 
L 303.683886 48.812169 
L 305.617356 48.812169 
L 305.729886 48.671777 
L 307.663356 48.671777 
L 307.775886 47.885579 
L 309.709356 47.885579 
L 309.821886 47.09938 
L 311.755356 47.09938 
L 311.867886 46.313182 
L 313.801356 46.313182 
L 313.913886 45.555062 
L 315.847356 45.555062 
L 315.959886 45.302355 
L 317.893356 45.302355 
L 318.005886 44.544236 
L 319.939356 44.544236 
L 320.051886 43.786116 
L 321.985356 43.786116 
L 322.097886 43.027996 
L 324.031356 43.027996 
L 324.143886 42.269876 
L 326.077356 42.269876 
L 326.189886 42.045248 
L 328.123356 42.045248 
L 328.235886 41.25905 
L 330.169356 41.25905 
L 330.281886 40.472851 
L 332.215356 40.472851 
L 332.327886 39.74281 
L 334.261356 39.74281 
L 334.373886 38.98469 
L 338.353356 39.012769 
L 338.465886 38.254649 
L 340.399356 38.254649 
L 340.511886 37.496529 
L 342.445356 37.496529 
L 342.557886 36.766488 
L 344.491356 36.766488 
L 344.603886 36.008368 
L 346.537356 36.008368 
L 346.649886 35.811818 
L 348.583356 35.811818 
L 348.695886 35.02562 
L 350.629356 35.02562 
L 350.741886 34.295579 
L 352.675356 34.295579 
L 352.787886 33.50938 
L 354.721356 33.50938 
L 354.833886 32.75126 
L 356.767356 32.75126 
L 356.879886 32.470475 
L 358.813356 32.470475 
L 358.925886 31.712355 
L 360.859356 31.712355 
L 360.971886 30.954236 
L 362.905356 30.954236 
L 363.017886 30.196116 
L 364.951356 30.196116 
L 365.063886 29.943409 
L 366.997356 29.943409 
L 367.109886 30.533058 
L 369.043356 30.533058 
L 369.155886 30.30843 
L 371.089356 30.30843 
L 371.201886 30.083802 
L 373.135356 30.083802 
L 373.247886 29.859174 
L 375.181356 29.859174 
L 375.293886 29.634545 
L 377.227356 29.634545 
L 377.339886 30.027645 
L 379.273356 30.027645 
L 379.385886 29.803017 
L 381.319356 29.803017 
L 381.431886 29.578388 
L 383.365356 29.578388 
L 383.477886 29.381839 
L 385.411356 29.381839 
L 385.523886 29.185289 
L 387.457356 29.185289 
L 387.569886 29.606467 
L 389.503356 29.606467 
L 389.615886 29.381839 
L 391.549356 29.381839 
L 391.661886 29.185289 
L 393.595356 29.185289 
L 393.707886 28.98874 
L 395.641356 28.98874 
L 395.753886 28.820269 
L 397.687356 28.820269 
L 397.799886 29.466074 
L 399.733356 29.466074 
L 399.845886 29.241446 
L 401.779356 29.241446 
L 401.891886 29.072975 
L 403.825356 29.072975 
L 403.937886 28.876426 
L 405.871356 28.876426 
L 405.983886 28.679876 
L 407.917356 28.679876 
L 408.029886 29.129132 
L 409.963356 29.129132 
L 410.075886 28.904504 
L 412.009356 28.904504 
L 412.121886 28.707955 
L 414.055356 28.707955 
L 414.167886 28.539483 
L 416.101356 28.539483 
L 416.213886 28.342934 
L 418.147356 28.342934 
L 418.259886 28.679876 
L 420.193356 28.679876 
L 420.305886 28.511405 
L 422.239356 28.511405 
L 422.351886 28.342934 
L 424.285356 28.342934 
L 424.397886 28.174463 
L 426.331356 28.174463 
L 426.443886 28.062149 
L 428.377356 28.062149 
L 428.489886 28.679876 
L 430.423356 28.679876 
L 430.535886 28.511405 
L 432.469356 28.511405 
L 432.581886 28.342934 
L 434.515356 28.342934 
L 434.627886 28.174463 
L 436.561356 28.174463 
L 436.673886 28.005992 
L 438.607356 28.005992 
L 438.719886 28.427169 
L 440.653356 28.427169 
L 440.765886 28.23062 
L 442.699356 28.23062 
L 442.811886 28.090227 
L 444.745356 28.090227 
L 444.857886 27.893678 
L 446.791356 27.893678 
L 446.903886 27.753285 
L 448.837356 27.753285 
L 448.949886 28.174463 
L 450.883356 28.174463 
L 450.995886 28.005992 
L 452.929356 28.005992 
L 453.041886 27.809442 
L 454.975356 27.809442 
L 455.087886 27.66905 
L 457.021356 27.66905 
L 457.133886 27.528657 
L 459.067356 27.528657 
L 459.179886 28.286777 
L 461.113356 28.286777 
L 461.225886 28.062149 
L 463.159356 28.062149 
L 463.271886 27.893678 
L 465.205356 27.893678 
L 465.317886 27.725207 
L 467.251356 27.725207 
L 467.363886 27.584814 
L 469.297356 27.584814 
L 469.409886 28.062149 
L 471.343356 28.062149 
L 471.455886 27.865599 
L 473.389356 27.865599 
L 473.501886 27.725207 
L 475.435356 27.725207 
L 475.547886 27.528657 
L 477.481356 27.528657 
L 477.593886 27.416343 
L 479.527356 27.416343 
L 479.639886 27.837521 
L 481.573356 27.837521 
L 481.685886 27.66905 
L 483.619356 27.66905 
L 483.731886 27.528657 
L 485.665356 27.528657 
L 485.777886 27.416343 
L 487.711356 27.416343 
L 487.823886 27.304029 
L 489.757356 27.304029 
L 489.869886 28.005992 
L 491.803356 28.005992 
L 491.915886 27.809442 
L 493.849356 27.809442 
L 493.961886 27.640971 
L 495.895356 27.640971 
L 496.007886 27.4725 
L 497.941356 27.4725 
L 498.053886 27.304029 
L 499.987356 27.304029 
L 500.099886 27.725207 
L 502.033356 27.725207 
L 502.145886 27.556736 
L 504.079356 27.556736 
L 504.191886 27.416343 
L 506.125356 27.416343 
L 506.237886 27.247872 
L 508.171356 27.247872 
L 508.283886 27.107479 
L 510.217356 27.107479 
L 510.329886 27.556736 
L 512.263356 27.556736 
L 512.375886 27.416343 
L 514.309356 27.416343 
L 514.421886 27.27595 
L 516.355356 27.27595 
L 516.467886 27.107479 
L 518.401356 27.107479 
L 518.513886 26.967087 
L 520.447356 26.967087 
L 520.559886 27.725207 
L 522.493356 27.725207 
L 522.605886 27.528657 
L 524.539356 27.528657 
L 524.651886 27.332107 
L 526.585356 27.332107 
L 526.697886 27.163636 
L 528.631356 27.163636 
L 528.743886 26.995165 
L 530.677356 26.995165 
L 530.789886 27.500579 
L 532.723356 27.500579 
L 532.835886 27.27595 
L 534.769356 27.27595 
L 534.881886 27.135558 
L 536.815356 27.135558 
L 536.927886 26.995165 
L 538.861356 26.995165 
L 538.973886 26.826694 
L 540.907356 26.826694 
L 541.019886 27.304029 
L 542.953356 27.304029 
L 543.065886 27.135558 
L 547.045356 27.051322 
L 547.157886 26.91093 
L 549.091356 26.91093 
L 549.203886 26.798616 
L 551.137356 26.798616 
L 551.249886 27.4725 
L 553.183356 27.4725 
L 553.295886 27.27595 
L 555.229356 27.27595 
L 555.341886 27.135558 
L 557.275356 27.135558 
L 557.387886 26.967087 
L 559.321356 26.967087 
L 559.433886 26.826694 
L 561.367356 26.826694 
L 561.479886 27.247872 
L 563.413356 27.247872 
L 563.525886 27.079401 
L 565.459356 27.079401 
L 565.571886 26.939008 
L 567.505356 26.939008 
L 567.617886 26.798616 
L 569.551356 26.798616 
L 569.663886 26.686302 
L 571.597356 26.686302 
L 571.709886 27.163636 
L 573.643356 27.163636 
L 573.755886 26.995165 
L 575.689356 26.995165 
L 575.801886 26.854773 
L 577.735356 26.854773 
L 577.847886 26.71438 
L 579.781356 26.71438 
L 579.893886 26.573988 
L 581.827356 26.573988 
L 581.939886 27.360186 
L 583.873356 27.360186 
L 583.985886 27.191715 
L 585.919356 27.191715 
L 586.031886 26.995165 
L 587.965356 26.995165 
L 588.077886 26.854773 
L 590.011356 26.854773 
L 590.123886 26.71438 
L 592.057356 26.71438 
L 592.169886 27.191715 
L 594.103356 27.191715 
L 594.215886 26.995165 
L 596.149356 26.995165 
L 596.261886 26.826694 
L 598.195356 26.826694 
L 598.307886 26.686302 
L 600.241356 26.686302 
L 600.353886 26.545909 
L 602.287356 26.545909 
L 602.399886 27.051322 
L 604.333356 27.051322 
L 604.445886 26.91093 
L 606.379356 26.91093 
L 606.491886 26.742459 
L 610.471356 26.658223 
L 610.583886 26.545909 
L 612.517356 26.545909 
L 612.629886 27.304029 
L 614.563356 27.304029 
L 614.675886 27.079401 
L 616.609356 27.079401 
L 616.721886 26.939008 
L 618.655356 26.939008 
L 618.767886 26.770537 
L 620.701356 26.770537 
L 620.813886 26.602066 
L 622.747356 26.602066 
L 622.859886 27.051322 
L 624.793356 27.051322 
L 624.905886 26.882851 
L 626.839356 26.882851 
L 626.951886 26.742459 
L 628.885356 26.742459 
L 628.997886 26.602066 
L 630.931356 26.602066 
L 631.043886 26.489752 
L 632.977356 26.489752 
L 633.089886 26.967087 
L 635.023356 26.967087 
L 635.135886 26.798616 
L 637.069356 26.798616 
L 637.181886 26.686302 
L 639.115356 26.686302 
L 639.227886 26.545909 
L 641.161356 26.545909 
L 641.273886 26.433595 
L 643.207356 26.433595 
L 643.319886 27.247872 
L 645.253356 27.247872 
L 645.365886 27.051322 
L 647.299356 27.051322 
L 647.411886 26.882851 
L 649.345356 26.882851 
L 649.457886 26.71438 
L 651.391356 26.71438 
L 651.503886 26.573988 
L 653.437356 26.573988 
L 653.549886 27.051322 
L 655.483356 27.051322 
L 655.595886 26.91093 
L 657.529356 26.91093 
L 657.641886 26.798616 
L 659.575356 26.798616 
L 659.687886 26.658223 
L 661.621356 26.658223 
L 661.733886 26.489752 
L 663.667356 26.489752 
L 663.779886 26.967087 
L 665.713356 26.967087 
L 665.825886 26.770537 
L 667.759356 26.770537 
L 667.871886 26.658223 
L 669.805356 26.658223 
L 669.917886 26.517831 
L 671.851356 26.517831 
L 671.963886 26.377438 
L 673.897356 26.377438 
L 674.009886 27.107479 
L 675.943356 27.107479 
L 676.055886 26.91093 
L 677.989356 26.91093 
L 678.101886 26.770537 
L 680.035356 26.770537 
L 680.147886 26.602066 
L 682.081356 26.602066 
L 682.193886 26.461674 
L 684.127356 26.461674 
L 684.239886 26.91093 
L 686.173356 26.91093 
L 686.285886 26.770537 
L 688.219356 26.770537 
L 688.331886 26.630145 
L 690.265356 26.630145 
L 690.377886 26.489752 
L 692.311356 26.489752 
L 692.423886 26.377438 
L 694.357356 26.377438 
L 694.469886 26.882851 
L 696.403356 26.882851 
L 696.515886 26.686302 
L 698.449356 26.686302 
L 698.561886 26.545909 
L 700.495356 26.545909 
L 700.607886 26.433595 
L 702.541356 26.433595 
L 702.653886 26.293202 
L 704.587356 26.293202 
L 704.699886 27.107479 
L 706.633356 27.107479 
L 706.745886 26.91093 
L 708.679356 26.91093 
L 708.791886 26.742459 
L 710.725356 26.742459 
L 710.837886 26.573988 
L 712.802046 26.573988 
L 712.802046 26.573988 
" style="fill:none;stroke:#1f77b4;stroke-linecap:square;stroke-width:1.5;"/>
   </g>
   <g id="line2d_15">
    <path clip-path="url(#pc9aa305c00)" d="M 158.334 126 
L 158.334 17.28 
" style="fill:none;stroke:#808080;stroke-dasharray:5.55,2.4;stroke-dashoffset:0;stroke-width:1.5;"/>
   </g>
   <g id="line2d_16">
    <path clip-path="url(#pc9aa305c00)" d="M 223.806 126 
L 223.806 17.28 
" style="fill:none;stroke:#808080;stroke-dasharray:5.55,2.4;stroke-dashoffset:0;stroke-width:1.5;"/>
   </g>
   <g id="line2d_17">
    <path clip-path="url(#pc9aa305c00)" d="M 281.094 126 
L 281.094 17.28 
" style="fill:none;stroke:#808080;stroke-dasharray:5.55,2.4;stroke-dashoffset:0;stroke-width:1.5;"/>
   </g>
   <g id="line2d_18">
    <path clip-path="url(#pc9aa305c00)" d="M 346.566 126 
L 346.566 17.28 
" style="fill:none;stroke:#808080;stroke-dasharray:5.55,2.4;stroke-dashoffset:0;stroke-width:1.5;"/>
   </g>
   <g id="line2d_19">
    <path clip-path="url(#pc9aa305c00)" d="M 526.614 126 
L 526.614 17.28 
" style="fill:none;stroke:#808080;stroke-dasharray:5.55,2.4;stroke-dashoffset:0;stroke-width:1.5;"/>
   </g>
   <g id="line2d_20">
    <path clip-path="url(#pc9aa305c00)" d="M 592.086 126 
L 592.086 17.28 
" style="fill:none;stroke:#808080;stroke-dasharray:5.55,2.4;stroke-dashoffset:0;stroke-width:1.5;"/>
   </g>
   <g id="patch_3">
    <path d="M 99 126 
L 99 17.28 
" style="fill:none;stroke:#000000;stroke-linecap:square;stroke-linejoin:miter;stroke-width:0.8;"/>
   </g>
   <g id="patch_4">
    <path d="M 712.8 126 
L 712.8 17.28 
" style="fill:none;stroke:#000000;stroke-linecap:square;stroke-linejoin:miter;stroke-width:0.8;"/>
   </g>
   <g id="patch_5">
    <path d="M 99 126 
L 712.8 126 
" style="fill:none;stroke:#000000;stroke-linecap:square;stroke-linejoin:miter;stroke-width:0.8;"/>
   </g>
   <g id="patch_6">
    <path d="M 99 17.28 
L 712.8 17.28 
" style="fill:none;stroke:#000000;stroke-linecap:square;stroke-linejoin:miter;stroke-width:0.8;"/>
   </g>
   <g id="legend_1">
    <g id="patch_7">
     <path d="M 106 39.958125 
L 205.145312 39.958125 
Q 207.145312 39.958125 207.145312 37.958125 
L 207.145312 24.28 
Q 207.145312 22.28 205.145312 22.28 
L 106 22.28 
Q 104 22.28 104 24.28 
L 104 37.958125 
Q 104 39.958125 106 39.958125 
z
" style="fill:#ffffff;opacity:0.8;stroke:#cccccc;stroke-linejoin:miter;"/>
    </g>
    <g id="line2d_21">
     <path d="M 108 30.378437 
L 128 30.378437 
" style="fill:none;stroke:#1f77b4;stroke-linecap:square;stroke-width:1.5;"/>
    </g>
    <g id="line2d_22"/>
    <g id="text_14">
     <!-- PN u average -->
     <g transform="translate(136 33.878437)scale(0.1 -0.1)">
      <defs>
       <path d="M 1259 4147 
L 1259 2394 
L 2053 2394 
Q 2494 2394 2734 2622 
Q 2975 2850 2975 3272 
Q 2975 3691 2734 3919 
Q 2494 4147 2053 4147 
L 1259 4147 
z
M 628 4666 
L 2053 4666 
Q 2838 4666 3239 4311 
Q 3641 3956 3641 3272 
Q 3641 2581 3239 2228 
Q 2838 1875 2053 1875 
L 1259 1875 
L 1259 0 
L 628 0 
L 628 4666 
z
" id="DejaVuSans-50" transform="scale(0.015625)"/>
       <path d="M 628 4666 
L 1478 4666 
L 3547 763 
L 3547 4666 
L 4159 4666 
L 4159 0 
L 3309 0 
L 1241 3903 
L 1241 0 
L 628 0 
L 628 4666 
z
" id="DejaVuSans-4e" transform="scale(0.015625)"/>
       <path id="DejaVuSans-20" transform="scale(0.015625)"/>
       <path d="M 544 1381 
L 544 3500 
L 1119 3500 
L 1119 1403 
Q 1119 906 1312 657 
Q 1506 409 1894 409 
Q 2359 409 2629 706 
Q 2900 1003 2900 1516 
L 2900 3500 
L 3475 3500 
L 3475 0 
L 2900 0 
L 2900 538 
Q 2691 219 2414 64 
Q 2138 -91 1772 -91 
Q 1169 -91 856 284 
Q 544 659 544 1381 
z
M 1991 3584 
L 1991 3584 
z
" id="DejaVuSans-75" transform="scale(0.015625)"/>
       <path d="M 2194 1759 
Q 1497 1759 1228 1600 
Q 959 1441 959 1056 
Q 959 750 1161 570 
Q 1363 391 1709 391 
Q 2188 391 2477 730 
Q 2766 1069 2766 1631 
L 2766 1759 
L 2194 1759 
z
M 3341 1997 
L 3341 0 
L 2766 0 
L 2766 531 
Q 2569 213 2275 61 
Q 1981 -91 1556 -91 
Q 1019 -91 701 211 
Q 384 513 384 1019 
Q 384 1609 779 1909 
Q 1175 2209 1959 2209 
L 2766 2209 
L 2766 2266 
Q 2766 2663 2505 2880 
Q 2244 3097 1772 3097 
Q 1472 3097 1187 3025 
Q 903 2953 641 2809 
L 641 3341 
Q 956 3463 1253 3523 
Q 1550 3584 1831 3584 
Q 2591 3584 2966 3190 
Q 3341 2797 3341 1997 
z
" id="DejaVuSans-61" transform="scale(0.015625)"/>
       <path d="M 191 3500 
L 800 3500 
L 1894 563 
L 2988 3500 
L 3597 3500 
L 2284 0 
L 1503 0 
L 191 3500 
z
" id="DejaVuSans-76" transform="scale(0.015625)"/>
       <path d="M 3597 1894 
L 3597 1613 
L 953 1613 
Q 991 1019 1311 708 
Q 1631 397 2203 397 
Q 2534 397 2845 478 
Q 3156 559 3463 722 
L 3463 178 
Q 3153 47 2828 -22 
Q 2503 -91 2169 -91 
Q 1331 -91 842 396 
Q 353 884 353 1716 
Q 353 2575 817 3079 
Q 1281 3584 2069 3584 
Q 2775 3584 3186 3129 
Q 3597 2675 3597 1894 
z
M 3022 2063 
Q 3016 2534 2758 2815 
Q 2500 3097 2075 3097 
Q 1594 3097 1305 2825 
Q 1016 2553 972 2059 
L 3022 2063 
z
" id="DejaVuSans-65" transform="scale(0.015625)"/>
       <path d="M 2631 2963 
Q 2534 3019 2420 3045 
Q 2306 3072 2169 3072 
Q 1681 3072 1420 2755 
Q 1159 2438 1159 1844 
L 1159 0 
L 581 0 
L 581 3500 
L 1159 3500 
L 1159 2956 
Q 1341 3275 1631 3429 
Q 1922 3584 2338 3584 
Q 2397 3584 2469 3576 
Q 2541 3569 2628 3553 
L 2631 2963 
z
" id="DejaVuSans-72" transform="scale(0.015625)"/>
       <path d="M 2906 1791 
Q 2906 2416 2648 2759 
Q 2391 3103 1925 3103 
Q 1463 3103 1205 2759 
Q 947 2416 947 1791 
Q 947 1169 1205 825 
Q 1463 481 1925 481 
Q 2391 481 2648 825 
Q 2906 1169 2906 1791 
z
M 3481 434 
Q 3481 -459 3084 -895 
Q 2688 -1331 1869 -1331 
Q 1566 -1331 1297 -1286 
Q 1028 -1241 775 -1147 
L 775 -588 
Q 1028 -725 1275 -790 
Q 1522 -856 1778 -856 
Q 2344 -856 2625 -561 
Q 2906 -266 2906 331 
L 2906 616 
Q 2728 306 2450 153 
Q 2172 0 1784 0 
Q 1141 0 747 490 
Q 353 981 353 1791 
Q 353 2603 747 3093 
Q 1141 3584 1784 3584 
Q 2172 3584 2450 3431 
Q 2728 3278 2906 2969 
L 2906 3500 
L 3481 3500 
L 3481 434 
z
" id="DejaVuSans-67" transform="scale(0.015625)"/>
      </defs>
      <use xlink:href="#DejaVuSans-50"/>
      <use x="60.302734" xlink:href="#DejaVuSans-4e"/>
      <use x="135.107422" xlink:href="#DejaVuSans-20"/>
      <use x="166.894531" xlink:href="#DejaVuSans-75"/>
      <use x="230.273438" xlink:href="#DejaVuSans-20"/>
      <use x="262.060547" xlink:href="#DejaVuSans-61"/>
      <use x="323.339844" xlink:href="#DejaVuSans-76"/>
      <use x="382.519531" xlink:href="#DejaVuSans-65"/>
      <use x="444.042969" xlink:href="#DejaVuSans-72"/>
      <use x="485.15625" xlink:href="#DejaVuSans-61"/>
      <use x="546.435547" xlink:href="#DejaVuSans-67"/>
      <use x="609.912109" xlink:href="#DejaVuSans-65"/>
     </g>
    </g>
   </g>
  </g>
 </g>
 <defs>
  <clipPath id="pc9aa305c00">
   <rect height="108.72" width="613.8" x="99" y="17.28"/>
  </clipPath>
 </defs>
</svg>
